<svg width="236" height="230" viewBox="0 0 236 230" fill="none" xmlns="http://www.w3.org/2000/svg">
<circle cx="117.738" cy="114.987" r="79.2514" fill="#3FBDF0"/>
<path d="M176.416 162.747C189.926 191.562 206.576 97.1047 201.177 91.3546C195.778 85.6044 177.617 103.797 181.68 90.6907C185.743 77.584 170.667 45.2007 146.201 35.0386C109.287 19.7063 86.3188 32.6431 71.8074 42.989C57.2959 53.335 86.989 100.171 98.6392 103.284C117.031 108.198 79.7794 86.5021 110.285 67.3538C148.418 43.4184 178.683 96.794 169.834 101.224C158.27 107.014 140.639 108.912 139.653 111.555C138.667 114.197 162.906 133.933 176.416 162.747Z" fill="#147C6A"/>
<path d="M60.288 66.3391C47.3593 37.2592 28.8165 131.363 34.0989 137.22C39.3813 143.077 57.904 125.253 53.5784 138.275C49.2529 151.298 63.6757 183.977 87.9331 194.629C124.532 210.699 147.755 198.226 162.471 188.174C177.187 178.121 148.441 130.699 136.855 127.353C118.567 122.07 155.374 144.509 124.49 163.041C85.8847 186.206 56.6977 132.234 65.6333 127.982C77.3113 122.425 94.9775 120.882 96.0161 118.259C97.0546 115.637 73.2167 95.4189 60.288 66.3391Z" fill="#147C6A"/>
</svg>
