<svg width="32" height="32" viewBox="0 0 32 32" fill="none" xmlns="http://www.w3.org/2000/svg">
<path fill-rule="evenodd" clip-rule="evenodd" d="M16 30C19.713 30 23.274 28.525 25.8995 25.8995C28.525 23.274 30 19.713 30 16C30 12.287 28.525 8.72601 25.8995 6.1005C23.274 3.475 19.713 2 16 2C12.287 2 8.72601 3.475 6.1005 6.10051C3.47499 8.72601 2 12.287 2 16C2 19.713 3.475 23.274 6.1005 25.8995C8.72601 28.525 12.287 30 16 30V30ZM16 -6.99382e-07C20.2435 -8.8487e-07 24.3131 1.68571 27.3137 4.68629C30.3143 7.68687 32 11.7565 32 16C32 20.2435 30.3143 24.3131 27.3137 27.3137C24.3131 30.3143 20.2435 32 16 32C11.7565 32 7.68687 30.3143 4.68629 27.3137C1.68571 24.3131 -5.13895e-07 20.2435 -6.99382e-07 16C-8.8487e-07 11.7565 1.68571 7.68687 4.68629 4.68629C7.68687 1.68571 11.7565 -5.13895e-07 16 -6.99382e-07V-6.99382e-07ZM9 15C8.73478 15 8.48043 15.1054 8.29289 15.2929C8.10536 15.4804 8 15.7348 8 16C8 16.2652 8.10536 16.5196 8.29289 16.7071C8.48043 16.8946 8.73478 17 9 17L20.586 17L16.292 21.292C16.1042 21.4798 15.9987 21.7344 15.9987 22C15.9987 22.2656 16.1042 22.5202 16.292 22.708C16.4798 22.8958 16.7344 23.0013 17 23.0013C17.2656 23.0013 17.5202 22.8958 17.708 22.708L23.708 16.708C23.8011 16.6151 23.875 16.5048 23.9254 16.3833C23.9758 16.2618 24.0018 16.1315 24.0018 16C24.0018 15.8685 23.9758 15.7382 23.9254 15.6167C23.875 15.4952 23.8011 15.3849 23.708 15.292L17.708 9.292C17.5202 9.10423 17.2656 8.99874 17 8.99874C16.7344 8.99874 16.4798 9.10423 16.292 9.292C16.1042 9.47977 15.9987 9.73445 15.9987 10C15.9987 10.2656 16.1042 10.5202 16.292 10.708L20.586 15L9 15Z" fill="#147C6A"/>
</svg>
