<svg width="18" height="16" viewBox="0 0 18 16" fill="none" xmlns="http://www.w3.org/2000/svg">
<path fill-rule="evenodd" clip-rule="evenodd" d="M5.72408e-07 7.87589C5.98491e-07 7.57754 0.118519 7.2914 0.329485 7.08044C0.54045 6.86947 0.826582 6.75096 1.12493 6.75096L14.1584 6.75096L9.32793 1.92275C9.22334 1.81816 9.14037 1.69399 9.08377 1.55734C9.02717 1.42068 8.99803 1.27421 8.99803 1.1263C8.99803 0.978384 9.02717 0.831917 9.08377 0.695261C9.14037 0.558606 9.22334 0.434438 9.32793 0.329847C9.43252 0.225255 9.55669 0.142288 9.69335 0.0856839C9.83 0.0290794 9.97647 -5.35768e-05 10.1244 -5.35639e-05C10.2723 -5.35509e-05 10.4188 0.0290794 10.5554 0.085684C10.6921 0.142288 10.8162 0.225255 10.9208 0.329847L17.6704 7.07944C17.7752 7.18393 17.8583 7.30807 17.915 7.44474C17.9717 7.58141 18.0009 7.72792 18.0009 7.87589C18.0009 8.02386 17.9717 8.17037 17.915 8.30704C17.8583 8.44371 17.7752 8.56784 17.6704 8.67234L10.9208 15.4219C10.7096 15.6332 10.4231 15.7518 10.1244 15.7518C9.82566 15.7518 9.53916 15.6332 9.32793 15.4219C9.1167 15.2107 8.99803 14.9242 8.99803 14.6255C8.99803 14.3267 9.1167 14.0403 9.32793 13.829L14.1584 9.00082L1.12493 9.00082C0.826582 9.00082 0.54045 8.8823 0.329484 8.67133C0.118519 8.46037 5.46326e-07 8.17424 5.72408e-07 7.87589Z" fill="#147C6A"/>
</svg>
