<svg width="1242" height="3328" viewBox="0 0 1242 3328" fill="none" xmlns="http://www.w3.org/2000/svg">
<mask id="mask0_168_357" style="mask-type:alpha" maskUnits="userSpaceOnUse" x="0" y="0" width="1242" height="3329">
<path d="M1242 0H0V3328H1242V0Z" fill="#3FBDF0"/>
</mask>
<g mask="url(#mask0_168_357)">
<path d="M1242 0H0V3328H1242V0Z" fill="#3FBDF0"/>
<path d="M425.569 82.4721C503.984 83.9409 577.291 171.073 649.682 139.298C720.408 108.253 731.711 7.99166 763.028 -65.6549C794.102 -138.73 853.863 -212.805 832.02 -289.498C809.979 -366.889 712.517 -383.431 656.726 -438.893C608.465 -486.871 587.379 -563.012 527.214 -592.513C463.478 -623.765 389.41 -619.923 320.837 -603.588C249.223 -586.529 183.774 -550.279 129.809 -497.846C71.2646 -440.964 7.20835 -375.907 0.474427 -292.321C-6.20373 -209.424 59.2326 -143.132 95.2693 -69.0976C129.44 1.10479 137.851 99.483 206.524 130.996C276.339 163.033 349.425 81.0458 425.569 82.4721Z" fill="#1CB99C"/>
<path d="M425.569 2359.23C503.984 2360.7 577.291 2447.83 649.682 2416.06C720.408 2385.01 731.711 2284.75 763.028 2211.11C794.102 2138.03 853.863 2063.96 832.02 1987.26C809.979 1909.87 712.517 1893.33 656.726 1837.87C608.465 1789.89 587.379 1713.75 527.214 1684.25C463.478 1653 389.41 1656.84 320.837 1673.17C249.223 1690.23 183.774 1726.48 129.809 1778.91C71.2646 1835.8 7.20835 1900.85 0.474427 1984.44C-6.20373 2067.34 59.2326 2133.63 95.2693 2207.66C129.44 2277.87 137.851 2376.24 206.524 2407.76C276.339 2439.79 349.425 2357.81 425.569 2359.23Z" fill="#1CB99C"/>
<path d="M815.901 1207.25C879.88 1201.88 948.238 1221.41 1003.58 1187.18C1059.63 1152.52 1077.83 1079.88 1113.91 1022.96C1158 953.401 1231.62 898.791 1239.16 815.54C1247.17 727.199 1210.22 637.22 1154.93 570.256C1099.68 503.345 1017.22 472.289 936.1 448.52C855.91 425.023 764.898 392.613 691.808 434.555C619.226 476.206 622.556 588.217 572.267 657.303C526.438 720.261 442.409 745.797 412.313 818.519C378.346 900.594 358.072 1001.5 396.852 1081.17C435.508 1160.59 526.453 1195.91 607.935 1220.42C676.09 1240.93 745.243 1213.19 815.901 1207.25Z" fill="#1CB99C"/>
<path d="M815.901 3484.01C879.88 3478.64 948.238 3498.17 1003.58 3463.94C1059.63 3429.28 1077.83 3356.64 1113.91 3299.72C1158 3230.16 1231.62 3175.55 1239.16 3092.3C1247.17 3003.96 1210.22 2913.98 1154.93 2847.02C1099.68 2780.1 1017.22 2749.05 936.1 2725.28C855.91 2701.78 764.898 2669.37 691.808 2711.31C619.226 2752.97 622.556 2864.98 572.267 2934.06C526.438 2997.02 442.409 3022.56 412.313 3095.28C378.346 3177.35 358.072 3278.26 396.852 3357.93C435.508 3437.35 526.453 3472.67 607.935 3497.18C676.09 3517.69 745.243 3489.95 815.901 3484.01Z" fill="#1CB99C"/>
</g>
</svg>
