<svg width="98" height="98" viewBox="0 0 98 98" fill="none" xmlns="http://www.w3.org/2000/svg">
<path d="M98 19.4005L49 37.5539V37.5361L0 19.4005L49 0L98 19.4005Z" fill="#B77D51"/>
<path d="M49.0308 37.5717V98L49 97.9822L48.9846 97.9644L0 76.1233V19.4717L49 37.5539L49.0308 37.5717Z" fill="#F2B680"/>
<path d="M97.9999 19.4717V76.1233L49.0307 97.9644L48.9999 97.9822L48.9845 98V37.5717L48.9999 37.5539L97.9999 19.4717Z" fill="#BF8C60"/>
<path d="M97.9995 19.4005L67.8041 3.72331L28.8693 20.1665L48.9995 37.5539L97.9995 19.4005Z" fill="#FFCDA4"/>
<path d="M0 19.4005H27.6675L66.9877 2.47626L49 0L0 19.4005Z" fill="#FFCDA4"/>
</svg>
