<svg width="368" height="230" viewBox="0 0 368 230" fill="none" xmlns="http://www.w3.org/2000/svg">
<path d="M95.1566 56.5653C94.6209 45.3147 99.6033 31.4925 112.515 31.064C135.927 30.2603 148.785 58.0118 169.839 63.155C184.304 66.6909 193.251 56.4582 203.912 48.9578C215.431 40.8145 227.699 29.7782 243.129 33.2605C253.094 35.5106 258.719 45.6362 259.576 55.0117C260.487 65.0301 255.665 73.0662 256.522 82.7096C257.38 92.8887 268.202 97.2818 273.505 105.693C280.095 116.086 282.292 128.087 279.131 139.98C276.077 151.445 267.344 162.857 256.147 167.303C240.986 173.357 229.628 164.25 215.538 160.124C195.394 154.285 185.804 165 171.768 177.107C163.089 184.554 152.053 191.198 139.998 189.376C123.069 186.804 117.819 163.821 117.658 149.624C117.551 140.57 121.622 130.069 114.979 123.105C108.604 116.461 102.336 117.372 93.6566 116.836C86.7455 116.408 78.6558 113.783 76.2985 106.657C75.227 103.336 75.3342 98.9426 77.4236 96.0496C82.6738 88.817 95.0495 88.6563 96.871 79.6023C98.3711 71.9947 95.5317 64.1193 95.1566 56.5653Z" fill="#BBE7F2"/>
<path d="M160.946 32.7783C164.16 19.6526 134.426 8.93776 133.516 21.7956C133.033 28.6531 143.159 37.1178 149.266 38.2429C154.945 39.3144 159.499 38.5643 160.946 32.7783Z" fill="#BBE7F2"/>
<path d="M356.057 95.097C381.496 136.079 362.633 178.015 333.742 203.445C304.851 228.876 117.557 241.997 29.6148 215.304C19.6135 212.268 7.75266 210.232 0.796539 182.336C-6.15961 154.44 34.5835 142.774 40.049 125.529C45.5146 108.284 38.5584 95.097 34.5835 63.1433C30.6086 31.1896 43.0302 11.916 99.6731 1.772C156.316 -8.37203 164.266 28.1465 188.612 32.7113C212.959 37.2761 250.721 28.1465 259.664 28.1465C268.608 28.1465 324.257 43.8697 356.057 95.097Z" fill="#F3EDED"/>
<path d="M138.552 167.464C136.248 162.107 135.23 156.374 132.069 151.445C130.891 149.57 129.658 147.856 127.783 146.463C125.533 144.695 123.015 145.016 120.551 143.945C115.997 142.016 113.425 136.766 109.086 134.194C104.746 131.623 99.5497 130.819 94.6209 131.837C90.0671 132.802 86.9062 133.337 82.5131 131.409C79.1379 129.962 72.1197 127.551 74.477 133.98C75.8699 137.73 80.5308 139.605 82.8345 143.088C85.299 146.838 85.8883 152.303 89.2099 155.463C92.3708 158.464 96.6031 155.142 99.9783 157.928C103.461 160.821 104.532 164.785 108.872 167.143C113.533 169.714 119.104 170.518 124.355 170.786C128.051 171 135.23 171.375 139.463 169.714C139.141 168.964 138.873 168.214 138.552 167.464Z" fill="#3B8B58"/>
<path d="M99.1745 145.231C110.425 157.178 123.872 165.375 138.766 168.161C138.659 167.946 138.605 167.732 138.498 167.464C136.194 162.107 135.176 156.374 132.016 151.445C130.837 149.57 129.605 147.856 127.73 146.463C125.479 144.695 122.961 145.016 120.497 143.945C115.943 142.016 113.372 136.766 109.032 134.194C104.693 131.623 99.4959 130.819 94.5671 131.837C92.692 132.212 91.0312 132.534 89.4775 132.641C92.5848 137.195 95.7457 141.534 99.1745 145.231Z" fill="#307147"/>
<path d="M254.915 70.2268C251.272 69.4767 258.611 63.3693 259.629 62.3513C262.308 59.7262 267.451 55.226 266.808 50.94C266.165 46.7076 261.665 49.815 259.094 49.1185C259.576 46.1183 263.755 43.2253 265.576 41.0288C266.969 39.3144 268.362 37.4929 268.844 35.2428C269.808 30.5282 266.755 29.6175 263.165 31.7604C262.63 31.0104 262.79 29.8853 262.897 28.9746C263.165 26.5101 265.148 18.0454 260.915 17.4025C258.719 17.0275 256.844 21.6349 256.147 23.135C255.343 24.7958 254.379 29.2424 252.825 30.2603C251.165 31.3854 251.165 28.546 249.343 28.7603C247.361 28.9746 246.932 33.0462 246.664 34.5463C246.236 37.2786 246.557 40.0644 246.825 42.7967C246.986 44.3504 247.629 46.3862 246.718 47.7791C245.7 46.9755 244.682 45.6897 243.557 44.9933C240.825 43.2789 240.289 46.2791 239.7 48.5827C238.789 52.5472 239.378 56.8332 239.432 60.8513C239.432 62.2978 240.021 66.048 239.003 67.0123C236.646 65.1908 232.842 61.4942 231.61 66.6909C230.806 70.066 231.128 74.1377 231.824 77.5129C232.253 79.7094 234.182 87.4777 236.217 92.9423C236.539 92.728 236.914 92.4601 237.235 92.2458C240.128 90.1564 243.236 88.6027 246.236 86.5669C250.307 83.7811 254.861 80.138 257.379 75.8521C258.022 74.7806 259.79 71.3518 259.04 70.1732C258.076 68.4052 256.04 70.4411 254.915 70.2268Z" fill="#3B8B58"/>
<path d="M259.094 70.0125C258.076 68.4052 256.041 70.4411 254.916 70.2268C254.755 70.1732 254.648 70.1732 254.487 70.1196C248.379 75.0485 242.647 80.513 238.093 86.9419C237.182 88.2277 236.325 89.5135 235.575 90.7993C235.789 91.4958 236.057 92.1387 236.272 92.7815C236.593 92.5673 236.968 92.2994 237.29 92.0851C240.183 89.9957 243.29 88.442 246.29 86.4062C250.362 83.6203 254.916 79.9773 257.434 75.6913C258.076 74.6199 259.844 71.1911 259.094 70.0125Z" fill="#307147"/>
<path d="M130.247 113.193C131.908 107.193 133.998 101.032 135.016 94.9245C135.819 89.9957 133.837 84.6918 131.426 80.4594C129.39 77.0307 125.158 74.6734 123.229 71.1911C120.765 66.6908 122.158 60.5834 120.658 55.7081C119.05 50.4042 115.836 46.8683 111.604 43.4932C107.853 40.5466 105.121 39.4751 102.817 35.1356C100.728 31.2247 98.5315 26.4565 94.0848 24.6886C83.7985 20.5634 91.4061 41.8324 91.8347 45.7969C92.2633 50.2971 90.4953 53.083 88.4595 56.8867C85.5129 62.4049 85.4593 67.7623 89.7989 72.7983C93.5491 77.245 97.3528 78.4772 96.4421 84.9597C95.7456 89.6206 95.0491 94.8173 96.4421 99.5319C98.1029 104.996 101.157 110.086 106.032 112.925C108.121 114.158 110.479 115.283 112.782 116.247C114.657 117.051 121.943 118.283 127.837 119.14C128.801 117.265 129.605 115.443 130.247 113.193Z" fill="#59A960"/>
<path d="M112.782 116.194C114.657 116.997 121.943 118.229 127.836 119.087C128.586 117.64 129.229 116.247 129.765 114.64C125.908 107.407 120.497 100.711 112.782 94.6566C107.639 90.585 102.228 87.1027 96.4418 84.424C96.4418 84.5847 96.3882 84.7454 96.3882 84.9061C95.6917 89.5671 94.9953 94.7638 96.3882 99.4783C98.049 104.943 101.103 110.032 105.978 112.872C108.121 114.104 110.478 115.229 112.782 116.194Z" fill="#3B8B58"/>
<path d="M272.755 94.9781C275.809 84.4775 277.202 72.6912 276.398 61.762C276.077 57.3154 276.237 52.8687 276.88 48.4756C275.434 49.9757 273.719 51.315 272.862 52.2794C269.862 55.5474 266.594 58.6547 263.648 61.9763C255.558 71.1375 247.468 80.9416 242.861 92.3529C239.807 99.8534 238.093 107.568 238.521 115.551C238.682 119.301 239.378 122.89 240.396 126.533C240.718 127.712 241.146 129.373 241.628 131.034C257.165 124.069 268.041 111.425 272.755 94.9781Z" fill="#59A960"/>
<path d="M244.254 89.0313C243.718 90.1028 243.236 91.2279 242.807 92.2994C239.754 99.7998 238.039 107.514 238.468 115.497C238.629 119.247 239.325 122.837 240.343 126.48C240.664 127.658 241.093 129.319 241.575 130.98C246.343 128.837 250.683 126.212 254.487 123.105C254.004 110.675 250.361 99.0497 244.254 89.0313Z" fill="#3B8B58"/>
<path d="M270.934 100.336C261.022 102.639 252.45 107.193 244.361 113.14C242.271 114.693 240.343 116.301 238.575 117.961C238.896 120.854 239.432 123.694 240.236 126.48C240.557 127.658 240.986 129.319 241.468 130.98C255.451 124.819 265.523 114.158 270.934 100.336Z" fill="#3B8B58"/>
<path d="M109.139 99.1033C100.353 92.1922 90.9777 86.9955 80.1021 84.5311C76.9412 83.8347 70.7801 83.9418 65.3691 83.031C76.2447 94.7102 81.3343 113.193 90.3348 125.89C101.8 142.07 117.175 153.213 135.551 156.321C133.569 133.873 128.694 114.533 109.139 99.1033Z" fill="#73C078"/>
<path d="M244.361 118.015C252.719 111.8 261.665 107.139 272.005 104.943C275.005 104.3 280.899 104.407 286.042 103.604C275.702 114.051 270.827 130.659 262.255 142.07C251.326 156.589 236.7 166.607 219.127 169.339C221.11 149.195 225.717 131.837 244.361 118.015Z" fill="#73C078"/>
<path d="M219.234 169.339C229.467 167.732 238.682 163.66 246.772 157.66C251.7 148.07 254.54 137.141 254.54 125.569C254.54 121.015 254.111 116.515 253.254 112.175C250.2 113.89 247.307 115.872 244.414 117.961C225.717 131.837 221.109 149.195 219.234 169.339Z" fill="#59A960"/>
<path d="M146.427 158.624C142.087 156.535 137.587 152.892 134.533 150.32C123.765 141.213 115.139 129.855 106.782 118.819C105.764 117.479 104.746 116.086 103.674 114.747C99.2813 108.961 95.5311 104.729 91.5666 101.032C91.138 100.657 90.7094 100.228 90.2808 99.7998C86.7985 96.4781 82.5126 92.3529 78.4409 90.585L78.6552 90.1028C82.7804 91.9243 87.1735 96.0496 90.6559 99.3712C91.0845 99.7998 91.513 100.175 91.9416 100.603C95.9061 104.354 99.6563 108.586 104.103 114.372C105.121 115.711 106.192 117.104 107.21 118.444C115.568 129.426 124.14 140.731 134.908 149.838C137.908 152.356 142.409 155.999 146.695 158.035L146.427 158.624Z" fill="#59A960"/>
<path d="M126.765 114.426C126.176 109.604 125.158 105.586 123.444 101.889C120.551 95.4067 117.229 90.3171 113.05 85.924C109.407 82.0667 106.407 78.4236 106.353 72.5305C106.353 71.2447 106.407 69.9053 106.407 68.6731C106.514 64.655 106.568 60.7977 105.764 56.8868C104.264 50.0293 100.782 44.4575 97.085 38.5644L97.2993 38.4036L97.5136 38.2965L97.2993 38.4036L97.5136 38.2965C101.264 44.2432 104.746 49.8685 106.3 56.7796C107.157 60.7441 107.05 64.7622 106.996 68.6731C106.943 69.9589 106.943 71.2447 106.943 72.5305C106.943 78.2093 109.889 81.7988 113.479 85.549C117.711 89.9957 121.033 95.0852 123.979 101.621C125.694 105.372 126.712 109.443 127.301 114.318L126.765 114.426Z" fill="#3B8B58"/>
<path d="M233.753 108.372L233.271 108.265C233.699 106.175 233.967 104.032 234.181 102.05C234.503 99.2105 234.824 96.2639 235.735 93.4244C236.217 91.8708 236.646 90.4779 237.181 89.0313C237.824 87.317 238.36 85.549 238.949 83.8346C239.807 81.2095 240.717 78.4236 241.789 75.7985C242.753 73.3876 243.985 70.9232 245.164 68.5124C246.396 65.9944 247.736 63.3693 248.7 60.7977C249.611 58.4404 250.307 55.976 251.004 53.6187C251.914 50.4579 252.825 47.2434 254.272 44.1897C255.932 40.6538 256.682 37.2786 257.486 33.6891C257.808 32.189 258.183 30.6354 258.558 29.0817L259.04 29.1889C258.611 30.7425 258.29 32.2962 257.968 33.7427C257.165 37.3322 256.415 40.7609 254.7 44.3504C253.254 47.3505 252.343 50.565 251.432 53.7259C250.736 56.1367 250.039 58.6011 249.129 60.9584C248.111 63.53 246.825 66.1551 245.539 68.7267C244.36 71.084 243.128 73.5484 242.164 75.9592C241.092 78.6379 240.182 81.3702 239.324 83.9954C238.735 85.7097 238.199 87.4777 237.556 89.2456C237.021 90.7457 236.592 92.0851 236.11 93.6387C235.253 96.4782 234.931 99.264 234.61 102.211C234.449 104.139 234.181 106.282 233.753 108.372Z" fill="#307147"/>
<path d="M234.128 137.516L233.807 137.141C235.307 135.909 236.217 134.034 237.075 132.266C237.664 130.98 238.307 129.694 239.164 128.569C239.593 127.98 240.021 127.498 240.45 127.016C241.361 125.89 242.271 124.873 243.075 123.319C244.789 119.997 245.807 116.515 246.611 113.247C246.879 112.175 247.147 111.05 247.415 109.925C248.486 105.586 249.557 101.139 251.272 97.2282L251.968 95.621C254.326 90.21 256.736 84.6382 260.379 80.0309C264.183 75.1556 266.326 71.3518 268.684 66.3694L269.112 66.5837C266.701 71.6197 264.612 75.477 260.755 80.3523C257.165 84.9061 254.754 90.4778 252.397 95.8353L251.7 97.4425C249.986 101.3 248.915 105.747 247.897 110.032C247.629 111.158 247.361 112.283 247.093 113.354C246.236 116.676 245.218 120.212 243.504 123.533C242.7 125.14 241.789 126.212 240.825 127.337C240.396 127.819 239.968 128.355 239.539 128.891C238.735 129.962 238.093 131.248 237.503 132.48C236.646 134.302 235.735 136.23 234.128 137.516Z" fill="#3B8B58"/>
<path d="M211.466 179.518L211.198 179.09C212.163 178.5 212.591 177.804 213.073 177C213.288 176.625 213.556 176.25 213.877 175.822C216.502 172.393 219.02 168.911 221.484 165.535C225.181 160.446 228.985 155.196 233.164 150.16C235.414 147.427 238.2 145.231 240.878 143.088C243.504 140.998 246.236 138.802 248.432 136.123L249.611 134.677C254.593 128.569 259.362 122.783 264.773 117.158L265.148 117.479C259.737 123.051 255.022 128.837 250.04 134.944L248.861 136.391C246.664 139.07 243.879 141.32 241.253 143.409C238.575 145.552 235.842 147.749 233.646 150.427C229.467 155.463 225.663 160.714 221.967 165.75C219.502 169.125 216.984 172.607 214.359 176.036C214.038 176.411 213.823 176.786 213.609 177.161C212.966 178.072 212.484 178.875 211.466 179.518Z" fill="#59A960"/>
<path d="M152.213 174.804C151.517 174.107 150.82 173.464 150.178 172.822C144.82 167.625 140.909 163.821 132.98 162.321C132.016 162.16 131.052 162 130.034 161.839C127.891 161.517 125.641 161.196 123.712 160.499C121.087 159.589 119.158 157.714 117.229 155.892C115.461 154.178 113.801 152.57 111.604 151.66C109.997 150.963 108.55 150.588 107.157 150.213C104.157 149.41 101.586 148.713 98.6927 145.445C98.1569 144.802 97.5676 144.052 96.9247 143.195C94.2996 139.713 91.0316 135.373 86.5849 137.248L86.3706 136.766C91.1923 134.784 94.5675 139.284 97.2998 142.873C97.9427 143.677 98.4784 144.481 99.0677 145.07C101.854 148.231 104.372 148.874 107.265 149.677C108.658 150.052 110.158 150.427 111.818 151.178C114.069 152.142 115.89 153.856 117.604 155.517C119.426 157.285 121.355 159.107 123.873 160.017C125.801 160.714 127.998 161.035 130.141 161.357C131.105 161.517 132.123 161.678 133.087 161.839C141.177 163.392 145.142 167.196 150.553 172.5C151.196 173.143 151.892 173.786 152.588 174.482L152.213 174.804Z" fill="#307147"/>
<path d="M247.744 122.573C252.666 84.1259 225.49 48.9681 187.043 44.0455C148.597 39.1229 113.439 66.2996 108.516 104.746C103.594 143.193 130.77 178.351 169.217 183.273C207.664 188.196 242.821 161.019 247.744 122.573Z" fill="#3FBDF0"/>
<path d="M175.036 53.833C174.5 55.0117 172.839 54.5831 172.357 55.5474C171.607 57.1011 172.41 58.494 172.732 59.9405C173.321 63.2085 174.285 64.5479 170.964 66.4766C167.803 68.3517 166.892 67.0123 167.053 71.459C167.107 73.0126 168.499 73.0662 167.642 74.727C167.374 75.2627 165.124 75.477 164.535 76.3342C162.767 78.8522 165.499 82.1738 164.803 84.9597C163.999 88.2277 161.588 87.7456 159.445 89.4064C155.267 92.6744 156.552 100.711 151.624 103.068C149.695 104.032 144.98 102.961 143.641 101.407C141.552 99.0497 143.052 96.3174 144.07 94.0673C145.409 91.0136 145.73 90.3707 144.123 87.4241C143.534 86.3526 142.623 86.0312 142.194 84.5847C141.766 83.0846 142.623 81.3702 141.927 79.8701C141.391 78.6915 139.837 78.5843 139.355 77.62C138.659 76.2271 139.194 74.6734 138.551 73.3341C138.23 72.6912 137.212 70.8696 136.408 70.7089C133.998 70.2803 135.444 72.1019 134.587 73.3341C131.051 78.5844 127.354 72.7983 122.211 74.6734C120.979 75.1556 119.747 75.9056 118.515 76.6557C129.337 59.244 147.605 46.9219 168.874 44.0825C171.553 47.1362 177.393 48.797 175.036 53.833Z" fill="#29DABA"/>
<path d="M192.5 130.391C189.554 122.622 185 129.158 180.232 125.248C178.892 124.123 179.053 122.033 177.071 121.39C174.928 120.694 172.142 122.569 169.624 122.301C163.302 121.658 160.516 124.712 158.695 131.194C157.784 134.516 157.356 136.016 160.088 138.32C161.159 139.23 162.874 139.445 163.784 140.516C164.91 141.748 164.642 143.463 165.499 144.641C166.892 146.517 169.731 146.784 171.392 148.874C172.142 149.785 172.089 151.338 172.999 152.356C174.017 153.428 175.624 153.267 176.803 154.446C179.91 157.499 180.393 161.839 180.285 165.75C180.071 171 183.5 172.714 188.643 172.232C189.822 168.161 191.59 170.143 194.536 168.643C197.001 167.411 198.34 163.875 198.876 161.357C199.519 158.249 199.144 157.874 201.447 155.088C203.269 152.945 204.876 150.803 205.09 147.909C205.412 143.409 203.59 144.052 201.072 142.123C199.304 140.784 198.018 138.748 196.358 137.355C194.965 136.177 194.643 136.552 193.733 134.837C193.143 133.552 192.982 131.784 192.5 130.391Z" fill="#29DABA"/>
<path d="M248.272 113.676C248.272 123.908 246.075 133.605 242.164 142.338C241.2 142.338 240.343 142.338 239.753 142.338C236.753 142.445 233.753 141.32 232.092 138.748C231.181 137.355 231.878 135.748 230.271 134.462C229.199 133.605 227.538 134.087 226.306 133.659C221.967 132.212 224.056 130.712 223.413 127.498C222.877 124.765 219.181 123.212 216.502 124.122C214.038 124.98 213.502 128.355 210.663 128.248C207.394 128.087 206.966 124.283 206.323 122.033C205.144 118.176 205.519 117.694 201.876 119.033C201.501 119.194 198.823 120.426 198.715 120.587C197.805 121.712 198.769 123.48 197.965 124.605C196.251 127.123 193.358 123.533 192.608 121.283C192.126 119.944 192.608 118.336 192.179 116.944C191.804 115.765 190.411 115.283 190.09 114.051C188.751 109.443 192.287 110.354 194.269 108.157C197.698 104.354 192.929 104.461 190.358 105.961C188.965 106.764 188.697 107.836 187.09 108.211C185.75 108.532 184.197 107.675 182.697 107.836C181.25 107.997 180.714 109.015 179.054 108.961C176.911 108.907 177.446 108.05 175.893 107.407C172.41 106.068 170.857 107.997 167.482 107.461C166.732 104.514 170.053 102.371 172.25 101.407C173.696 100.764 175.143 100.871 176.429 100.121C177.821 99.3176 177.982 97.9782 179.804 97.3889C182.75 96.4246 185.804 96.2639 188.536 94.7638C190.679 93.5851 192.608 90.1564 188.215 89.6206C189.018 84.5311 182.75 88.3349 180.875 88.2277C175.25 87.9599 179.697 83.8882 182.322 82.281C183.768 81.3702 185.375 80.6737 186.768 79.9237C188.59 78.9594 189.072 78.3165 190.572 77.1914C195.555 73.4948 193.572 78.6379 197.858 78.7986C197.269 84.1561 200.751 82.4953 203.376 80.1916C204.019 79.6023 204.394 78.1022 205.252 77.7272C206.162 77.3521 206.698 78.3701 207.073 78.3165C208.52 77.995 210.18 77.7272 211.68 77.62C211.466 75.8521 210.073 72.7983 211.091 71.1911C211.52 70.4946 213.556 70.7625 214.306 70.066C215.645 68.7267 215.431 68.4588 215.752 66.798C216.341 63.905 215.27 63.2085 217.574 61.0656C218.377 60.3155 219.877 59.244 221.324 58.494C237.771 71.2447 248.272 91.2279 248.272 113.676Z" fill="#29DABA"/>
<path d="M152.106 156.535C152.481 162.321 149.159 159.16 145.516 160.66C145.57 162.16 145.462 163.821 145.034 165.268C141.123 167.196 141.552 170.411 141.98 173.839C137.266 171 132.872 167.571 128.962 163.714C128.908 163.017 128.801 162.321 128.747 161.678C128.694 161.089 129.765 160.928 129.444 159.964C129.337 159.642 128.212 159.107 127.944 158.517C127.301 156.91 126.711 156.696 126.551 154.821C126.39 151.928 128.801 149.517 129.122 146.838C129.283 145.445 128.265 144.32 128.372 142.82C128.426 141.534 129.229 140.57 129.39 139.23C127.086 138.373 125.319 137.891 123.711 136.337C121.943 137.998 117.872 135.534 115.997 135.212C113.157 134.677 110.8 134.355 110.157 130.551C110.103 130.498 109.996 130.498 109.943 130.444C108.657 125.087 107.96 119.515 107.96 113.729C107.96 106.282 109.139 99.1033 111.282 92.3529C114.282 92.728 113.371 92.2458 114.925 90.4778C115.997 89.2456 122.05 81.4774 123.015 87.5313C125.479 87.4241 130.247 87.7991 129.122 91.6029C128.426 93.9066 124.086 93.6923 122.479 96.3174C120.658 99.3176 122.211 100.389 124.408 102.478C127.676 105.639 127.622 105.693 129.069 101.836C129.658 100.228 127.997 99.9605 130.247 99.2104C131.747 98.6747 132.765 99.4247 133.783 100.389C135.176 101.675 134.587 103.014 136.462 104.193C137.641 104.996 139.141 104.621 140.426 104.996C142.623 105.639 147.873 108.747 145.784 111.854C144.07 114.426 139.248 110.729 137.855 112.283C137.748 112.336 137.641 112.336 137.587 112.336C137.801 115.336 141.819 115.497 141.498 118.39C138.926 118.497 134.962 117.533 133.248 119.515C131.855 121.176 133.14 126.801 132.015 127.819C130.194 129.426 126.39 127.283 124.729 126.533C123.497 125.998 122.693 124.926 121.193 124.98C120.925 124.98 117.872 126.587 117.818 126.694C116.854 129.158 120.55 132.051 122.747 132.534C125.158 133.069 126.926 130.873 129.872 132.319C132.605 133.659 132.176 136.016 135.766 136.605C137.855 136.98 142.516 136.016 144.123 137.409C145.784 138.855 144.659 140.516 145.837 142.177C146.802 143.463 148.677 143.516 149.963 143.891C153.07 144.802 155.963 145.552 156.07 149.677C150.606 150.535 151.838 152.195 152.106 156.535Z" fill="#29DABA"/>
<path opacity="0.5" d="M228.824 65.1372C231.878 73.0126 233.539 81.5845 233.539 90.5314C233.539 129.266 202.144 160.714 163.357 160.714C143.427 160.714 125.426 152.41 112.675 139.07C122.854 165.268 148.302 183.858 178.09 183.858C216.824 183.858 248.272 152.463 248.272 113.676C248.272 94.8709 240.879 77.7807 228.824 65.1372Z" fill="#00BBFF"/>
<path d="M261.719 88.3349C258.987 73.3876 248.325 80.138 248.325 80.138C233.432 66.1015 230.86 84.2632 230.86 84.2632C224.003 81.6916 222.128 88.3884 222.128 88.3884C212.645 86.0847 209.752 91.0671 208.948 95.5674H272.219C270.452 84.6918 261.719 88.3349 261.719 88.3349Z" fill="white"/>
<path d="M123.015 99.0497C121.301 89.6742 114.604 93.9066 114.604 93.9066C105.228 85.0668 103.621 96.4782 103.621 96.4782C99.3351 94.8709 98.1028 99.0497 98.1028 99.0497C92.1561 97.6032 90.3346 100.711 89.7988 103.604H129.551C128.479 96.746 123.015 99.0497 123.015 99.0497Z" fill="white"/>
<path d="M146.266 58.9761C144.07 47.0291 135.551 52.3865 135.551 52.3865C123.604 41.1359 121.568 55.6545 121.568 55.6545C116.104 53.6187 114.55 58.9226 114.55 58.9226C106.996 57.101 104.639 61.0655 103.996 64.7086H154.624C153.284 56.0296 146.266 58.9761 146.266 58.9761Z" fill="white"/>
<path opacity="0.3" d="M152.481 93.1565C142.837 105.479 130.033 111.586 123.872 106.764C117.711 101.943 120.497 88.067 130.14 75.6913C139.784 63.3692 152.588 57.2618 158.749 62.0835C164.91 66.9051 162.124 80.7809 152.481 93.1565Z" fill="white"/>
<path d="M290.114 190.287C290.114 192.323 281.863 193.93 271.631 193.93C261.451 193.93 253.147 192.323 253.147 190.287C253.147 188.251 261.398 186.644 271.631 186.644C281.863 186.644 290.114 188.304 290.114 190.287Z" fill="#BBE7F2"/>
<path d="M258.987 172.714L263.166 163.285L257.755 158.946L253.309 171.161C253.309 171.161 252.237 173.464 256.469 176.465L264.827 184.608L267.452 183.376C267.452 183.322 261.773 175.447 258.987 172.714Z" fill="#0A3C5F"/>
<path d="M264.827 184.554L265.523 185.411L259.201 189.001L259.041 189.805L270.13 188.251L268.523 184.554L267.452 183.322L264.827 184.554Z" fill="#FDB18D"/>
<path d="M265.095 184.876L265.523 185.411L268.523 184.554L267.827 183.751L265.095 184.876Z" fill="white"/>
<path d="M259.201 189.001L259.041 189.805L270.13 188.251L268.523 184.554L265.523 185.411L259.201 189.001Z" fill="#0D134F"/>
<path d="M270.13 188.251L269.702 187.34L259.201 189.001L259.041 189.805L270.13 188.251Z" fill="#62C1C5"/>
<path d="M257.594 159.642L260.808 168.482L263.165 163.232L257.915 158.999L257.594 159.642Z" fill="#0D134F"/>
<path d="M231.664 129.908C231.664 129.908 231.396 129.266 231.664 127.551C231.664 127.551 231.235 123.908 232.2 125.14V124.39C232.2 124.39 231.396 123.051 231.878 122.355L232.2 122.676C232.2 122.676 231.985 122.14 232.2 121.658C232.2 121.658 232.735 122.515 232.789 122.783L233.003 124.176L233.11 125.783C233.11 125.783 233.325 128.73 233.539 129.158C233.539 129.158 239.111 132.319 240.664 132.694L240.986 135.373L231.664 129.908Z" fill="#F09474"/>
<path d="M240.933 135.373L240.611 132.694C239.004 132.319 233.486 129.158 233.486 129.158L232.629 130.498L240.933 135.373Z" fill="white"/>
<path d="M233.379 130.926L241.094 135.48L240.933 132.855C239.647 132.534 235.522 130.337 234.022 129.48L233.379 130.926Z" fill="#F8A510"/>
<path d="M246.343 137.73C246.343 137.73 248.165 137.784 249.504 138.695L251.004 136.98L248.968 134.891L246.45 135.641L246.343 137.73Z" fill="#F09474"/>
<path d="M250.147 136.123L249.665 135.48L247.522 137.73L248.004 138.427L249.986 137.248L250.147 136.123Z" fill="white"/>
<path d="M249.504 133.444C249.504 133.444 248.594 127.069 243.343 128.998C243.343 128.998 238.361 130.391 242.057 137.998L242.968 137.57C242.968 137.57 244.2 139.552 245.272 139.016L249.183 135.212L249.504 133.444Z" fill="#FDB18D"/>
<path d="M247.844 132.212L245.165 130.016L241.093 131.248C240.665 132.426 240.558 134.087 241.522 136.605L247.844 132.212Z" fill="#F09474"/>
<path d="M249.504 133.444C249.504 133.444 248.594 127.069 243.343 128.998C243.343 128.998 239.915 129.962 240.825 134.569C240.825 134.569 241.415 134.944 243.183 134.194C243.183 134.194 244.254 134.409 244.897 135.748L245.54 135.373C245.54 135.373 244.736 133.444 245.54 132.801L246.611 133.016C246.611 133.016 247.308 134.677 248.54 134.73L249.344 134.516L249.504 133.444Z" fill="#0A3C5F"/>
<path d="M244.951 135.748L245.594 135.373C245.594 135.373 244.79 133.444 245.594 132.801L246.665 133.016C246.665 133.016 247.362 134.677 248.594 134.73L249.397 134.516L249.558 133.444C249.558 133.444 249.13 130.337 247.04 129.105C245.379 132.587 242.111 133.498 240.772 133.766C240.772 134.034 240.826 134.302 240.879 134.569C240.879 134.569 241.468 134.944 243.236 134.194C243.236 134.194 244.254 134.409 244.951 135.748Z" fill="#0D134F"/>
<path d="M246.719 133.23C246.986 133.927 246.879 134.677 246.451 134.891C246.022 135.052 245.379 134.623 245.111 133.927C244.844 133.23 244.951 132.48 245.379 132.266C245.861 132.051 246.451 132.534 246.719 133.23Z" fill="#FDB18D"/>
<path d="M245.808 141.373L268.362 176.25L280.845 185.84L283.577 184.179L273.238 173.839L264.666 153.803L253.254 137.891L250.147 136.123L245.808 141.373Z" fill="#0A3C5F"/>
<path d="M250.147 136.123L245.754 141.373L257.594 159.642C262.737 157.874 264.666 153.749 264.666 153.749L253.201 137.837L250.147 136.123Z" fill="#FDD247"/>
<path d="M249.665 142.284C249.344 140.73 248.433 139.873 247.415 139.391L245.754 141.373L246.719 142.873C248.54 142.873 249.665 142.284 249.665 142.284Z" fill="#F8A510"/>
<path d="M230.004 128.783C230.004 128.783 238.897 132.319 239.647 134.248C239.647 134.248 245.487 136.766 248.755 136.766C248.755 136.766 252.291 137.141 251.112 141.266C251.112 141.266 250.201 143.945 244.79 140.838L237.397 136.873C237.397 136.873 230.218 131.676 228.504 129.48C228.504 129.48 227.218 128.355 227.968 125.14C227.968 125.14 227.968 121.979 228.504 122.355C228.504 122.355 228.236 120.854 228.879 120.854C228.879 120.854 229.575 122.194 229.682 122.676L229.736 123.855C229.736 123.855 230.111 124.926 230.111 125.569C230.164 125.623 230.218 127.766 230.004 128.783Z" fill="#FDB18D"/>
<path d="M251.058 141.266C252.237 137.141 248.701 136.766 248.701 136.766C245.486 136.766 239.593 134.248 239.593 134.248C238.897 132.266 229.95 128.783 229.95 128.783L228.985 130.123C231.289 132.534 237.343 136.927 237.343 136.927L244.736 140.891C250.201 143.999 251.058 141.266 251.058 141.266Z" fill="white"/>
<path d="M229.628 130.659C232.254 133.123 237.397 136.873 237.397 136.873L244.79 140.838C250.201 143.999 251.112 141.266 251.112 141.266C252.29 137.141 248.754 136.766 248.754 136.766C245.54 136.766 239.647 134.248 239.647 134.248C239.057 132.587 232.521 129.801 230.539 128.998L229.628 130.659Z" fill="#FDD247"/>
<path d="M280.845 185.84L281.595 186.537L275.381 189.912L275.273 190.608L285.935 189.912L286.47 187.072L283.577 184.179L280.845 185.84Z" fill="#FDB18D"/>
<path d="M281.113 186.108L281.595 186.537L285.238 185.84L283.899 184.447L281.113 186.108Z" fill="white"/>
<path d="M285.238 185.84L281.595 186.537L275.381 189.912L275.273 190.608L285.935 189.912L286.47 187.072L285.238 185.84Z" fill="#0D134F"/>
<path d="M285.935 189.912L286.149 189.001L275.381 189.912L275.273 190.608L285.935 189.912Z" fill="#62C1C5"/>
<path d="M191.054 208.02C191.054 210.056 178.143 211.663 162.285 211.663C146.373 211.663 133.516 210.056 133.516 208.02C133.516 205.984 146.427 204.377 162.285 204.377C178.143 204.377 191.054 206.038 191.054 208.02Z" fill="#BBE7F2"/>
<path d="M174.714 189.59H147.016V191.037H174.714V189.59Z" fill="#F8A510"/>
<path d="M174.232 189.59H172.035L172.732 191.037H174.714V190.555L174.232 189.59Z" fill="#0D134F"/>
<path d="M162.499 162.75H148.837V164.196H162.499V162.75Z" fill="#0D134F"/>
<path d="M157.838 151.981L157.141 154.66L143.319 208.02H141.229L155.802 151.82L155.909 151.499C156.07 150.963 156.605 150.642 157.141 150.802C157.409 150.856 157.623 151.07 157.784 151.285C157.784 151.338 157.838 151.392 157.838 151.445C157.891 151.606 157.891 151.82 157.838 151.981Z" fill="#FDD247"/>
<path d="M156.767 151.445C156.767 151.392 156.713 151.338 156.713 151.285L156.499 150.856C156.231 150.963 155.963 151.231 155.909 151.553L155.802 151.874L155.427 153.267L156.124 154.713L156.767 156.106L157.142 154.713L157.57 153.106L156.767 151.445Z" fill="#F8A510"/>
<path d="M169.303 167.143H160.463V168.107H169.303V167.143Z" fill="#0D134F"/>
<path d="M172.196 173.518H163.356V174.482H172.196V173.518Z" fill="#0D134F"/>
<path d="M175.142 179.947H166.302V180.911H175.142V179.947Z" fill="#0D134F"/>
<path d="M178.035 186.322H169.195V187.287H178.035V186.322Z" fill="#0D134F"/>
<path d="M180.928 192.698H172.088V193.662H180.928V192.698Z" fill="#0D134F"/>
<path d="M183.875 199.126H175.035V200.091H183.875V199.126Z" fill="#0D134F"/>
<path d="M170.803 115.926C170.91 115.39 170.374 113.89 169.624 114.211C169.41 114.318 169.356 114.479 169.356 114.747C169.356 115.176 169.624 115.872 169.946 116.14C170.267 116.408 170.696 116.408 170.803 115.926Z" fill="#F09474"/>
<path d="M175.785 115.926C175.678 115.39 176.214 113.89 176.964 114.211C177.178 114.318 177.232 114.479 177.232 114.747C177.232 115.176 176.964 115.872 176.642 116.14C176.267 116.408 175.839 116.408 175.785 115.926Z" fill="#F09474"/>
<path d="M177.232 112.818C177.232 110.675 175.464 108.907 173.321 108.907C171.178 108.907 169.41 110.675 169.41 112.818C169.41 113.568 169.624 114.265 169.999 114.854C169.999 114.854 170.964 116.408 171.178 118.765H175.143C175.143 118.765 175.946 116.247 176.643 114.854C177.018 114.265 177.232 113.568 177.232 112.818Z" fill="#FDB18D"/>
<path d="M191.054 120.694C191.054 120.694 191.375 119.194 191.536 118.765C191.536 118.765 192.125 117.801 193.036 117.319L193.411 118.711C193.465 118.658 192.179 120.801 191.054 120.694Z" fill="#FDB18D"/>
<path d="M193.304 122.569H192.822V113.354L201.447 108.157V105.747H193.036V105.264H201.983V108.425L193.304 113.622V122.569Z" fill="#FDD247"/>
<path d="M193.036 122.569C192.608 122.569 192.286 122.247 192.286 121.819V115.979C192.286 115.551 192.608 115.229 193.036 115.229C193.465 115.229 193.786 115.551 193.786 115.979V121.819C193.786 122.247 193.465 122.569 193.036 122.569Z" fill="#F8A510"/>
<path d="M161.052 128.891C161.052 128.891 162.07 131.516 165.767 132.105C165.713 132.105 165.392 126.962 161.052 128.891Z" fill="#0A3C5F"/>
<path d="M179.106 139.552C179.106 139.552 177.499 171.75 176.963 177.429H173.695L170.267 139.016C170.267 139.016 175.088 135.373 179.106 139.552Z" fill="#0A3C5F"/>
<path d="M170.803 144.963L171.338 150.963C174.66 148.177 176.535 144.534 176.535 144.534L170.803 144.963Z" fill="#0D134F"/>
<path d="M166.785 119.087L170.428 117.854C170.428 117.854 174.392 117.158 176.267 117.854L181.25 120.265C181.25 120.265 181.518 124.444 182.321 127.176L179.053 139.552L167.91 138.909L166.088 125.998L166.785 119.087Z" fill="#FDD247"/>
<path d="M168.606 124.39L166.142 125.355L166.088 125.944L167.16 133.391C169.249 129.426 168.606 124.39 168.606 124.39Z" fill="#F8A510"/>
<path d="M179.107 139.552C179.107 139.552 180.125 146.784 164.588 149.249L167.374 164.625H164.106L157.302 146.249L167.91 141.052L167.964 138.855L179.107 139.552Z" fill="#0A3C5F"/>
<path d="M164.052 164.625L158.48 166.232V167.143H167.535L167.374 164.625H164.052Z" fill="#0D134F"/>
<path d="M167.535 167.143L167.481 166.232H158.48V167.143H167.535Z" fill="white"/>
<path d="M173.696 177.429L168.07 179.036V179.947H177.124L176.964 177.429H173.696Z" fill="#0D134F"/>
<path d="M177.124 179.947L177.071 179.036H168.07V179.947H177.124Z" fill="white"/>
<path d="M166.785 119.086C166.785 119.086 168.874 121.229 167.535 126.48L163.892 134.569L156.766 145.124H150.337C150.337 145.124 152.48 142.606 155.856 142.873C155.856 142.873 164.16 120.962 166.785 119.086Z" fill="#FDB18D"/>
<path d="M161.052 128.891C161.052 128.891 164.535 128.569 165.767 132.105C165.767 132.105 171.66 122.73 166.838 119.086C166.785 119.086 164.267 119.783 161.052 128.891Z" fill="#FDD247"/>
<path d="M185.054 122.355L187.947 122.837L191.054 120.694C191.054 120.694 192.126 118.176 193.787 117.051C193.787 117.051 195.233 117.854 194.376 120.747L192.287 122.033L188.804 126.212C188.804 126.212 184.358 126.373 184.411 126.48C184.465 126.587 185.054 122.355 185.054 122.355Z" fill="#FDB18D"/>
<path d="M181.25 120.212L185.804 122.194C185.804 122.194 187.143 125.355 185.536 127.069L182.322 127.123C182.375 127.123 179.107 123.587 181.25 120.212Z" fill="#FDD247"/>
<path d="M180.928 132.534C177.017 136.391 170.213 137.302 167.749 137.462L167.963 138.855L179.107 139.498L180.928 132.534Z" fill="#F8A510"/>
<path d="M186.286 125.623C184.518 125.623 182.804 124.98 182.804 124.98C182.643 125.676 182.375 127.123 182.375 127.123L185.589 127.069C186.018 126.64 186.232 126.158 186.286 125.623Z" fill="#F8A510"/>
<path d="M199.733 106.443C199.733 107.032 199.251 107.461 198.715 107.461H187.411C186.822 107.461 186.393 106.979 186.393 106.443V104.568C186.393 103.979 186.875 103.55 187.036 103.443H198.34C199.304 103.55 199.733 104.032 199.733 104.568V106.443Z" fill="#E9F9F9"/>
<path d="M198.715 106.068H187.411C186.822 106.068 186.393 105.586 186.393 105.05V106.443C186.393 107.032 186.875 107.461 187.411 107.461H198.715C199.304 107.461 199.733 106.979 199.733 106.443V105.05C199.733 105.586 199.251 106.068 198.715 106.068Z" fill="#ADCCCC"/>
<path d="M176.643 114.854C177.018 114.265 177.232 113.568 177.232 112.818C177.232 110.675 175.464 108.907 173.321 108.907C171.178 108.907 169.41 110.675 169.41 112.818C169.41 113.568 169.624 114.265 169.999 114.854C169.999 114.854 170.107 115.015 170.267 115.39C170.803 115.818 171.446 116.729 171.446 116.729H175.196C175.571 116.408 176.428 115.443 176.428 115.443C176.428 115.176 176.536 115.015 176.643 114.854Z" fill="#0A3C5F"/>
<path d="M176.375 110.354C176.214 110.836 176.161 111.425 176.053 111.747C175.786 112.283 175.357 112.818 174.875 113.14C173.91 113.783 172.732 113.997 171.607 113.89C170.964 113.836 170.053 113.515 169.41 112.979C169.464 113.676 169.624 114.318 169.999 114.854C169.999 114.854 170.107 115.015 170.267 115.39C170.803 115.818 171.446 116.729 171.446 116.729H175.196C175.571 116.408 176.428 115.443 176.428 115.443C176.536 115.229 176.589 115.068 176.696 114.854C177.071 114.265 177.286 113.568 177.286 112.818C177.232 111.854 176.911 110.997 176.375 110.354Z" fill="#0D134F"/>
<path d="M184.197 208.02H182L157.142 154.66L155.802 151.82L154.356 148.713H149.32C148.784 148.713 148.302 148.284 148.302 147.695C148.302 147.159 148.73 146.677 149.32 146.677H154.999C155.374 146.677 155.749 146.892 155.909 147.267L157.731 151.231C157.731 151.285 157.784 151.338 157.784 151.392L184.197 208.02Z" fill="#FDD247"/>
<path d="M148.623 145.124L146.534 147.159V148.767H156.552L154.838 145.124H148.623Z" fill="#0A3C5F"/>
<path d="M156.552 148.767L155.856 147.159H146.534V148.767H156.552Z" fill="#0D134F"/>
<path d="M156.552 148.767H154.355L155.106 150.32H157.302L156.552 148.767Z" fill="#F8A510"/>
<path d="M144.926 207.055H139.837V208.02H144.926V207.055Z" fill="#0A3C5F"/>
<path d="M185.428 207.055H180.339V208.02H185.428V207.055Z" fill="#0A3C5F"/>
<path d="M183.715 207.055L182.59 204.645H180.393L181.518 207.055H183.715Z" fill="#62C1C5"/>
<path d="M143.534 207.055L144.177 204.645H142.087L141.498 207.055H143.534Z" fill="#62C1C5"/>
<path d="M126.819 189.108C126.819 191.144 120.176 192.751 111.979 192.751C103.782 192.751 97.1387 191.144 97.1387 189.108C97.1387 187.072 103.782 185.465 111.979 185.465C120.176 185.465 126.819 187.126 126.819 189.108Z" fill="#BBE7F2"/>
<path d="M134.052 139.713H129.337V142.82H134.052V139.713Z" fill="#0D134F"/>
<path d="M129.926 149.195C129.926 149.195 130.087 147.642 130.194 147.213C130.194 147.213 130.623 146.195 131.533 145.552L132.069 146.892C132.069 146.945 131.051 149.195 129.926 149.195Z" fill="#FDB18D"/>
<path d="M131.748 149.677C131.427 149.677 131.159 149.41 131.159 149.088V144.534C131.159 144.213 131.427 143.945 131.748 143.945C132.069 143.945 132.337 144.213 132.337 144.534V149.088C132.337 149.41 132.069 149.677 131.748 149.677Z" fill="#F8A510"/>
<path d="M132.284 144.481C132.284 144.159 132.016 143.891 131.695 143.891C131.373 143.891 131.105 144.159 131.105 144.481V145.177H132.284V144.481Z" fill="#BA7C0C"/>
<path d="M132.284 145.231C130.73 146.57 129.927 149.249 129.927 149.249L129.069 149.999C130.141 149.999 130.569 150.963 130.462 151.767L131.319 150.481L133.248 148.927C133.784 145.927 132.284 145.231 132.284 145.231Z" fill="#FDB18D"/>
<path d="M129.284 149.677L129.766 149.088C129.766 149.088 130.677 149.195 131.534 150.695L130.837 151.338L129.284 149.677Z" fill="white"/>
<path d="M98.0498 151.928C98.0498 151.928 100.3 159.374 105.282 167.571L106.89 186.322L115.408 186.054V184.929L109.086 183.536L110.158 166.071L103.514 152.999L98.0498 151.928Z" fill="#2466B4"/>
<path d="M115.461 184.929L109.14 183.536H106.675L106.943 186.322L115.461 186.054V184.929Z" fill="#0D134F"/>
<path d="M115.462 185.465L106.89 185.733L106.943 186.322L115.462 186.054V185.465Z" fill="#FDD247"/>
<path d="M104.157 158.356C104.157 158.356 106.675 164.089 110.05 169.286L110.265 166.071L108.175 162L104.157 158.356Z" fill="#0D134F"/>
<path d="M121.355 139.552C121.355 139.552 119.534 139.605 118.141 140.516L116.587 138.802L118.623 136.712L121.194 137.462L121.355 139.552Z" fill="#F09474"/>
<path d="M118.088 135.159C118.088 135.159 119.052 128.676 124.356 130.605C124.356 130.605 129.446 131.998 125.642 139.766L124.678 139.284C124.678 139.284 123.392 141.32 122.32 140.731L118.302 136.873L118.088 135.159Z" fill="#FDB18D"/>
<path d="M119.854 133.927L122.587 131.676L126.766 132.962C127.248 134.141 127.301 135.909 126.283 138.427L119.854 133.927Z" fill="#F09474"/>
<path d="M118.088 135.159C118.088 135.159 119.052 128.676 124.356 130.605C124.356 130.605 127.838 131.569 126.928 136.284C126.928 136.284 126.338 136.659 124.517 135.909C124.517 135.909 123.445 136.123 122.749 137.516L122.106 137.141C122.106 137.141 122.91 135.159 122.106 134.516L121.034 134.73C121.034 134.73 120.338 136.391 119.106 136.445L118.302 136.23L118.088 135.159Z" fill="#0A3C5F"/>
<path d="M122.266 134.677C122.801 135.427 122.105 137.141 122.105 137.141L122.748 137.516C123.444 136.123 124.516 135.909 124.516 135.909C126.337 136.659 126.873 136.284 126.927 136.284C127.141 135.212 127.087 134.409 126.98 133.659C126.337 133.927 125.748 134.194 125.105 134.409C124.355 134.677 123.284 134.784 122.266 134.677Z" fill="#0D134F"/>
<path d="M121.034 134.73L121.676 134.569C121.087 134.462 120.551 134.248 120.123 133.98C119.641 133.605 119.266 132.962 119.158 132.266C118.301 133.605 118.087 135.159 118.087 135.159L118.248 136.23L119.051 136.445C120.337 136.391 121.034 134.73 121.034 134.73Z" fill="#0D134F"/>
<path d="M120.926 134.944C120.605 135.695 120.765 136.445 121.194 136.605C121.676 136.82 122.265 136.337 122.587 135.641C122.908 134.891 122.748 134.141 122.319 133.98C121.837 133.766 121.247 134.194 120.926 134.944Z" fill="#FDB18D"/>
<path d="M115.783 138.213L117.337 137.355L120.444 140.516L119.694 141.106L115.783 138.213Z" fill="white"/>
<path d="M101.372 152.892C101.372 152.892 103.354 158.946 112.194 169.286L112.783 190.608H122.266V189.59L115.462 187.822L118.247 167.786L110.908 153.481L101.372 152.892Z" fill="#2466B4"/>
<path d="M98.0498 151.928C98.0498 151.928 101.371 141.695 115.783 138.159C115.783 138.159 119.426 139.391 121.355 142.123C121.355 142.123 119.158 145.766 112.783 150.749L111.497 154.606C111.497 154.606 100.675 157.231 98.0498 151.928Z" fill="#5600B5"/>
<path d="M111.497 154.606L112.783 150.749C115.408 148.713 117.337 146.892 118.676 145.445L117.926 144.641L111.818 149.517C111.818 149.517 110.479 149.035 109.729 147.963C109.729 147.963 109.943 149.463 111.39 150.749L110.211 153.695C110.211 153.695 101.746 155.196 98.0498 151.928C100.675 157.231 111.497 154.606 111.497 154.606Z" fill="#410088"/>
<path d="M121.355 142.123C121.355 142.123 125.426 148.124 127.248 151.231L129.284 149.302C129.284 149.302 130.516 149.57 131.052 151.231L127.409 154.767C127.409 154.767 126.069 156.053 122.533 151.928L117.819 146.249C117.926 146.249 117.23 141.534 121.355 142.123Z" fill="#5600B5"/>
<path d="M122.265 189.59L115.461 187.822H112.675L112.782 190.608H122.265V189.59Z" fill="#0D134F"/>
<path d="M112.783 190.608H122.266V189.59H112.729L112.783 190.608Z" fill="#FDD247"/>
<path d="M134.213 142.284H129.284V144.641H134.213V142.284Z" fill="#F8A510"/>
<path d="M134.159 143.302L129.284 143.624V142.981H134.159V143.302Z" fill="#BA7C0C"/>
<path d="M129.337 140.677C129.391 140.677 129.498 140.731 129.552 140.731C129.712 140.731 129.873 140.784 130.034 140.945C130.141 141.106 130.141 141.266 130.194 141.427C130.516 141.909 130.677 141.32 130.784 141.106C130.944 140.838 131.373 140.731 131.641 140.838C131.909 140.998 131.695 141.481 131.962 141.641C132.337 141.909 132.445 141.106 132.445 140.945C132.498 140.677 132.659 140.248 133.034 140.355C133.355 140.409 133.302 140.945 133.409 141.213C133.462 141.32 133.516 141.534 133.677 141.427C133.784 141.32 133.73 141.052 133.73 140.945C133.73 140.784 133.784 140.623 133.891 140.516C133.945 140.463 133.945 140.463 133.998 140.409V139.766H129.284V140.677H129.337Z" fill="#E9F9F9"/>
<path d="M221.109 215.199C221.109 217.235 214.466 218.842 206.269 218.842C198.072 218.842 191.429 217.235 191.429 215.199C191.429 213.163 198.072 211.556 206.269 211.556C214.466 211.556 221.109 213.163 221.109 215.199Z" fill="#BBE7F2"/>
<path d="M210.234 178.822C210.234 178.822 211.734 183.536 208.573 196.555L209.002 211.609H207.18C207.18 211.609 203.751 204.162 204.18 197.251C204.18 197.251 201.608 186.429 202.841 179.893C202.787 179.893 206.162 176.679 210.234 178.822Z" fill="#2466B4"/>
<path d="M202.465 183.858C202.519 186.858 203.323 189.43 204.555 191.251C205.198 188.304 204.715 184.447 205.144 178.875L204.983 178.608C203.644 179.143 202.787 179.947 202.787 179.947C202.733 180.161 202.733 180.375 202.68 180.59C202.519 181.554 202.465 182.679 202.465 183.858Z" fill="#0D134F"/>
<path d="M197.43 175.179C197.43 175.179 194.001 182.197 198.34 195.323C198.34 195.323 196.412 198.216 198.34 212.627H200.001L202.358 195.537C202.358 195.537 204.716 185.304 205.251 178.286L197.43 175.179Z" fill="#2466B4"/>
<path d="M217.091 160.821C217.091 160.821 218.752 162.321 215.377 171.75L214.841 181.822L215.377 183.751L214.841 186.001C214.841 186.001 214.038 185.197 214.466 184.019C214.466 184.019 212.752 184.983 212.216 183.858L212.966 181.501L211.948 172.339L213.877 162.857C213.877 162.803 214.359 160.821 217.091 160.821Z" fill="#F09474"/>
<path d="M214.948 192.108L213.984 191.84C214.895 188.304 214.68 185.679 213.341 184.072C211.627 182.036 208.627 182.304 208.573 182.304C202.519 182.518 202.037 190.983 202.037 191.09L201.019 191.037C201.019 190.93 201.501 181.554 208.466 181.286C208.573 181.286 212.002 180.965 214.038 183.376C215.645 185.358 215.966 188.251 214.948 192.108Z" fill="#FDD247"/>
<path d="M208.573 181.554L207.662 181.822L206.43 181.554C206.43 181.554 206.591 182.09 206.43 182.786C206.43 182.893 206.43 182.947 206.43 183.054C206.537 183.536 206.966 183.536 207.395 183.536C207.877 183.536 208.198 183.536 208.627 183.697C209.002 183.804 209.377 183.804 209.698 183.536C209.805 183.429 209.966 183.215 210.02 183.161L210.663 182.304L208.573 181.554Z" fill="#F09474"/>
<path d="M204.875 157.714C204.875 157.714 209.911 151.82 217.09 160.767C217.09 160.767 216.715 163.178 214.519 166.714C214.519 166.714 213.287 169.286 210.983 169.393C210.983 169.393 209.483 175.715 210.233 178.768C210.233 178.768 202.304 183.483 196.411 175.125C196.411 175.125 199.518 170.411 200.697 166.5C200.697 166.553 201.661 161.035 204.875 157.714Z" fill="#FDB18D"/>
<path d="M214.252 184.126C214.091 184.019 213.93 184.179 213.823 184.233C213.984 183.858 213.716 183.108 213.234 183.215H213.18C213.288 182.947 213.073 182.626 212.805 182.733C212.591 182.786 212.43 183.054 212.323 183.215C212.162 183.429 212.002 183.697 212.109 183.965C212.162 184.233 212.43 184.447 212.698 184.394C212.698 184.608 212.698 184.822 212.913 184.983C213.073 185.09 213.234 185.144 213.341 185.036C213.18 185.304 213.18 185.733 213.448 185.947C213.77 186.215 213.93 185.947 214.091 185.733C214.252 185.519 214.413 185.304 214.52 185.036C214.466 184.769 214.52 184.286 214.252 184.126Z" fill="#F09474"/>
<path d="M215.377 183.697L214.841 185.947C214.841 185.947 213.984 185.144 214.466 183.965C214.466 183.965 214.52 182.893 214.359 182.947C214.412 182.679 214.412 183.536 214.68 183.376C214.841 183.269 215.055 183.161 215.216 183.108L215.377 183.697Z" fill="#F09474"/>
<path d="M214.519 166.768C215.054 165.964 215.43 165.16 215.751 164.518C215.751 164.464 215.751 164.357 215.751 164.303C215.858 163.392 215.858 162.428 215.912 161.517C215.912 160.874 216.019 160.285 216.072 159.642C215.858 159.428 215.697 159.214 215.483 159.053C215.483 159.214 215.483 159.374 215.483 159.535C215.483 160.928 215.644 162.535 215.054 163.821C214.679 164.732 214.09 165.91 212.965 165.964C212.429 166.018 211.786 166.018 211.358 165.589C210.876 165.107 210.715 164.464 210.822 163.767C211.036 162.482 211.197 161.25 211.304 159.964C211.358 158.839 211.572 157.017 210.769 156.214C210.661 156.106 210.608 156.053 210.501 155.999C209.804 155.838 209.161 155.838 208.626 155.892C208.679 155.892 208.679 155.892 208.733 155.892C209.804 156.16 210.501 157.124 210.179 158.249C209.858 159.374 209.161 160.499 208.465 161.464C207.661 162.535 206.643 163.714 205.197 163.339C203.857 163.017 203.59 161.678 203.429 160.499C203.375 160.232 203.375 159.964 203.375 159.696C201.339 162.857 200.697 166.553 200.697 166.553C199.572 170.464 196.411 175.179 196.411 175.179C202.25 183.536 210.233 178.822 210.233 178.822C209.483 175.768 210.983 169.446 210.983 169.446C213.34 169.339 214.519 166.768 214.519 166.768Z" fill="#5600B5"/>
<path d="M210.234 178.822C209.484 175.822 210.984 169.5 210.984 169.446C210.502 169.071 209.912 168.857 209.43 168.482C209.109 168.214 208.787 168.053 208.466 167.732C208.198 167.464 207.984 167.196 207.662 166.982C207.502 167.571 207.662 168.214 207.609 168.803C207.555 169.339 207.127 169.768 206.805 170.196C206.109 171.107 205.948 172.125 205.573 173.25C205.037 174.75 203.591 177.107 201.769 177.054C200.055 177 198.233 175.5 197.108 174.161C196.733 174.804 196.465 175.179 196.465 175.179C202.251 183.536 210.234 178.822 210.234 178.822Z" fill="#410088"/>
<path d="M219.127 157.981C218.377 158.571 219.073 160.553 219.234 161.249C219.556 162.267 220.038 163.553 219.77 164.678C219.395 166.071 217.788 166.071 216.77 165.375C215.752 164.678 215.484 163.66 215.43 162.535C215.377 161.839 215.484 161.089 215.43 160.392C215.377 159.642 215.002 159.16 214.895 158.517C214.68 156.856 217.841 156.481 218.806 157.392" fill="#0D134F"/>
<path d="M205.895 158.839C205.895 158.839 207.716 154.981 210.234 157.499C210.234 157.499 211.52 159.214 208.788 163.285C208.788 163.285 205.252 168.321 204.77 170.357C204.77 170.357 207.234 177 208.306 178.875C208.306 178.875 210.127 180.911 210.663 182.197C210.663 182.197 205.145 183.965 206.645 179.893L200.805 170.411C200.859 170.464 202.091 165.696 205.895 158.839Z" fill="#FDB18D"/>
<path d="M199.626 191.465C199.626 191.465 199.626 196.019 205.198 200.037L206.805 195.483L204.341 192.376L199.626 191.465Z" fill="#F8A510"/>
<path d="M215.538 193.287L209.162 197.466L209.109 197.519L207.502 198.591L206.698 199.126L205.251 200.091C203.591 194.198 199.68 191.519 199.68 191.519L210.02 184.769C209.966 184.715 213.877 187.394 215.538 193.287Z" fill="#FDD247"/>
<path d="M198.34 212.627C198.34 212.627 198.179 214.127 197.644 214.77C197.644 214.77 196.518 216.217 198.715 216.217H201.126C201.126 216.217 202.626 215.467 200.965 214.395C200.965 214.395 200.001 213.752 200.054 212.574H198.34V212.627Z" fill="#FDB18D"/>
<path d="M209.002 211.609L209.162 213.056C209.162 213.056 214.788 214.234 215.056 214.984H207.609L207.823 213.27L207.18 211.556H209.002V211.609Z" fill="#FDB18D"/>
<path d="M197.751 207.377C197.858 208.931 198.072 210.699 198.34 212.627H200.001L200.698 207.377H197.751Z" fill="#FDB18D"/>
<path d="M207.18 211.609H209.002L208.895 207.377H205.626C206.377 209.895 207.18 211.609 207.18 211.609Z" fill="#FDB18D"/>
<path d="M201.019 214.502C200.965 214.609 200.912 214.663 200.804 214.717C200.215 215.092 199.304 214.877 198.715 214.717C198.34 214.609 198.072 214.395 197.965 214.074C197.858 214.288 197.751 214.556 197.644 214.717C197.644 214.717 196.518 216.163 198.715 216.163H201.126C201.126 216.27 202.519 215.52 201.019 214.502Z" fill="#62C1C5"/>
<path d="M211.68 213.645C211.68 213.752 211.68 213.913 211.519 214.02C211.358 214.127 211.198 214.127 210.983 214.127C210.608 214.127 210.233 214.02 209.805 214.02C209.055 214.02 208.358 214.02 207.662 214.02L207.555 215.038H215.002C214.894 214.556 213.234 214.02 211.68 213.645Z" fill="#62C1C5"/>
<path d="M224.914 199.716L220.253 198.376L209.538 198.966L206.698 199.073L207.502 198.537L209.109 197.519L209.163 197.466L211.306 197.305L219.449 196.608L220.467 194.841L224.914 199.716Z" fill="#FDD247"/>
<path d="M211.306 197.305L209.538 198.966L206.698 199.073L207.502 198.537L209.109 197.519L209.163 197.466L211.306 197.305Z" fill="#F8A510"/>
<path d="M214.52 154.178L216.502 157.66L217.627 159.91C217.627 159.91 216.341 157.981 213.555 160.178L210.93 156.106C210.93 156.053 213.502 156.91 214.52 154.178Z" fill="#FDB18D"/>
<path d="M214.52 154.178C214.52 154.178 216.342 147.856 221.378 150.588C221.378 150.588 225.235 151.874 221.913 157.874C221.645 158.303 221.699 159.321 221.378 159.857L220.52 159.267C220.52 159.267 218.967 161.089 218.002 160.392L214.574 155.999L214.52 154.178Z" fill="#FDB18D"/>
<path d="M223.253 153.749C222.396 154.499 220.788 155.571 218.324 154.821C218.324 154.821 217.467 156.053 215.967 156.696C215.752 156.803 215.538 156.856 215.324 156.91C214.145 157.231 212.699 157.124 210.984 156.106C210.984 156.106 213.502 156.964 214.574 154.178C214.574 154.178 216.395 147.909 221.431 150.588C221.378 150.535 223.306 151.231 223.253 153.749Z" fill="#0A3C5F"/>
<path d="M222.449 151.338C222.449 151.606 222.395 151.874 222.341 152.142C221.966 153.642 220.734 154.178 219.341 154.124C218.109 154.124 216.663 154.124 216.073 152.785C215.913 152.41 215.859 152.035 215.805 151.66C214.895 152.838 214.52 154.124 214.52 154.124C213.448 156.91 210.93 156.053 210.93 156.053C212.645 157.124 214.145 157.178 215.27 156.856C215.484 156.803 215.698 156.696 215.913 156.642C217.413 155.999 218.27 154.767 218.27 154.767C220.681 155.517 222.341 154.499 223.199 153.695C223.306 152.57 222.877 151.82 222.449 151.338Z" fill="#0D134F"/>
<path d="M217.359 154.338C216.984 155.035 216.984 155.785 217.413 156.053C217.842 156.321 218.538 155.946 218.913 155.249C219.288 154.553 219.288 153.803 218.859 153.535C218.431 153.32 217.788 153.642 217.359 154.338Z" fill="#FDB18D"/>
<path d="M239.378 194.198C240.986 188.733 235.521 185.197 233.432 181.126C233.485 183.215 232.896 185.144 233.485 187.233C234.074 189.376 234.932 190.876 234.717 193.18C234.503 195.216 234.074 197.68 234.824 199.662C235.36 201.002 236.325 202.448 237.182 203.68C237.61 202.555 238.468 201.537 238.682 200.144C238.843 199.18 238.468 197.948 238.575 196.984C238.575 195.858 239.057 195.216 239.378 194.198Z" fill="#3D895B"/>
<path d="M254.755 200.091C253.737 199.341 252.451 199.341 251.219 199.287C249.665 199.234 248.754 199.716 247.683 200.894C247.308 201.269 247.04 201.859 246.558 202.18C246.022 202.555 245.272 202.555 244.736 202.984C243.933 203.68 243.826 204.805 243.611 205.77C244.522 205.663 245.647 205.77 246.076 205.663C247.415 205.448 248.165 204.484 248.915 203.412C249.397 202.77 249.558 202.502 250.362 202.395C251.005 202.341 251.701 202.395 252.29 202.448C253.737 202.662 254.648 202.555 256.041 202.234C256.469 202.127 257.112 202.287 257.594 202.609C257.166 201.591 255.612 200.734 254.755 200.091Z" fill="#73C176"/>
<path d="M250.2 192.59C249.557 193.448 249.075 194.305 248.646 195.323C248.271 196.233 247.789 197.305 246.986 197.894C246.343 198.376 245.378 198.43 244.682 198.805C242.753 199.716 242.003 202.341 242.539 204.43C243.557 203.734 244.307 202.555 245.325 201.859C246.557 201.002 247.2 199.609 248.379 198.751C249.664 197.787 250.95 197.573 251.807 196.073C252.45 194.948 252.718 193.555 252.611 192.215C252.611 192.001 252.504 191.626 252.504 191.197C252.397 191.251 252.343 191.305 252.236 191.358C251.432 191.733 250.789 191.787 250.2 192.59Z" fill="#3D895B"/>
<path d="M231.664 197.68C231.021 196.073 230.11 194.787 228.717 193.823C227.163 192.698 225.556 192.698 223.681 192.698C223.949 193.876 224.056 195.162 224.806 195.966C225.878 197.198 227.378 197.198 228.235 198.912C229.092 200.627 229.253 202.448 231.021 203.68C232.521 204.752 234.503 204.645 235.95 205.823C235.521 204.27 235.467 202.609 234.342 201.269C233.217 199.877 232.307 199.394 231.664 197.68Z" fill="#73C176"/>
<path d="M232.36 202.073C233.164 202.877 234.074 203.52 234.824 204.216C235.628 204.859 236.217 205.663 236.646 206.413C236.914 206.948 237.075 207.377 237.235 207.752C237.396 208.127 237.503 208.502 237.61 208.77C237.825 209.359 237.932 209.681 237.878 209.681C237.825 209.681 237.664 209.413 237.396 208.877C237.289 208.609 237.128 208.288 236.914 207.913C236.753 207.538 236.539 207.109 236.271 206.68C235.842 206.038 235.307 205.341 234.503 204.698C233.753 204.055 232.789 203.412 231.985 202.555C231.771 202.287 231.503 202.073 231.342 201.805C231.181 201.537 230.967 201.269 230.806 200.948C230.538 200.359 230.378 199.716 230.271 199.18C230.11 198.644 230.003 198.162 229.735 197.734C229.467 197.305 229.199 196.93 228.931 196.662C228.342 196.073 227.753 195.698 227.324 195.43C226.895 195.162 226.681 195.055 226.681 195.001C226.681 194.948 226.949 195.055 227.378 195.269C227.806 195.483 228.449 195.805 229.146 196.394C229.467 196.716 229.788 197.091 230.056 197.519C230.378 197.948 230.539 198.537 230.699 199.073C230.86 199.609 230.967 200.198 231.235 200.734C231.342 201.002 231.556 201.216 231.717 201.484C231.931 201.591 232.146 201.805 232.36 202.073Z" fill="#F8A510"/>
<path d="M237.504 197.359C236.646 200.841 237.343 204.109 237.718 206.413C238.147 208.716 238.414 210.163 238.307 210.216C238.254 210.216 238.147 209.895 237.986 209.252C237.825 208.609 237.557 207.698 237.289 206.52C237.021 205.395 236.754 204.002 236.593 202.395C236.539 202.019 236.539 201.591 236.486 201.162C236.486 200.734 236.486 200.305 236.486 199.877C236.486 199.448 236.593 199.019 236.646 198.537C236.7 198.109 236.807 197.68 236.861 197.198C237.021 196.341 237.129 195.483 237.182 194.626C237.236 193.823 237.129 193.019 236.968 192.269C236.646 190.769 236.057 189.537 235.575 188.465C235.093 187.394 234.718 186.483 234.557 185.84C234.396 185.197 234.343 184.822 234.343 184.822C234.396 184.822 234.504 185.144 234.718 185.786C234.986 186.376 235.361 187.233 235.896 188.304C236.432 189.376 237.075 190.608 237.45 192.215C237.611 193.019 237.718 193.823 237.718 194.733C237.772 195.591 237.664 196.448 237.504 197.359Z" fill="#F8A510"/>
<path d="M238.522 196.984C238.522 196.716 238.575 196.501 238.629 196.287C238.522 196.18 238.414 196.073 238.307 195.966C237.718 195.376 237.664 194.894 237.343 194.144C236.593 195.591 235.843 197.412 236.379 198.966C236.647 199.823 237.289 200.519 237.718 201.269C237.825 201.484 237.932 201.752 238.039 201.966C238.307 201.43 238.575 200.841 238.682 200.144C238.789 199.234 238.468 198.001 238.522 196.984Z" fill="#0D134F"/>
<path d="M243.504 202.395C242.914 203.52 242.807 204.805 242.432 205.93C242.272 206.52 242.004 207.002 241.789 207.484C241.575 207.966 241.307 208.341 241.146 208.77C240.343 210.323 240.45 211.449 240.343 211.449C240.289 211.449 240.236 211.181 240.289 210.699C240.289 210.216 240.45 209.466 240.825 208.663C240.986 208.234 241.2 207.806 241.414 207.377C241.629 206.895 241.843 206.413 241.95 205.877C242.272 204.805 242.379 203.466 243.022 202.234C243.182 201.912 243.343 201.591 243.557 201.323C243.772 201.055 243.986 200.787 244.2 200.573C244.682 200.144 245.111 199.716 245.593 199.341C246.504 198.644 247.361 198.001 248.004 197.466C249.343 196.341 249.933 195.43 250.04 195.483C250.093 195.483 249.933 195.751 249.665 196.18C249.397 196.608 248.915 197.144 248.272 197.787C247.629 198.376 246.825 199.073 245.915 199.769C245.004 200.412 244.039 201.269 243.504 202.395Z" fill="#F8A510"/>
<path d="M245.968 204.859C245.379 205.127 244.843 205.341 244.415 205.716C243.933 206.038 243.558 206.466 243.236 206.895C242.54 207.752 242.058 208.609 241.683 209.306C241.04 210.806 241.04 211.877 240.932 211.877C240.879 211.877 240.879 211.609 240.879 211.127C240.879 210.645 240.986 209.948 241.307 209.145C241.683 208.341 242.111 207.484 242.808 206.573C243.183 206.145 243.558 205.663 244.093 205.288C244.576 204.859 245.218 204.591 245.808 204.377C246.397 204.162 246.933 203.895 247.361 203.52C247.79 203.145 248.111 202.662 248.433 202.234C249.076 201.323 249.987 200.573 250.897 200.466C251.808 200.305 252.451 200.519 252.933 200.627C253.415 200.734 253.63 200.841 253.63 200.894C253.63 200.948 253.362 200.894 252.88 200.841C252.397 200.787 251.754 200.68 250.951 200.894C250.147 201.055 249.451 201.644 248.808 202.555C248.486 202.984 248.165 203.52 247.683 203.948C247.147 204.323 246.558 204.591 245.968 204.859Z" fill="#F8A510"/>
<path d="M242.272 190.662C242.861 189.055 243.29 187.447 242.7 185.733C242.433 185.036 242.058 184.34 241.843 183.644C241.683 183.911 241.415 184.126 241.307 184.394C241.04 184.929 241.04 185.572 240.932 186.162C240.665 187.233 240.397 188.251 239.861 189.215C238.843 191.037 237.129 192.323 236.754 194.519C236.379 196.608 237.182 198.912 238.361 200.573C238.789 201.216 239.325 201.859 239.486 202.609C239.54 202.984 239.54 203.359 239.593 203.68C240.022 202.77 240.772 201.966 241.307 201.216C242.593 199.502 242.7 197.894 242.218 195.912C241.79 194.198 241.629 192.376 242.272 190.662Z" fill="#73C176"/>
<path d="M239.861 198.43C240.182 200.144 240.021 201.805 239.861 203.252C239.7 204.698 239.539 205.984 239.486 207.109C239.379 209.306 239.861 210.591 239.754 210.645C239.7 210.645 239.593 210.324 239.432 209.734C239.325 209.413 239.271 209.038 239.218 208.609C239.218 208.395 239.164 208.127 239.111 207.913C239.111 207.645 239.111 207.377 239.111 207.109C239.111 205.984 239.218 204.645 239.379 203.198C239.486 201.752 239.646 200.144 239.325 198.537C239.057 196.93 238.736 195.216 239.218 193.715C239.325 193.34 239.486 193.019 239.646 192.698C239.807 192.376 239.968 192.108 240.129 191.84C240.45 191.305 240.772 190.769 240.986 190.287C241.468 189.322 241.629 188.465 241.682 187.822C241.736 187.233 241.682 186.858 241.736 186.858C241.789 186.858 241.843 187.179 241.897 187.822C241.897 188.465 241.789 189.376 241.307 190.394C241.093 190.93 240.825 191.465 240.504 192.055C240.343 192.323 240.182 192.644 240.021 192.912C239.861 193.233 239.754 193.501 239.646 193.876C239.271 195.162 239.593 196.769 239.861 198.43Z" fill="#F8A510"/>
<path d="M254.486 215.52H224.86C225.824 213.806 226.949 212.252 228.771 211.288C229.949 210.699 231.128 210.484 232.36 210.163C233.7 209.788 234.61 209.091 235.789 208.556C238.736 207.323 240.986 209.466 243.772 209.681C245.057 209.734 246.182 208.984 247.522 209.091C248.968 209.198 250.308 210.109 251.272 211.127C252.772 212.681 253.361 214.181 254.486 215.52Z" fill="#1CDBC9"/>
</svg>
