<svg width="103" height="102" viewBox="0 0 103 102" fill="none" xmlns="http://www.w3.org/2000/svg">
<path d="M0.109985 91.2541C0.109985 96.9279 4.71171 101.521 10.3773 101.521H90.8991C96.5729 101.521 101.166 96.9196 101.166 91.2541V60.7903C101.166 55.3227 96.7379 50.8942 91.2702 50.8942H10.0062C4.53852 50.8942 0.109985 55.3227 0.109985 60.7903V91.2541Z" fill="#BCCF38"/>
<path d="M78.3722 59.8336C77.9187 57.442 77.8692 55.0092 77.63 52.5929C77.597 52.2795 77.5558 51.9579 77.5475 51.6363C77.5311 50.9683 77.1929 50.5147 76.5662 50.2755C76.2363 50.1436 75.824 50.1683 75.4776 50.1106C75.1065 50.0446 74.7519 50.0281 74.3808 50.0364C74.3478 50.0364 74.3148 50.0364 74.2818 50.0446C74.2571 50.0364 74.2241 50.0364 74.1911 50.0364C73.8117 50.0281 73.4571 50.0529 73.086 50.1106C72.7397 50.1683 72.3273 50.1518 71.9974 50.2755C71.3707 50.5229 71.0326 50.9683 71.0161 51.6363C71.0078 51.9579 70.9666 52.2713 70.9419 52.5929C70.6944 55.0092 70.6532 57.442 70.1996 59.8336C69.8203 61.7881 67.4864 64.9466 70.6285 65.6641C72.9623 66.1919 75.6095 66.1919 77.9434 65.6641C81.0854 64.9466 78.7516 61.7881 78.3722 59.8336" fill="#855C52"/>
<path d="M99.6242 45.8883C96.078 44.8905 93.2906 43.5627 91.3114 42.4329C91.1712 42.3092 90.9733 42.2103 91.0392 42.0041C91.0805 41.8721 91.2536 41.8227 91.3773 41.7979C92.5649 41.6412 93.5792 41.4681 94.3215 41.2866C98.4696 40.297 98.4944 37.6498 98.4944 37.6498C98.4944 37.6498 99.1046 34.483 95.3853 33.4439C92.1113 32.5203 89.4723 31.3245 87.5261 30.2441C87.3941 30.1617 87.2622 30.0627 87.3199 29.906C87.3529 29.8236 87.4189 29.7741 87.4931 29.7576C88.1034 29.6834 88.6559 29.6091 89.1177 29.5267C92.7133 28.8669 92.8535 26.5908 92.8535 26.5908C92.8535 26.5908 93.4555 24.0673 90.3795 22.855C87.5178 21.7252 84.648 20.0428 82.7594 18.8388C82.6605 18.7316 82.5285 18.5996 82.5945 18.4595C82.6522 18.3275 82.8089 18.3193 82.9409 18.3028H82.9574L83.5099 18.3687C83.5099 18.3687 86.6932 18.979 87.6745 16.2493C88.6559 13.5196 85.6293 12.0847 85.6293 12.0847C79.6669 9.26426 75.7249 1.31434 75.7249 1.31434C74.892 -0.277299 74.2817 0.027833 74.2817 0.027833C74.2817 0.027833 73.6797 -0.277299 72.8468 1.31434C72.8468 1.31434 68.9048 9.27251 62.9176 12.0764C62.9176 12.0764 59.891 13.5114 60.8724 16.2411C61.862 18.9708 65.0453 18.3605 65.0453 18.3605L65.5978 18.2945H65.6061C65.7298 18.311 65.8947 18.3193 65.9524 18.4512C66.0184 18.5914 65.8865 18.7234 65.7875 18.8306C63.899 20.0346 61.0291 21.7169 58.1675 22.8468C55.0831 24.059 55.6934 26.5826 55.6934 26.5826C55.6934 26.5826 55.8419 28.8504 59.4292 29.5184C59.891 29.6009 60.4518 29.6751 61.0621 29.7493C61.1363 29.7741 61.2105 29.8153 61.2353 29.8978C61.293 30.0545 61.1693 30.1534 61.0373 30.2359C58.5484 31.5992 55.9115 32.6728 53.1781 33.4357C49.4588 34.4748 50.0691 37.6415 50.0691 37.6415C50.0691 37.6415 50.1021 40.2888 54.242 41.2784C54.9842 41.4598 55.9985 41.6247 57.1861 41.7897C57.3098 41.8144 57.483 41.8721 57.5242 41.9958C57.5902 42.1938 57.3923 42.301 57.2521 42.4247C55.2811 43.5627 52.4854 44.8905 48.9393 45.8801C45.22 46.9192 45.8302 50.086 45.8302 50.086C45.8302 50.086 45.8962 52.6095 50.0114 53.7311C51.7102 54.1929 54.0935 54.2011 56.7408 53.9537C57.1119 53.9702 57.5077 53.929 57.8376 54.1269C58.2417 54.3743 58.2582 54.8939 58.3736 55.2979C58.4808 55.6855 58.6293 56.0649 58.819 56.4195C60.5755 59.5615 64.8804 58.407 67.9894 56.3123C68.2945 56.1391 68.6491 56.0072 69.012 55.9494C69.5068 55.867 70.0099 55.9247 70.447 56.1639C70.4799 56.1804 70.5294 56.2133 70.5624 56.2381C70.9005 56.5267 71.2551 56.7906 71.651 57.0215C72.352 57.4256 73.2344 57.6318 74.0178 57.8132C75.4693 58.1596 77.3248 57.8957 78.6855 57.0463C78.7432 57.0133 78.801 56.9721 78.834 56.9556C78.8669 56.9391 78.8999 56.9061 78.9329 56.8813C78.9742 56.8483 79.0154 56.8236 79.0566 56.7989C79.1968 56.6917 79.3288 56.5845 79.4772 56.4937C79.7658 56.3123 80.104 56.1886 80.4421 56.1639C80.5988 56.1556 80.7472 56.1639 80.8957 56.1886C81.1266 56.2381 81.3575 56.3288 81.5636 56.4443C81.6049 56.469 81.6709 56.5102 81.7286 56.535C84.8129 58.5142 88.9116 59.5203 90.6186 56.4608C90.8166 56.1061 90.9568 55.7268 91.064 55.3474C91.1794 54.9433 91.2042 54.4238 91.6 54.1764C91.8639 54.0114 92.1855 54.0114 92.4907 54.0114C94.874 54.2011 97.0017 54.1516 98.5603 53.7311C102.675 52.6095 102.741 50.086 102.741 50.086C102.741 50.086 103.343 46.9274 99.6242 45.8883" fill="#757F3F"/>
<path d="M67.9069 15.2269C68.4924 15.4495 68.8718 15.9031 69.7047 15.5732C70.2408 15.3588 70.7273 14.5589 70.8016 14.0063C70.917 13.1487 70.3315 13.3548 69.7707 13.0827C69.6058 12.6456 70.0923 11.9611 69.8449 11.4746C69.4903 10.7818 68.3935 11.5158 68.0719 11.8869C67.5606 12.4724 67.1235 12.9013 66.4143 13.2806C65.9359 13.5363 63.9072 14.6001 64.8968 15.3341C65.103 15.4825 65.3092 15.5072 65.5648 15.5072C66.2163 15.499 66.8678 15.0619 67.4946 15.1279C67.643 15.1361 67.7832 15.1774 67.9069 15.2269" fill="#99A95A"/>
<path d="M61.9363 24.2818C61.1941 24.5457 59.6272 25.5188 60.6168 26.4177C61.3095 27.0527 62.7857 26.6898 63.5939 26.4837C63.932 26.4012 64.3773 26.162 64.732 26.1785C65.1113 26.195 65.1196 26.4754 65.2433 26.7888C65.4989 27.4238 65.969 27.5475 66.6205 27.5475C67.0163 27.5475 67.3297 27.564 67.6843 27.3991C68.5337 26.995 68.476 27.2011 69.2595 27.4815C70.1748 27.8114 70.9501 27.3578 71.4861 26.6239C71.6593 26.3847 71.7995 26.0218 71.783 25.7332C71.7582 25.1807 71.3706 24.892 70.7934 24.9745C70.2161 25.057 69.812 25.1807 69.5069 24.5951C69.0945 23.8199 67.9235 24.7848 67.6348 24.2323C67.5029 23.9849 67.7833 23.4653 67.7338 23.1684C67.6761 22.8056 67.4617 22.5334 67.0823 22.4757C66.4885 22.3767 65.9937 22.5334 65.5154 22.7973C64.6165 23.2839 63.8413 23.6797 62.8599 23.9849C62.6125 24.0673 62.2827 24.1581 61.9363 24.2818" fill="#99A95A"/>
<path d="M63.2145 33.0233C62.7197 32.9573 62.1342 33.1635 61.7218 33.3614C60.023 34.1861 58.3489 35.0603 56.6418 35.8684C56.0398 36.1488 55.0832 36.4375 55.1079 37.2786C55.1574 38.8043 57.7964 38.1528 58.6788 38.0538C59.454 37.9631 60.7322 37.658 61.3755 38.2848C61.7466 38.6476 61.9198 38.862 62.4641 38.9198C63.3795 39.0187 64.567 38.0951 65.3917 38.5404C65.7298 38.7218 65.9195 38.9692 66.3071 39.1012C67.2307 39.4228 68.3523 39.0435 69.111 38.4744C69.7542 37.9961 70.2161 36.6024 69.3337 36.1323C68.7564 35.819 68.3028 36.388 67.7668 36.289C66.9668 36.1406 67.1565 35.5386 66.5875 35.0932C65.903 34.5572 64.8309 35.4561 64.3361 34.9283C63.9155 34.4912 64.1959 33.7573 63.8248 33.3449C63.6516 33.147 63.4454 33.0563 63.2145 33.0233" fill="#99A95A"/>
<path d="M61.4498 45.0637C60.0396 44.7915 58.6129 45.8554 57.4006 46.3914C56.0646 46.9852 54.5802 47.0759 53.2607 47.7109C52.3866 48.1315 52.469 49.4675 53.3267 49.8468C54.1102 50.1932 55.1163 50.1025 55.9409 50.053C57.1697 49.987 58.3325 49.451 59.5613 49.3438C61.2354 49.1953 61.3179 49.6489 61.6065 51.0839C61.8127 52.1312 62.926 52.7002 63.9321 52.4776C64.4599 52.3621 64.9217 51.9085 65.4083 51.6941C66.0268 51.422 66.0021 51.4962 66.5958 51.6941C67.0247 51.8426 67.5772 51.8261 67.9978 51.6694C68.6988 51.4055 69.0286 50.8529 69.0451 50.152C69.0699 49.0551 69.0534 47.612 67.536 48.0325C65.8784 48.4944 66.4144 47.5955 65.2104 47.1419C64.3527 46.8203 63.561 47.6449 62.7693 46.944C62.159 46.3914 62.5219 45.3028 61.4498 45.0637" fill="#99A95A"/>
<path d="M1.49538 75.5933C1.49538 75.5933 -0.698274 77.7787 1.20674 79.8982C2.07265 80.8631 4.06014 82.0011 7.1197 83.2629C19.4817 88.3677 33.5342 94.8084 36.1237 94.3961C38.7132 93.9837 73.3498 81.3414 75.3538 80.1043C77.3578 78.8673 77.9103 75.816 75.0734 74.3976C70.8098 72.2699 34.2022 84.6401 34.2022 84.6401C34.2022 84.6401 2.45201 73.7131 1.49538 75.5933Z" fill="#A3A30D"/>
<path d="M2.75728 79.1393C1.5285 78.6445 0.918237 77.2673 1.34707 76.022C14.7729 37.0971 36.6434 39.7031 36.6434 39.7031C61.623 40.2804 72.5005 67.6515 75.2302 75.9231C75.6508 77.2096 74.9581 78.595 73.6716 79.0321L35.8187 91.8394C35.258 92.0291 34.6477 92.0126 34.1034 91.7899L2.75728 79.1393Z" fill="#FCC21B"/>
<path d="M36.6764 39.5135C36.6764 39.5135 32.5448 41.7649 31.9262 59.7017C31.4562 73.3007 35.8187 91.8231 35.8187 91.8231L73.8613 78.9663C75.0735 78.5539 75.7745 77.3004 75.4776 76.0634C73.6386 68.1959 65.3753 41.6907 36.6764 39.5135V39.5135Z" fill="#E89F0F"/>
<path d="M40.1235 25.3373C40.8244 25.4116 41.4924 25.6342 42.2264 25.7579C46.0364 26.3929 61.2848 28.5618 62.2084 28.9247C62.6125 29.0814 63.1733 29.3535 63.297 29.8154C63.4867 30.5163 62.6043 30.8297 62.1177 31.0771C60.0313 32.1327 44.2881 37.3777 42.0285 38.1199C41.2945 38.3673 40.6678 38.7137 39.8843 38.7467C39.1668 38.7714 38.3339 39.2332 37.6742 38.7714C37.0309 38.3343 36.9979 37.7158 36.9979 37.0066C36.9979 36.2644 36.8742 35.5057 36.8 34.7799C36.734 34.0542 36.8 33.2873 36.8 32.5533C36.8 31.7534 36.899 31.0112 36.899 30.2112C36.899 29.3288 36.9155 28.4794 36.9979 27.6217C37.0557 27.0115 37.1794 26.3022 37.5092 25.8074C37.7731 25.4198 38.07 25.1312 38.5401 25.0405C39.1256 24.925 39.5709 25.2714 40.1235 25.3373" fill="#ED6C30"/>
<path d="M36.4208 42.1689C35.6126 42.1689 34.9611 41.369 34.9611 40.3794V24.9331C34.9611 23.9435 35.6126 23.1436 36.4208 23.1436C37.229 23.1436 37.8805 23.9435 37.8805 24.9331V40.3794C37.8805 41.369 37.229 42.1689 36.4208 42.1689Z" fill="#855C52"/>
<path d="M65.3918 81.8115C65.3918 81.8115 60.7488 58.7369 51.5289 61.2687C43.6697 63.4211 47.8921 87.7244 47.8921 87.7244L65.3918 81.8115Z" fill="#855C52"/>
</svg>
