<svg width="104" height="104" viewBox="0 0 104 104" fill="none" xmlns="http://www.w3.org/2000/svg">
<path d="M98.1281 80.0519C96.1104 78.037 87.0737 72.4253 78.252 67.5444C83.2902 60.3485 85.9892 51.7752 85.9818 42.9909C85.9818 19.2484 66.7333 0 42.9909 0C19.2456 0 0 19.2484 0 42.9909C0 66.7333 19.2456 85.9818 42.9909 85.9818C52.0448 85.9818 60.4337 83.1702 67.3639 78.3896C72.2505 87.2199 77.8708 96.2738 79.8885 98.2915C83.9411 102.344 88.8478 103.184 91.7139 103.178C95.0872 103.172 103.336 94.921 103.178 91.7139C103.038 88.8507 102.181 84.1045 98.1281 80.0519Z" fill="#292F33"/>
<path d="M42.9908 77.3836C61.9854 77.3836 77.3835 61.9854 77.3835 42.9909C77.3835 23.9963 61.9854 8.59814 42.9908 8.59814C23.9963 8.59814 8.59811 23.9963 8.59811 42.9909C8.59811 61.9854 23.9963 77.3836 42.9908 77.3836Z" fill="#66757F"/>
<path d="M45.8568 71.6514C59.7945 67.2577 57.3211 57.3211 57.3211 45.8568C57.3211 34.3926 68.7882 26.6313 58.2783 17.9127C52.0389 12.7366 38.9324 10.9855 32.8421 13.2554C27.2447 15.339 20.0623 19.5837 20.0623 28.1818C20.0623 36.78 19.8961 36.5708 15.1671 44.3034C7.64368 56.6045 26.1527 77.8621 45.8568 71.6514Z" fill="#F5F8FA"/>
<path d="M37.2588 63.0535C43.5903 63.0535 48.723 57.9208 48.723 51.5892C48.723 45.2577 43.5903 40.125 37.2588 40.125C30.9272 40.125 25.7945 45.2577 25.7945 51.5892C25.7945 57.9208 30.9272 63.0535 37.2588 63.0535Z" fill="#FFAC33"/>
</svg>
