<svg width="369" height="230" viewBox="0 0 369 230" fill="none" xmlns="http://www.w3.org/2000/svg">
<path d="M43.5767 205.728C-0.754836 172.866 -14.0013 141.629 18.8075 103.343C61.1159 53.9799 113.904 73.6437 134.424 72.4401C154.945 71.2365 156.551 30.9656 217.858 25.3055C265.254 20.9304 344.513 35.0805 327.914 112.467C315.287 171.312 396.842 173.868 357.915 205.728C318.988 237.588 87.9083 238.59 43.5767 205.728Z" fill="#EBF2F9"/>
<path d="M197.135 0.0439152L213.625 0L213.669 14.6082H197.179L197.135 0.0439152Z" fill="#D3671E"/>
<path d="M192.185 0.0735333L205.388 0.0149841L205.433 14.6086H192.214L192.185 0.0735333Z" fill="#F1A34F"/>
<path opacity="0.4" d="M205.388 0.0149078L192.154 0.073457V4.69891L205.432 14.6085L205.388 0.0149078Z" fill="#D86713"/>
<path d="M92.4629 159.783L127.079 159.681L127.182 190.346H92.5513L92.4629 159.783Z" fill="#D3671E"/>
<path d="M82.0737 159.842L109.793 159.725L109.867 190.361L82.1474 190.347L82.0737 159.842Z" fill="#F1A34F"/>
<path opacity="0.4" d="M109.793 159.725L82 159.842L82.0147 169.532L109.866 190.362L109.793 159.725Z" fill="#D86713"/>
<path d="M219.456 165.805L193.992 165.884L194.061 188.308L219.525 188.23L219.456 165.805Z" fill="#D3671E"/>
<path d="M186.348 165.916L206.743 165.843L206.788 188.267L186.407 188.355L186.348 165.916Z" fill="#F1A34F"/>
<path opacity="0.4" d="M206.743 165.844L186.304 165.917L186.318 173.06L206.787 188.268L206.743 165.844Z" fill="#D86713"/>
<path d="M135.507 121.535L160.971 121.462L161.03 144.018L135.566 143.975L135.507 121.535Z" fill="#D3671E"/>
<path d="M127.859 121.58L148.254 121.507L148.299 144.019H127.918L127.859 121.58Z" fill="#F1A34F"/>
<path opacity="0.4" d="M148.254 121.507L127.918 121.58L127.83 128.708L148.298 143.931L148.254 121.507Z" fill="#D86713"/>
<path d="M184.771 107.498L210.236 107.425L210.31 144.018L184.845 144.092L184.771 107.498Z" fill="#D3671E"/>
<path d="M177.139 107.542L197.52 107.455L197.578 143.99H177.198L177.139 107.542Z" fill="#F1A34F"/>
<path opacity="0.4" d="M197.518 107.454L177.079 107.542L177.109 114.67L197.577 129.893L197.518 107.454Z" fill="#D86713"/>
<path d="M167.677 77.4471L193.141 77.3739L193.215 99.9156H167.75L167.677 77.4471Z" fill="#D3671E"/>
<path d="M160.043 77.4913L180.424 77.4182L180.483 99.9306L160.102 99.916L160.043 77.4913Z" fill="#F1A34F"/>
<path opacity="0.4" d="M180.424 77.4186L159.984 77.4918L159.999 84.6202L180.483 99.931L180.424 77.4186Z" fill="#D86713"/>
<path d="M186.413 153.927L146.787 154.049L146.895 188.959L186.521 188.837L186.413 153.927Z" fill="#D3671E"/>
<path d="M134.903 154.119L166.631 153.987L166.719 188.898L134.992 189.015L134.903 154.119Z" fill="#F1A34F"/>
<path opacity="0.4" d="M166.631 153.987L134.815 154.119L134.844 165.214L166.719 188.898L166.631 153.987Z" fill="#D86713"/>
<path d="M125.752 14.4619V190.346H221.391V14.4619H125.752ZM219.225 188.107H127.918V16.5404H219.225V188.107V188.107Z" fill="#699FF0"/>
<path d="M234.389 14.4619H221.391V190.419H234.389V14.4619Z" fill="#466AA5"/>
<path d="M220.404 55.8275H126.754V60.6286H220.404V55.8275Z" fill="#699FF0"/>
<path d="M220.404 99.9156H126.754V104.717H220.404V99.9156Z" fill="#699FF0"/>
<path d="M220.404 144.018H126.754V148.82H220.404V144.018Z" fill="#699FF0"/>
<path d="M134.417 191.181C134.299 191.181 134.196 191.166 134.078 191.137C133.282 190.946 132.796 190.156 132.988 189.38L165.717 51.5387C165.909 50.7483 166.704 50.2653 167.485 50.4555C168.281 50.6458 168.767 51.4363 168.576 52.212L135.846 190.053C135.684 190.727 135.08 191.181 134.417 191.181Z" fill="#2E3552"/>
<path d="M104.944 191.181C104.826 191.181 104.723 191.166 104.605 191.137C103.81 190.946 103.323 190.156 103.515 189.38L136.244 51.5387C136.436 50.7483 137.232 50.2653 138.013 50.4555C138.808 50.6458 139.295 51.4363 139.103 52.212L106.374 190.053C106.212 190.727 105.607 191.181 104.944 191.181Z" fill="#2E3552"/>
<path d="M148.873 127.654H119.459C118.649 127.654 117.986 126.995 117.986 126.19C117.986 125.385 118.649 124.726 119.459 124.726H148.873C149.684 124.726 150.347 125.385 150.347 126.19C150.347 126.995 149.684 127.654 148.873 127.654Z" fill="#2E3552"/>
<path d="M143.863 150.195H114.803C113.993 150.195 113.33 149.537 113.33 148.732C113.33 147.927 113.993 147.268 114.803 147.268H143.863C144.674 147.268 145.337 147.927 145.337 148.732C145.337 149.537 144.674 150.195 143.863 150.195Z" fill="#2E3552"/>
<path d="M154.768 105.112H123.748C122.938 105.112 122.274 104.453 122.274 103.648C122.274 102.843 122.938 102.185 123.748 102.185H154.768C155.579 102.185 156.242 102.843 156.242 103.648C156.242 104.453 155.579 105.112 154.768 105.112Z" fill="#2E3552"/>
<path d="M158.599 82.2775H125.177C124.366 82.2775 123.703 81.6188 123.703 80.8137C123.703 80.0087 124.366 79.35 125.177 79.35H158.599C159.409 79.35 160.072 80.0087 160.072 80.8137C160.072 81.6188 159.409 82.2775 158.599 82.2775Z" fill="#2E3552"/>
<path d="M138.411 172.884H109.527C108.717 172.884 108.054 172.225 108.054 171.42C108.054 170.615 108.717 169.956 109.527 169.956H138.411C139.221 169.956 139.884 170.615 139.884 171.42C139.884 172.225 139.221 172.884 138.411 172.884Z" fill="#2E3552"/>
<path d="M164.494 59.7357H131.072C130.261 59.7357 129.598 59.077 129.598 58.272C129.598 57.4669 130.261 56.8082 131.072 56.8082H164.494C165.304 56.8082 165.968 57.4669 165.968 58.272C165.968 59.077 165.304 59.7357 164.494 59.7357Z" fill="#2E3552"/>
<path d="M143.23 40.0482C143.23 40.0482 143.333 36.8719 143.878 35.979C144.424 35.0715 145.617 33.9591 146.266 34.3543C146.914 34.7495 147.002 37.838 146.767 38.3942C146.546 38.9358 144.969 40.9558 144.969 40.9558L143.23 40.0482Z" fill="#FFB27D"/>
<path d="M144.409 39.7116C143.48 39.1993 143.097 39.6091 143.097 39.6091C143.097 39.6091 136.746 48.4209 136.097 49.1235C135.449 49.8261 124.765 53.383 124.765 53.383C124.765 53.383 120.433 54.6272 120.064 57.1449C119.74 59.3259 120.889 60.7896 122.186 61.7118C123.748 62.8096 125.826 62.8389 127.432 61.7996C131.028 59.4722 138.175 54.7589 139.369 53.4269C142.036 50.4555 145.514 40.7362 145.514 40.7362C145.514 40.7362 145.131 40.1214 144.409 39.7116Z" fill="#AA413E"/>
<path d="M169.249 25.0941L143.785 25.1725L143.854 47.5972L169.318 47.5187L169.249 25.0941Z" fill="#D3671E"/>
<path d="M136.142 25.2208L156.522 25.133L156.581 47.5723L136.201 47.6454L136.142 25.2208Z" fill="#F1A34F"/>
<path opacity="0.4" d="M156.522 25.1333L136.083 25.2211L136.112 32.3496L156.581 47.5726L156.522 25.1333Z" fill="#D86713"/>
<path d="M158.57 45.2738C158.57 45.2738 158.556 42.0975 159.057 41.1753C159.558 40.2532 160.722 39.0968 161.37 39.4628C162.033 39.8287 162.225 42.9172 162.033 43.4734C161.827 44.0297 160.339 46.1082 160.339 46.1082L158.57 45.2738Z" fill="#FFB27D"/>
<path d="M118.959 147.414C118.251 146.814 118.679 143.418 118.679 143.418C118.679 143.418 122.348 140.505 122.849 142.73C123.35 144.955 126.327 145.965 128.036 146.243C129.171 146.419 129.539 147.034 129.672 147.414H118.959Z" fill="#2C3A64"/>
<path d="M118.561 143.579C121.951 144.106 123.203 143.301 123.203 143.301C123.159 139.979 124.589 133.758 125.989 125.151C127.845 113.807 129.982 99.2716 131.588 91.0892C132.502 86.3906 133.121 83.3606 133.121 83.3606L130.351 83.3021L116.513 83.0239C116.513 83.0239 117.545 98.247 117.265 105.756C117.191 107.556 117.058 108.903 116.808 109.518C114.435 115.212 118.561 143.579 118.561 143.579Z" fill="#35488B"/>
<path d="M117.249 105.771C119.135 109.269 124.19 119.793 125.944 125.414C127.8 114.07 129.981 99.2716 131.588 91.0892C131.514 88.0007 131.131 85.2928 130.35 83.3021L116.512 83.0239C116.498 83.0386 117.529 98.247 117.249 105.771Z" fill="#2C3A64"/>
<path d="M130.615 147.414C129.908 146.814 130.335 143.418 130.335 143.418C130.335 143.418 134.005 140.505 134.506 142.73C135.007 144.955 137.984 145.965 139.693 146.243C140.828 146.419 141.196 147.034 141.329 147.414H130.615Z" fill="#2C3A64"/>
<path d="M139.133 83.0386C139.133 83.0386 133.695 133.011 134.771 143.096C134.771 143.096 133.607 144.004 130.173 143.799C130.173 143.799 123.365 118.037 125.28 110.352C126.091 107.088 122.554 84.2389 122.554 84.2389L139.133 83.0386Z" fill="#35488B"/>
<path d="M125.738 47.2938C125.738 47.2938 132.649 50.719 136.083 49.1528C136.083 49.1528 134.639 47.2938 133.032 46.5327C133.062 45.9179 133.091 45.3763 133.091 44.8786C133.121 43.2539 133.047 42.3317 133.047 42.3317L130.07 40.18L128.051 38.7162C128.169 39.6238 128.184 40.4581 128.14 41.2193C127.86 45.186 125.738 47.2938 125.738 47.2938Z" fill="#FFB27D"/>
<path d="M128.125 41.2339C128.125 41.2339 129.731 44.4248 133.105 44.8786C133.135 43.2538 133.061 42.3317 133.061 42.3317L130.084 40.18C128.758 40.6776 128.125 41.2339 128.125 41.2339Z" fill="#ED975D"/>
<path d="M133.813 42.1414C133.813 42.1414 127.624 44.3371 126.312 40.4874C125.001 36.6377 123.321 34.325 127.211 32.7734C131.102 31.2072 132.384 32.4221 133.135 33.6078C133.887 34.7641 135.39 41.4681 133.813 42.1414Z" fill="#FFB27D"/>
<path d="M116.056 83.0386C117.029 85.044 138.47 84.9561 139.531 83.5363C139.958 82.9654 140.459 77.2129 140.739 70.5235C140.901 66.8203 140.99 62.8242 140.975 59.2673C140.946 53.4709 140.621 48.8161 139.796 48.4648C135.199 46.4888 132.354 45.2299 126.357 45.4056C124.5 45.4641 122.835 46.518 122.024 48.1867C120.58 51.1581 118.532 56.413 118.384 62.6193C118.119 72.1776 114.833 80.5063 116.056 83.0386Z" fill="#C65447"/>
<path d="M134.034 55.3298C134.034 55.3298 134.727 65.3272 140.739 70.5236C140.901 66.8203 140.99 62.8242 140.975 59.2673C139.177 56.8814 136.805 55.1688 134.034 55.3298Z" fill="#AA413E"/>
<path d="M131.072 45.6252C131.072 45.6252 137.674 45.6691 139.737 47.5719C141.226 48.9479 151.129 55.6518 151.733 55.5494C152.337 55.4469 158.099 44.0443 158.099 44.0443C158.099 44.0443 161.12 44.2931 161.636 45.5959C161.636 45.5959 158.88 60.1602 152.735 63.4536C152.735 63.4536 137.07 61.1555 132.443 56.0471C130.07 53.4123 131.072 45.6252 131.072 45.6252Z" fill="#C65447"/>
<path d="M133.548 30.5924C133.548 30.5924 133.179 34.2664 132.074 35.2618C130.969 36.2571 131.264 37.6477 131.131 37.838C131.013 38.0429 129.864 37.4428 129.657 37.7794C129.186 38.5552 129.923 39.1261 130.38 39.3164C130.836 39.5067 129.201 42.6537 128.007 42.7708C125.929 42.9757 122.731 37.2817 122.466 35.6131C122.113 33.4321 123.35 30.0362 126.917 30.1972C132.516 30.4753 133.651 29.2604 133.548 30.5924Z" fill="#2B478B"/>
<path d="M279.489 155.274L239.863 155.395L239.971 190.305L279.598 190.184L279.489 155.274Z" fill="#D3671E"/>
<path d="M227.979 155.466L259.707 155.334L259.795 190.245L228.068 190.376L227.979 155.466Z" fill="#F1A34F"/>
<path opacity="0.4" d="M259.706 155.334L227.891 155.465L227.92 166.561L259.795 190.244L259.706 155.334Z" fill="#D86713"/>
<path d="M303.69 167.796L278.226 167.874L278.295 190.299L303.76 190.22L303.69 167.796Z" fill="#D3671E"/>
<path d="M270.582 167.921L290.977 167.834L291.021 190.273L270.64 190.346L270.582 167.921Z" fill="#F1A34F"/>
<path opacity="0.4" d="M290.977 167.833L270.538 167.921L270.552 175.05L291.021 190.273L290.977 167.833Z" fill="#D86713"/>
</svg>
