<svg width="89" height="87" viewBox="0 0 89 87" fill="none" xmlns="http://www.w3.org/2000/svg">
<path d="M58.4367 41.5633L64.6574 35.3426C66.8982 36.2302 69.2945 36.6583 71.704 36.6013C74.1135 36.5443 76.4869 36.0034 78.6832 35.0108C78.935 34.8962 79.1554 34.7223 79.3254 34.504C79.4954 34.2856 79.61 34.0293 79.6593 33.757C79.7086 33.4847 79.6913 33.2045 79.6086 32.9404C79.526 32.6763 79.3807 32.4361 79.185 32.2405L68.0747 21.1302C67.7533 20.8094 67.4984 20.4283 67.3244 20.0088C67.1504 19.5893 67.0609 19.1396 67.0609 18.6855C67.0609 18.2313 67.1504 17.7817 67.3244 17.3622C67.4984 16.9427 67.7533 16.5616 68.0747 16.2407L79.1725 5.14291C79.3705 4.94766 79.5181 4.70735 79.6029 4.44256C79.6877 4.17777 79.7071 3.89637 79.6594 3.62245C79.6117 3.34853 79.4984 3.09025 79.3291 2.8697C79.1598 2.64914 78.9396 2.47289 78.6873 2.35602C75.4646 0.897172 71.8822 0.425021 68.3916 0.999084C64.901 1.57315 61.6584 3.16773 59.0727 5.58182C56.4869 7.99592 54.6738 11.1215 53.8617 14.5645C53.0496 18.0075 53.2749 21.6139 54.5093 24.929L48.1476 31.2908L58.4367 41.5633Z" fill="#FFAC33"/>
<path d="M46.5177 32.9038L37.8958 24.2819L27.6066 34.571L36.2286 43.1929L46.5177 53.482L78.0362 85.0005C78.4685 85.4325 79.0548 85.6752 79.666 85.6752C80.2772 85.6752 80.8634 85.4325 81.2958 85.0005L88.3253 77.9711C88.7573 77.5387 89 76.9525 89 76.3412C89 75.73 88.7573 75.1438 88.3253 74.7114L56.8068 43.1929L46.5177 32.9038Z" fill="#147C6A"/>
<path d="M83.8588 10.932L74.6438 20.147C74.2905 20.5008 74.0921 20.9803 74.0921 21.4803C74.0921 21.9803 74.2905 22.4598 74.6438 22.8136L81.7479 29.9177C81.9347 30.1056 82.1592 30.252 82.4065 30.3472C82.6538 30.4424 82.9184 30.4843 83.183 30.4702C83.4476 30.4561 83.7063 30.3863 83.9421 30.2654C84.1779 30.1444 84.3855 29.9751 84.5514 29.7684C86.5619 27.2217 87.8439 24.1773 88.261 20.9595C88.678 17.7417 88.2143 14.4711 86.9194 11.496C86.7955 11.2154 86.6049 10.9693 86.3642 10.7791C86.1234 10.5889 85.8399 10.4604 85.5382 10.4048C85.2365 10.3492 84.9258 10.3682 84.6331 10.4601C84.3404 10.552 84.0746 10.714 83.8588 10.932V10.932Z" fill="#FFAC33"/>
<path d="M13.2907 54.6102L24.401 65.7204C24.7223 66.0413 24.9773 66.4224 25.1513 66.8419C25.3252 67.2614 25.4148 67.7111 25.4148 68.1652C25.4148 68.6193 25.3252 69.069 25.1513 69.4885C24.9773 69.908 24.7223 70.2891 24.401 70.61L13.3031 81.7078C13.1059 81.9045 12.9593 82.1461 12.876 82.4119C12.7927 82.6778 12.7752 82.9599 12.825 83.234C12.8747 83.5081 12.9903 83.766 13.1617 83.9856C13.3331 84.2052 13.5553 84.3799 13.8091 84.4947C17.0261 85.9499 20.6014 86.422 24.086 85.8519C27.5705 85.2817 30.8088 83.6946 33.3943 81.2899C35.9797 78.8853 37.797 75.7702 38.6178 72.3361C39.4386 68.902 39.2264 65.3019 38.0078 61.988L44.8796 55.1161L34.5905 44.827L27.8887 51.533C25.6391 50.631 23.2303 50.1933 20.8072 50.246C18.3841 50.2987 15.9966 50.8409 13.7884 51.8399C13.5368 51.9549 13.3168 52.1291 13.1472 52.3476C12.9776 52.5662 12.8635 52.8225 12.8146 53.0948C12.7657 53.3671 12.7834 53.6471 12.8664 53.911C12.9493 54.1749 13.0949 54.4148 13.2907 54.6102V54.6102Z" fill="#FFAC33"/>
<path d="M7.94479 57.2434C5.93426 59.7901 4.6522 62.8345 4.23519 66.0523C3.81818 69.2701 4.28183 72.5407 5.57676 75.5158C5.70089 75.7957 5.89139 76.0411 6.13177 76.2307C6.37215 76.4203 6.65514 76.5485 6.95622 76.604C7.2573 76.6596 7.56739 76.6409 7.85961 76.5495C8.15184 76.4582 8.41738 76.297 8.63322 76.0798L17.8482 66.8648C18.2015 66.511 18.3999 66.0315 18.3999 65.5315C18.3999 65.0315 18.2015 64.552 17.8482 64.1982L10.7483 57.0983C10.5617 56.9101 10.3375 56.7635 10.0904 56.6679C9.84321 56.5724 9.57868 56.5301 9.31407 56.5438C9.04945 56.5575 8.79071 56.6269 8.55475 56.7474C8.3188 56.868 8.11095 57.037 7.94479 57.2434V57.2434Z" fill="#FFAC33"/>
<path d="M13.2203 41.7041C13.7499 42.2337 14.4682 42.5312 15.2171 42.5312C15.9661 42.5312 16.6844 42.2337 17.214 41.7041L17.7448 41.1733C18.2744 40.6437 18.5719 39.9254 18.5719 39.1764C18.5719 38.4275 18.2744 37.7092 17.7448 37.1796L16.679 36.1137L18.7775 34.0153L8.92382 24.1616L6.82535 26.2601L5.75953 25.1943C5.2299 24.6647 4.51162 24.3672 3.76267 24.3672C3.01372 24.3672 2.29544 24.6647 1.76581 25.1943L1.23497 25.7251C0.705432 26.2547 0.407944 26.973 0.407944 27.722C0.407944 28.4709 0.705432 29.1892 1.23497 29.7188L13.2203 41.7041Z" fill="#147C6A"/>
<path d="M28.4693 5.20916L38.2027 14.9426C49.4208 7.47766 55.6954 13.7357 47.0694 5.11377C41.0974 -0.853998 33.562 1.96607 28.4693 5.20916V5.20916Z" fill="#147C6A"/>
<path d="M25.471 5.47864C24.9414 4.9491 24.2231 4.65161 23.4741 4.65161C22.7252 4.65161 22.0069 4.9491 21.4773 5.47864L9.49196 17.4639C8.96242 17.9936 8.66493 18.7119 8.66493 19.4608C8.66493 20.2098 8.96242 20.928 9.49196 21.4577L10.5578 22.5235L20.4114 32.3772L21.4773 33.443C21.953 33.9184 22.5828 34.2085 23.2534 34.2609C23.9239 34.3134 24.5912 34.1248 25.1351 33.7291C25.2542 33.6425 25.3665 33.5468 25.471 33.443L25.9811 32.9412L36.2702 22.652L37.0996 21.8226L37.477 21.4452C38.0066 20.9156 38.3041 20.1973 38.3041 19.4484C38.3041 18.6994 38.0066 17.9811 37.477 17.4515L36.3158 16.2903L26.5451 6.51958L25.471 5.47864Z" fill="#147C6A"/>
</svg>
