<svg width="98" height="98" viewBox="0 0 98 98" fill="none" xmlns="http://www.w3.org/2000/svg">
<path d="M98 49C98 76.0646 76.0591 98 49 98C21.9354 98 0 76.0591 0 49C0 21.9354 21.9354 0 49 0C76.0591 0 98 21.9354 98 49Z" fill="#3FBDF0"/>
<path d="M53.7005 61.0617C53.3541 60.9737 53.0078 60.8803 52.6669 60.7428C51.9248 60.446 51.1991 60.1161 50.4899 59.7478C49.209 59.0881 47.9775 58.3184 46.8615 57.4113C46.3172 56.966 45.7785 56.4877 45.3057 55.9654C44.9153 55.5311 44.6899 55.0144 44.2886 54.58C43.8928 54.1512 43.4695 53.9698 43.0462 53.6015C42.6283 53.2441 42.315 52.7713 41.8147 52.513C41.3089 52.2546 40.6987 52.0732 40.1654 51.8532C39.5277 51.5839 39.0219 51.265 38.4282 50.9132C37.708 50.4898 37.0593 50.5448 36.2566 50.4679C35.2066 50.3634 35.1241 49.4838 34.2995 49.0715C33.2275 48.5382 32.051 48.2138 30.9845 47.6586C29.9839 47.1363 29.0988 46.2237 28.4666 45.3056C27.9498 44.5579 27.6639 43.7388 27.422 42.8757C27.2681 42.3314 26.9162 41.8256 26.8008 41.2814C26.6579 40.5832 26.9492 39.8575 26.8338 39.1538C26.6469 37.9718 25.6243 37.3176 24.5963 36.9053C23.7606 36.57 22.1608 36.3446 22.6061 35.1076C23.2054 33.4418 27.9388 33.6068 27.5595 32.1664C27.0207 30.1213 24.0135 31.8695 23.0349 32.3203C21.5396 33.002 19.2031 34.7612 17.6363 33.3923C15.9705 31.9355 16.9161 29.9619 18.4884 28.9723C19.522 28.3236 20.9404 27.4604 22.1938 27.411C23.8981 27.345 25.6463 28.7689 27.1416 29.4176C28.2082 29.8794 30.8305 31.0889 31.7761 29.7969C32.3094 29.0712 31.908 27.7958 32.1774 26.9437C33.112 24.019 36.0257 23.8101 38.1258 22.1938C40.1214 20.6709 41.7157 17.9771 44.2556 20.1487C43.8048 21.6715 43.387 23.0239 45.1627 23.8705C45.7785 24.1619 46.779 24.4643 47.3123 23.887C47.7026 23.4692 47.7026 22.705 48.0929 22.2267C49.0825 21.0008 50.226 20.6984 48.4723 19.4889C47.3233 18.6973 46.5426 18.186 46.2238 16.7841C45.685 14.4092 43.0956 12.8369 40.7317 13.2932C39.9125 13.4526 39.1429 13.4471 38.3182 13.2657C37.807 13.1557 37.1582 12.7709 36.625 12.8479C36.0642 12.9248 35.5475 13.5076 35.0637 13.766C34.228 14.2113 33.3044 14.4367 32.3643 14.5191C31.8696 14.5631 31.1879 14.4092 30.8085 14.783C30.4732 15.1129 30.4017 15.965 30.1708 16.3883C29.3242 17.9221 26.5864 18.5104 26.0421 16.4048C25.5034 14.3102 28.2522 12.0672 29.5496 10.8687C31.0394 9.48884 33.3319 7.60316 35.399 7.19634C39.1594 6.45966 38.0049 10.4564 40.5613 10.9897C41.8312 11.2536 42.6943 10.0551 43.464 9.25794C43.8323 8.8786 44.2446 8.38382 44.7834 8.25738C45.586 8.05946 46.1193 8.99405 46.9604 8.76865C47.6916 8.57624 48.2524 7.80108 48.9121 7.45473C49.6598 7.0589 50.4514 6.72905 51.2761 6.54763C52.7549 6.21777 54.4262 6.33872 55.7071 7.21833C55.7511 7.25132 55.7896 7.27881 55.8335 7.31179C56.0095 7.36127 56.1799 7.42174 56.3063 7.5207C57.054 8.08695 57.4333 8.8951 57.8017 9.74722C58.1096 10.4729 58.1425 11.1491 57.7962 11.8693C57.3399 12.8149 57.6587 14.1398 56.7901 14.86C56.3008 15.2668 55.6521 15.3108 55.2178 15.8331C54.8605 16.2619 54.5911 16.7676 54.2228 17.18C53.4531 18.0321 53.3157 18.7193 53.1892 19.8243C53.1177 20.4675 52.7934 21.0503 52.7934 21.71C52.7934 22.782 52.7274 23.8155 53.5191 24.6567C53.8379 24.992 54.1293 25.3329 54.3822 25.7122C54.921 26.5149 55.4432 27.0756 56.4053 27.3725C56.8616 27.5154 57.2904 27.6639 57.6917 27.9222C58.6923 28.56 59.396 28.8678 60.6055 28.3456C60.8803 28.2246 61.1662 28.0817 61.4686 28.0487C62.2602 27.9662 63.4257 28.2191 64.025 27.5374C64.5582 26.9327 64.6572 26.3115 64.9705 25.6078C65.3554 24.7281 65.6028 24.1619 65.9051 23.1998C66.0096 22.8645 66.0701 22.5181 66.3559 22.2762C66.6583 22.0178 67.0926 21.8364 67.5214 21.644C67.9997 20.9513 68.5715 20.3026 69.3191 19.7034C69.6105 19.0821 69.8909 18.5379 70.4351 17.9331C71.4082 16.8611 71.9085 14.4697 71.1059 13.2987C70.4516 12.3421 70.3417 11.1711 69.9294 10.0991C69.8029 9.84068 69.6875 9.58229 69.5775 9.31291C69.3301 8.74666 69.1652 8.14742 69.0388 7.53719C68.6924 6.17379 68.3131 4.81039 67.4664 3.66139C67.439 3.62291 67.4115 3.58992 67.384 3.55144C61.694 1.26994 55.4982 0 49 0C26.0366 0 6.76758 15.7946 1.45691 37.1142C1.52838 38.8514 1.81975 40.4622 2.41349 41.6882C2.93026 42.7547 4.01329 43.2605 4.60153 44.2116C5.09631 45.0197 4.99186 46.0588 5.41517 46.7515C6.75658 48.9835 9.06557 48.2138 8.9941 45.4156C8.93913 43.4144 5.23375 35.0471 10.0881 35.1736C12.672 35.2395 12.1552 38.2962 12.694 39.896C13.7495 43.0241 14.5302 41.5288 16.7842 41.1055C18.0541 40.8691 21.5176 40.2918 22.5182 40.7701C24.4478 41.6992 25.245 44.2006 25.7398 46.1248C26.1356 47.6641 26.273 49 25.6573 50.4734C25.3054 51.32 24.9811 52.1501 24.7227 53.0297C24.3928 54.1512 23.9036 54.723 23.1064 55.5146C21.6495 56.9715 20.55 58.8517 18.7358 59.9017C18.1916 60.2151 17.224 60.8418 17.0426 61.485C16.7732 62.4526 17.4934 63.6841 18.0101 64.4317C18.7028 65.4268 18.8348 66.7792 19.7309 67.6038C20.6435 68.4395 21.6386 69.3301 22.1168 70.5011C22.6281 71.7545 22.6776 73.1894 23.013 74.4923C23.2164 75.284 23.4802 76.0536 23.9146 76.7463C25.4044 79.1103 28.4281 79.4072 30.2038 81.4303C31.6826 83.1125 32.1225 85.1466 33.7992 86.7684C35.6904 88.5936 36.7899 90.1879 38.0708 92.4969C38.0873 92.5299 38.1038 92.5629 38.1203 92.5959C38.3787 92.8598 38.6371 93.1181 38.8295 93.437C39.2638 94.1407 39.4562 95.0148 39.951 95.68C40.7207 96.7081 41.7762 96.84 42.8537 97.3293C43.1396 97.4612 43.431 97.5822 43.7224 97.7031C44.514 97.7856 45.3112 97.8626 46.1083 97.9065C45.7565 97.4887 45.3442 97.0709 45.0418 96.6311C44.0302 95.1577 43.2661 93.4315 42.9252 91.6778C42.6283 90.1604 42.6119 88.4727 43.0297 86.9718C43.486 85.3446 44.7229 84.0911 46.0204 83.0795C47.2628 82.112 48.8131 81.5897 49.9181 80.4462C50.6273 79.7095 51.1716 78.8244 51.6664 77.9338C52.1447 77.0707 52.4965 76.0371 53.0628 75.229C53.8599 74.091 54.855 73.0904 55.905 72.1833C56.6032 71.5786 57.4004 71.0453 57.9006 70.2537C59.2421 68.1371 59.1596 65.1464 57.6038 63.1783C56.988 62.4031 56.1964 61.7984 55.2563 61.474C54.7505 61.2981 54.2228 61.1936 53.7005 61.0617Z" fill="#29DABA"/>
<path d="M96.6585 37.576C95.9878 37.0207 95.8669 36.2566 95.2402 35.6958C94.5969 35.1186 93.8383 34.6898 93.3105 33.9861C92.6123 33.0515 91.6942 32.5017 90.952 31.6276C89.6106 30.0443 87.0488 30.5116 85.1796 30.5721C83.8657 30.6161 82.4968 30.6435 81.2653 31.1548C80.3142 31.5452 79.4841 32.1884 78.621 32.7381C77.9008 33.1944 77.0652 33.5793 76.4384 34.1675C76.0866 34.4974 75.8557 34.9317 75.4928 35.256C74.9871 35.7123 74.3329 35.9377 73.7721 36.2951C73.2168 36.6524 72.799 37.1197 72.3372 37.587C71.2377 38.703 70.1822 39.5386 69.3301 40.8801C68.8573 41.6167 68.1921 42.26 67.8842 43.0956C67.285 44.7339 67.9392 46.724 68.4669 48.2853C69.1431 50.2919 69.9733 53.0187 71.4466 54.613C72.2218 55.4542 72.81 54.7999 73.7116 54.5306C75.8337 53.8983 78.0162 54.9374 79.3467 56.5867C80.1108 57.5322 80.0613 58.1975 80.2098 59.319C80.3692 60.4954 81.2763 61.5565 80.9684 62.8044C80.7925 63.5026 80.4462 63.9534 80.5616 64.7121C80.7485 65.96 81.4192 67.098 81.6062 68.3515C81.7766 69.4675 81.5622 70.4186 80.8365 71.2872C80.3362 71.8809 79.7535 72.3592 79.5281 73.1289C79.1487 74.4208 80.2318 75.8062 79.748 76.9937C79.3631 77.9393 78.0107 78.0218 77.7469 79.0388C77.6259 79.5006 77.8568 79.9624 77.8238 80.4242C77.7908 80.9355 77.5379 81.1169 77.2741 81.5182C76.7958 82.2439 77.8183 83.5028 78.3406 83.8437C79.4786 84.5804 81.0399 84.6628 82.3043 84.2395C85.2016 83.2719 87.0927 79.825 88.8025 77.505C90.7816 74.8112 92.3924 71.9909 93.7503 68.9342C96.5376 62.6505 97.9945 55.8885 97.9945 49.0055C98 45.0637 97.5327 41.2429 96.6585 37.576Z" fill="#29DABA"/>
<path d="M79.7481 16.3663C79.7975 19.2965 78.8135 21.6495 76.576 23.5132C75.339 24.5412 73.2444 25.2944 74.223 27.4605C75.1081 29.4341 76.7024 28.6095 78.2472 28.0872C80.941 27.1801 83.6953 25.8057 86.2077 24.6677C87.6756 24.0025 88.1429 21.9739 88.9455 20.5995C86.3836 17.0041 83.3435 13.766 79.924 10.9842C79.847 12.7544 79.7206 14.4917 79.7481 16.3663Z" fill="#29DABA"/>
</svg>
