<svg width="31" height="36" viewBox="0 0 31 36" fill="none" xmlns="http://www.w3.org/2000/svg">
<path d="M15.6 34C23.1112 34 29.2 27.9112 29.2 20.4C29.2 12.8888 23.1112 6.80005 15.6 6.80005C8.0888 6.80005 2 12.8888 2 20.4C2 27.9112 8.0888 34 15.6 34Z" stroke="#1CB99C" stroke-width="3"/>
<path d="M11.6 2H19.6" stroke="#1CB99C" stroke-width="3" stroke-linecap="round" stroke-linejoin="round"/>
<path d="M12.4 20.4L15.6 14.8L18.8 20.4L15.6 26L12.4 20.4Z" stroke="#1CB99C" stroke-width="3" stroke-linecap="round" stroke-linejoin="round"/>
<path d="M2 20.4H5.2" stroke="#1CB99C" stroke-width="3" stroke-linecap="round" stroke-linejoin="round"/>
<path d="M26 20.4H29.2" stroke="#1CB99C" stroke-width="3" stroke-linecap="round" stroke-linejoin="round"/>
<path d="M15.6 6.80005V10" stroke="#1CB99C" stroke-width="3" stroke-linecap="round" stroke-linejoin="round"/>
<path d="M15.6 30.8V34" stroke="#1CB99C" stroke-width="3" stroke-linecap="round" stroke-linejoin="round"/>
<path d="M10.4 32.9705C12.0487 33.6524 13.8158 34.0023 15.6 34.0001C17.4416 34.0001 19.1984 33.6337 20.8 32.9705" stroke="#1CB99C" stroke-width="3" stroke-linecap="round" stroke-linejoin="round"/>
<path d="M3.02961 15.2C2.34765 16.8487 1.99777 18.6158 2.00001 20.3999C2.00001 22.2415 2.36641 23.9983 3.02961 25.5999" stroke="#1CB99C" stroke-width="3" stroke-linecap="round" stroke-linejoin="round"/>
<path d="M28.1704 15.2C28.8524 16.8487 29.2023 18.6158 29.2 20.3999C29.2 22.2415 28.8336 23.9983 28.1704 25.5999" stroke="#1CB99C" stroke-width="3" stroke-linecap="round" stroke-linejoin="round"/>
<path d="M10.0064 8.00006C11.7643 7.20659 13.6713 6.79747 15.6 6.80006C17.5936 6.80006 19.488 7.22886 21.1936 8.00006" stroke="#1CB99C" stroke-width="3" stroke-linecap="round" stroke-linejoin="round"/>
</svg>
