<svg width="368" height="212" viewBox="0 0 368 212" fill="none" xmlns="http://www.w3.org/2000/svg">
<path d="M367.122 190.116C365.094 202.718 354.117 212 341.215 212L266.879 211.962L201.751 211.936H199.801H185.854H184.059H170.757H168.484L149.938 211.923H146.671L131.548 211.911H129.288H127.441L101.38 211.898H96.8339L76.7002 211.885H75.5508H72.3997L41.3532 211.872C37.3884 211.872 33.5399 211.017 30.053 209.434C24.7709 207.033 20.3154 202.986 17.4742 197.738C15.4596 194.023 13.2899 189.656 11.1978 184.792C7.84001 176.991 4.63721 167.887 2.53215 157.967C0.85326 150.038 -0.141158 141.599 0.0396455 132.891C0.0654746 131.333 0.14296 129.75 0.246277 128.18C0.336678 126.814 0.465824 125.435 0.620799 124.056C1.12446 119.613 1.96391 115.144 3.19079 110.65C4.67596 105.198 6.74228 99.7461 9.48015 94.3198C12.7346 87.8721 16.9577 81.4882 22.3172 75.2575C25.21 71.8868 28.4387 68.5672 32.0289 65.3115C96.2657 6.89907 158.578 31.4642 167.489 31.4642C210.404 31.4642 200.034 4.67748 247.559 0.579041C348.073 -8.09025 333.118 83.4544 333.118 83.4544C333.118 83.4544 331.633 88.4849 331.181 90.3618C330.561 92.877 330.083 95.2646 329.747 97.5245C329.721 97.6904 329.696 97.8692 329.67 98.0352C329.579 98.6863 329.489 99.3375 329.424 99.9631C328.908 104.483 328.934 108.479 329.411 112.092C330.29 118.834 332.692 124.171 335.894 128.78C338.038 131.857 340.531 134.615 343.165 137.245C343.901 137.985 344.663 138.713 345.413 139.441C346.394 140.373 347.388 141.305 348.37 142.237C349.687 143.476 351.017 144.727 352.322 146.004C352.606 146.272 352.877 146.553 353.148 146.821C353.626 147.293 354.091 147.766 354.556 148.251C356.467 150.23 358.301 152.298 359.954 154.545C360.316 155.03 360.665 155.528 361.013 156.026C361.414 156.614 361.801 157.226 362.176 157.839C363.377 159.805 364.436 161.912 365.314 164.198C367.884 170.913 368.865 179.187 367.122 190.116Z" fill="#EBF3FA"/>
<path opacity="0.2" d="M186.423 156.588L159.535 172.394L48.8313 155.975L0.0273438 132.878C0.0531728 131.321 0.130661 129.737 0.233977 128.167C0.324378 126.801 0.453523 125.422 0.608497 124.043C1.11216 119.6 1.95161 115.131 3.17849 110.637C4.66366 105.185 6.72998 99.7333 9.46785 94.307C9.46785 94.307 42.3482 80.8115 48.8313 84.8589C55.3015 88.919 73.808 113.612 82.1378 112.386C90.4677 111.16 96.6279 100.308 107.734 115.948C118.841 131.589 125.001 137.168 135.178 131.18C145.354 125.192 150.598 116.651 159.225 121.834C167.864 127.018 186.423 156.588 186.423 156.588Z" fill="#80B4FF"/>
<path opacity="0.4" d="M343.153 137.232C318.732 145.34 241.193 170.722 222.906 172.267C201.133 174.093 198.072 156.282 198.072 156.282C198.072 156.282 222.429 121.528 225.515 122.141C228.602 122.754 237.009 136.402 240.251 134.117C243.492 131.831 257.039 85.344 262.218 84.8589C267.074 84.3992 274.19 95.4433 276.205 93.6048C277.328 92.5833 282.378 82.1521 287.595 73.087C291.754 65.8477 296.015 59.4894 298.456 59.4894C300.897 59.5021 304.242 64.7369 307.755 71.3889C313.695 82.599 320.14 97.8054 323.73 98.6353C325.499 99.0438 327.566 98.4054 329.761 97.4989C329.735 97.6649 329.709 97.8437 329.684 98.0096C329.593 98.6608 329.503 99.3119 329.438 99.9376C328.922 104.457 328.947 108.454 329.425 112.067C330.303 118.808 332.706 124.145 335.908 128.754C338.026 131.844 340.519 134.602 343.153 137.232Z" fill="#80B4FF"/>
<path opacity="0.4" d="M222.919 156.933C222.919 156.933 231.701 141.203 233.095 143.718C234.49 146.233 238.416 147.485 240.263 144.803C242.11 142.122 264.594 118.042 265.149 124.018C265.705 130.006 256.458 144.88 260.151 145.557C263.858 146.233 284.198 126.111 291.366 130.235C298.533 134.359 306.631 126.801 314.263 127.031C321.896 127.261 321.663 144.663 321.663 144.663L259.919 163.38L230.784 164.747L216.914 163.151L222.919 156.933Z" fill="#80B4FF"/>
<path d="M348.371 142.224C348.371 142.224 248.012 162.895 237.539 162.333C237.539 162.333 244.939 155.056 254.198 154.749C263.458 154.443 267.462 145.812 278.245 144.791C289.042 143.769 295.512 146.055 299.98 143.769C304.449 141.484 309.537 130.35 320.024 130.657C329.012 130.925 332.447 130.733 335.87 128.754C338.608 132.7 341.94 136.109 345.401 139.415C346.395 140.36 347.377 141.292 348.371 142.224Z" fill="#80B4FF"/>
<path d="M148.079 153.115L0.233887 128.167C0.233887 128.167 0.233887 128.167 0.233887 128.154C0.324288 126.788 0.453433 125.409 0.608407 124.03C1.11207 119.587 1.95152 115.118 3.1784 110.624C3.1784 110.624 18.947 107.483 26.5795 110.624C34.212 113.765 33.5146 118.796 39.5328 119.472C45.538 120.162 51.0008 119.587 55.5209 123.137C60.041 126.699 66.834 129.24 73.7175 128.831C80.6009 128.422 95.2976 126.801 101.058 131.372C106.817 135.943 118.221 145.901 128.088 145.748C137.954 145.595 143.43 148.187 145.044 150.472C146.607 152.694 147.989 153.09 148.079 153.115Z" fill="#AFCDFB"/>
<path d="M367.949 181.983C367.846 184.524 367.575 187.231 367.11 190.116C365.082 202.718 354.105 212 341.203 212L266.867 211.962L201.739 211.936H199.789H185.842H184.046H170.745H168.472L149.926 211.923H146.659L131.536 211.911H129.276H127.429L101.368 211.898H96.8219L75.5387 211.885H72.3876L41.3411 211.872C37.3764 211.872 33.5278 211.017 30.0409 209.434C24.7589 207.033 20.3034 202.986 17.4622 197.738C12.2318 188.06 5.94243 174.08 2.52008 157.967C1.8227 154.711 1.25446 151.366 0.828279 147.944C0.130895 142.339 -0.166138 136.543 0.092152 130.631C0.182554 128.448 0.363357 126.252 0.608733 124.043C15.1634 123.852 53.6099 124.962 99.366 139.339C157.843 157.712 211.774 169.522 251.086 159.92C283.785 151.928 324.401 142.046 348.358 142.237C349.675 143.476 351.005 144.727 352.31 146.004C352.594 146.272 352.865 146.553 353.136 146.821C353.614 147.293 354.079 147.766 354.544 148.251C356.455 150.23 358.289 152.298 359.942 154.545C360.304 155.03 360.652 155.528 361.001 156.026C361.402 156.614 361.789 157.226 362.163 157.839C363.365 159.805 364.424 161.912 365.302 164.198C367.2 169.139 368.233 174.922 367.949 181.983Z" fill="#BFE2A8"/>
<path opacity="0.8" d="M174.8 65.1072C174.8 65.1072 179.32 56.8848 190.116 57.7913C190.116 57.7913 205.795 44.0787 222.519 55.9655C222.519 55.9655 240.302 53.0161 253.462 58.519C262.244 62.1834 265.137 66.0265 265.137 66.0265L174.8 65.1072Z" fill="#F8FCFF"/>
<path opacity="0.8" d="M114.566 84.2077C114.566 84.2077 118.389 78.4239 127.545 79.0623C127.545 79.0623 140.835 69.4227 154.989 77.7728C154.989 77.7728 170.047 75.7044 181.192 79.5603C188.631 82.1394 191.085 84.8334 191.085 84.8334L114.566 84.2077Z" fill="#F8FCFF"/>
<path opacity="0.8" d="M67.1055 57.9317C67.1055 57.9317 69.8304 52.1479 76.3523 52.7863C76.3523 52.7863 85.8186 43.1467 95.9048 51.4968C95.9048 51.4968 106.624 49.4284 114.566 53.2843C119.861 55.8634 121.605 58.5573 121.605 58.5573L67.1055 57.9317Z" fill="#F8FCFF"/>
<path d="M158.54 159.576C158.54 159.576 101.148 153.128 77.9274 144.791C54.6942 136.453 53.0153 138.905 58.6332 143.322C64.251 147.74 96.6793 158.171 83.2482 159.359C69.8171 160.546 45.6282 157.06 36.5106 166.279C27.393 175.497 13.0708 183.796 36.5106 185.584C59.9504 187.371 128.384 174.667 128.384 174.667L158.54 159.576Z" fill="#DAED8E"/>
<path d="M221.821 149.579C221.821 149.579 230.151 169.394 231.068 170.007C231.998 170.62 235.394 171.386 235.627 172.305C235.859 173.224 241.18 185.341 241.18 185.341L220.827 189.222L204.645 179.851L221.821 149.579Z" fill="#A36F4B"/>
<path d="M341.203 212L279.794 211.974H266.867L201.739 211.949H199.789H185.841H184.046H170.744H168.471L149.926 211.936H146.659L131.536 211.923H129.276H127.429L101.367 211.911H96.8215L75.5384 211.898H72.3872L41.3407 211.885C37.376 211.885 33.5274 211.03 30.0405 209.446C46.6486 201.799 97.2218 178.906 137.334 164.849C186.048 147.778 213.801 138.637 221.821 149.604C229.841 160.584 200.551 183.745 216.578 184.358C232.618 184.971 271.154 180.093 285.645 182.838C300.109 185.571 298.598 191.048 302.575 191.367C302.588 191.367 302.601 191.367 302.601 191.367C306.605 191.674 337.445 189.542 341.151 195.032C344.858 200.483 341.203 212 341.203 212Z" fill="#D8A987"/>
<path opacity="0.8" d="M307.754 71.3889C307.754 71.3889 302.408 67.2649 301.181 66.0265C299.941 64.788 298.404 67.7756 297.475 69.0524C296.545 70.3292 296.441 66.3456 296.441 65.1327C296.441 63.907 287.582 73.087 287.582 73.087C291.741 65.8477 296.002 59.4894 298.443 59.4894C300.897 59.5021 304.229 64.7369 307.754 71.3889Z" fill="#F8FCFF"/>
<path d="M254.25 99.0566C254.25 99.0566 260.565 82.5096 263.858 83.0203C267.151 83.5311 271.645 91.0385 271.645 91.0385C271.645 91.0385 267.074 87.1699 266.221 88.4594C265.369 89.7489 265.214 92.3153 263.755 91.0385C262.295 89.7617 261.365 89.5702 260.591 91.0385C259.829 92.494 254.25 99.0566 254.25 99.0566Z" fill="#F8FCFF"/>
<path d="M91.8496 193.78C87.8461 198.658 63.1664 200.177 63.9413 203.688C64.5612 206.497 75.9647 208.527 76.6621 211.885H75.5127H72.3616L41.3151 211.872C37.3503 211.872 33.5018 211.017 30.0149 209.434C24.7328 207.033 20.2773 202.986 17.4361 197.738C15.4215 194.023 13.2518 189.656 11.1597 184.792C11.1597 184.792 21.685 174.31 47.5786 178.421C73.4851 182.519 77.0754 171.897 89.2021 175.203C101.342 178.51 104.467 175.689 108.935 178.421C113.404 181.153 91.9787 185.724 89.667 187.856C87.3811 189.963 95.866 188.903 91.8496 193.78Z" fill="#509B67"/>
<path d="M24.6815 179.481C24.6815 179.481 19.3866 166.955 24.3974 164.223C29.4082 161.491 23.8291 174.974 25.973 179.979C27.0319 182.468 24.6815 179.481 24.6815 179.481Z" fill="#509B67"/>
<path d="M22.2409 182.558C22.2409 182.558 15.719 174.642 18.7539 171.565C21.8018 168.488 20.6524 179.481 23.274 182.647C24.5784 184.192 22.2409 182.558 22.2409 182.558Z" fill="#509B67"/>
<path d="M27.0446 181.83C27.0446 181.83 26.4247 169.394 31.668 168.551C36.9113 167.696 27.742 177.68 28.0132 182.66C28.1424 185.124 27.0446 181.83 27.0446 181.83Z" fill="#509B67"/>
<path d="M45.3324 194.381C45.3324 194.381 44.6092 186.873 47.3729 186.235C50.1237 185.584 46.7659 194.049 46.7659 194.049L45.3324 194.381Z" fill="#82B378"/>
<path d="M47.3853 194.572C47.3853 194.572 50.3427 188.673 52.9901 189.49C55.6376 190.308 48.7671 194.993 48.7671 194.993L47.3853 194.572Z" fill="#82B378"/>
<path d="M41.6903 194.789C41.6903 194.789 44.6735 193.168 47.2435 193.563C49.8135 193.972 50.2268 194.381 51.3503 194.789C52.4868 195.198 53.8687 196.002 53.2488 196.36C52.6289 196.717 47.4889 196.053 46.262 196.36C45.0351 196.679 38.5779 195.913 41.6903 194.789Z" fill="#82B378"/>
<path d="M100.115 204.965C100.115 204.965 103.576 189.044 108.393 192.772C113.211 196.5 102.931 200.177 100.115 204.965Z" fill="#82B378"/>
<path d="M98.6948 205.833C98.6948 205.833 97.1192 194.266 100.309 193.691C103.512 193.129 98.7335 202.335 98.6948 205.833Z" fill="#82B378"/>
<path d="M95.4407 204.927C95.4407 204.927 98.2044 203.599 100.219 203.727C102.234 203.854 107.645 204.48 107.141 205.54C106.65 206.599 101.226 205.68 99.8574 205.859C98.4885 206.025 93.9555 205.923 95.4407 204.927Z" fill="#82B378"/>
<path d="M282.054 193.691C282.054 193.691 281.951 188.201 284.521 187.243C287.091 186.273 282.313 192.261 282.054 193.691Z" fill="#509B67"/>
<path d="M284.121 192.912C284.121 192.912 286.084 185.967 289.687 185.711C293.278 185.443 284.986 191.214 284.121 192.912Z" fill="#509B67"/>
<path d="M43.6011 169.164C44.6342 169.573 48.3278 169.241 48.444 168.947C48.5602 168.654 46.1452 165.87 45.1121 165.462C44.0789 165.053 42.9037 165.538 42.4775 166.56C42.0772 167.581 42.5679 168.756 43.6011 169.164Z" fill="#509B67"/>
<path d="M52.9257 170.913C52.3445 171.858 52.0863 175.51 52.3575 175.676C52.6287 175.842 55.7927 173.927 56.3739 172.995C56.955 172.05 56.658 170.824 55.7023 170.25C54.7466 169.662 53.5068 169.969 52.9257 170.913Z" fill="#509B67"/>
<path d="M47.9538 178.063C49.0128 178.395 52.6676 177.783 52.7709 177.489C52.8613 177.195 50.2397 174.591 49.1807 174.259C48.1217 173.927 46.9852 174.501 46.6365 175.548C46.2878 176.595 46.8819 177.731 47.9538 178.063Z" fill="#509B67"/>
<path d="M53.3265 181.613C53.3265 181.523 52.9133 173.25 48.3286 168.973L48.4319 168.871C53.0553 173.186 53.4686 181.523 53.4686 181.6L53.3265 181.613Z" fill="#509B67"/>
<path d="M82.6287 162.359C81.6213 163.023 77.6437 163.457 77.45 163.163C77.2562 162.883 79.2063 159.422 80.2137 158.759C81.221 158.095 82.577 158.376 83.2357 159.359C83.9072 160.355 83.636 161.695 82.6287 162.359Z" fill="#509B67"/>
<path d="M73.1495 166.189C73.9631 167.058 75.048 170.875 74.7897 171.105C74.5314 171.335 70.7733 169.994 69.9467 169.126C69.1331 168.258 69.1719 166.892 70.063 166.074C70.9541 165.257 72.3359 165.308 73.1495 166.189Z" fill="#509B67"/>
<path d="M79.9819 172.701C78.9358 173.288 74.9323 173.416 74.7644 173.122C74.5965 172.829 76.8049 169.522 77.8639 168.934C78.9229 168.347 80.2402 168.73 80.8342 169.764C81.4154 170.799 81.0409 172.114 79.9819 172.701Z" fill="#509B67"/>
<path d="M75.0609 177.591C75.048 177.502 73.6791 168.654 77.5922 163.151L77.463 163.061C73.5112 168.615 74.893 177.527 74.906 177.617L75.0609 177.591Z" fill="#509B67"/>
<path d="M62.8041 182.315L62.5071 182.264C61.3448 167.441 56.7731 156.805 56.7085 156.665L56.9797 156.55C57.0314 156.703 61.6548 167.402 62.8041 182.315Z" fill="#509B67"/>
<path d="M53.5966 155.184C54.1649 155.822 56.7994 156.831 56.9932 156.677C57.174 156.524 56.4895 153.805 55.9213 153.166C55.353 152.528 54.3844 152.477 53.7387 153.026C53.093 153.588 53.0413 154.545 53.5966 155.184Z" fill="white"/>
<path d="M57.6514 152.975C57.1477 153.651 56.6828 156.422 56.8765 156.562C57.0702 156.703 59.6273 155.477 60.1309 154.801C60.6346 154.124 60.5055 153.166 59.821 152.668C59.1236 152.158 58.155 152.298 57.6514 152.975Z" fill="white"/>
<path d="M60.6866 155.911C59.86 155.694 57.0834 156.282 57.0317 156.511C56.9672 156.741 59.0593 158.644 59.8858 158.861C60.7124 159.078 61.5518 158.605 61.7843 157.788C62.0038 156.984 61.5131 156.141 60.6866 155.911Z" fill="white"/>
<path d="M58.8136 159.588C58.7361 158.746 57.1993 156.396 56.9539 156.409C56.7085 156.435 55.6624 159.039 55.7399 159.882C55.8174 160.725 56.5794 161.338 57.4317 161.261C58.2841 161.172 58.904 160.418 58.8136 159.588Z" fill="white"/>
<path d="M54.6168 159.41C55.3658 159.014 56.993 156.716 56.8897 156.511C56.7735 156.294 53.9452 156.32 53.1833 156.716C52.4342 157.111 52.1372 158.031 52.5376 158.771C52.925 159.512 53.8548 159.793 54.6168 159.41Z" fill="white"/>
<path d="M56.3726 156.422C56.4114 156.154 56.6826 155.962 56.9538 156.001C57.225 156.039 57.4187 156.307 57.3799 156.575C57.3412 156.843 57.07 157.035 56.7988 156.997C56.5276 156.958 56.3339 156.703 56.3726 156.422Z" fill="#F99746"/>
<path d="M62.7141 167.16C61.8747 168.181 60.9707 172.458 61.2677 172.701C61.5648 172.943 65.6199 171.194 66.4593 170.173C67.2988 169.151 67.1438 167.658 66.1106 166.828C65.0775 165.985 63.5536 166.138 62.7141 167.16Z" fill="#509B67"/>
<path d="M89.7319 183.285L90.029 183.234C91.1913 168.411 95.763 157.775 95.8276 157.635L95.5564 157.52C95.4918 157.673 90.8813 168.385 89.7319 183.285Z" fill="#509B67"/>
<path d="M98.9266 156.154C98.3583 156.792 95.7238 157.801 95.5301 157.648C95.3493 157.494 96.0337 154.775 96.602 154.137C97.1702 153.498 98.1388 153.447 98.7845 153.996C99.4303 154.558 99.4948 155.515 98.9266 156.154Z" fill="white"/>
<path d="M94.8854 153.945C95.389 154.622 95.854 157.392 95.6603 157.533C95.4665 157.673 92.9095 156.448 92.4058 155.771C91.9022 155.094 92.0313 154.137 92.7158 153.639C93.4002 153.128 94.3688 153.268 94.8854 153.945Z" fill="white"/>
<path d="M91.8371 156.894C92.6637 156.677 95.4403 157.265 95.492 157.495C95.5565 157.724 93.4644 159.627 92.6379 159.844C91.8113 160.061 90.9719 159.588 90.7394 158.771C90.5328 157.954 91.0106 157.112 91.8371 156.894Z" fill="white"/>
<path d="M93.7097 160.559C93.7872 159.716 95.324 157.367 95.5694 157.392C95.8147 157.418 96.8608 160.023 96.7833 160.865C96.7058 161.708 95.9439 162.321 95.0915 162.244C94.2521 162.142 93.6322 161.401 93.7097 160.559Z" fill="white"/>
<path d="M97.9198 160.38C97.1707 159.984 95.5435 157.686 95.6468 157.482C95.763 157.265 98.5913 157.29 99.3533 157.686C100.102 158.082 100.399 159.001 99.999 159.742C99.6116 160.482 98.6817 160.776 97.9198 160.38Z" fill="white"/>
<path d="M96.1505 157.392C96.1117 157.124 95.8405 156.933 95.5693 156.971C95.2981 157.009 95.1044 157.277 95.1431 157.546C95.1819 157.814 95.4531 158.005 95.7243 157.967C96.0084 157.929 96.2021 157.673 96.1505 157.392Z" fill="#F99746"/>
<path d="M89.8097 168.143C90.6491 169.164 91.5532 173.441 91.2561 173.684C90.9591 173.927 86.9039 172.177 86.0645 171.156C85.225 170.135 85.38 168.641 86.4132 167.811C87.4592 166.968 88.9703 167.121 89.8097 168.143Z" fill="#509B67"/>
<path d="M258.279 178.753C259.635 179.34 264.543 179.046 264.711 178.663C264.879 178.28 261.792 174.501 260.436 173.901C259.08 173.314 257.505 173.914 256.898 175.254C256.291 176.595 256.923 178.166 258.279 178.753Z" fill="#509B67"/>
<path d="M270.561 181.447C269.747 182.673 269.256 187.511 269.605 187.741C269.954 187.971 274.241 185.571 275.042 184.345C275.856 183.119 275.507 181.472 274.267 180.681C273.027 179.864 271.361 180.221 270.561 181.447Z" fill="#509B67"/>
<path d="M263.664 190.729C265.059 191.214 269.928 190.55 270.07 190.154C270.212 189.759 266.841 186.222 265.447 185.724C264.052 185.239 262.515 185.967 262.024 187.346C261.533 188.737 262.27 190.244 263.664 190.729Z" fill="#509B67"/>
<path d="M270.652 195.645C270.652 195.53 270.445 184.537 264.543 178.689L264.672 178.561C270.626 184.473 270.832 195.53 270.832 195.645H270.652Z" fill="#509B67"/>
<path d="M279.756 195.976L279.498 195.938C278.478 182.966 274.474 173.658 274.422 173.531L274.655 173.429C274.719 173.556 278.749 182.928 279.756 195.976Z" fill="#509B67"/>
<path d="M271.71 172.216C272.2 172.765 274.512 173.658 274.68 173.518C274.835 173.378 274.228 171.003 273.737 170.441C273.246 169.879 272.394 169.841 271.826 170.326C271.27 170.824 271.206 171.667 271.71 172.216Z" fill="white"/>
<path d="M275.249 170.288C274.797 170.875 274.397 173.301 274.564 173.429C274.732 173.556 276.967 172.484 277.419 171.884C277.871 171.284 277.741 170.454 277.147 170.02C276.54 169.573 275.701 169.7 275.249 170.288Z" fill="white"/>
<path d="M277.909 172.867C277.186 172.675 274.758 173.186 274.706 173.39C274.654 173.595 276.475 175.254 277.199 175.446C277.922 175.638 278.658 175.216 278.865 174.514C279.058 173.799 278.632 173.058 277.909 172.867Z" fill="white"/>
<path d="M276.268 176.072C276.191 175.331 274.848 173.275 274.641 173.301C274.435 173.326 273.505 175.599 273.582 176.34C273.66 177.08 274.318 177.616 275.054 177.54C275.803 177.463 276.346 176.812 276.268 176.072Z" fill="white"/>
<path d="M272.588 175.918C273.247 175.574 274.667 173.569 274.577 173.378C274.487 173.186 271.994 173.212 271.336 173.556C270.677 173.901 270.419 174.705 270.767 175.357C271.116 176.008 271.93 176.263 272.588 175.918Z" fill="white"/>
<path d="M274.137 173.314C274.176 173.071 274.409 172.905 274.641 172.944C274.887 172.982 275.054 173.212 275.016 173.441C274.977 173.671 274.744 173.85 274.512 173.812C274.267 173.773 274.099 173.544 274.137 173.314Z" fill="#F99746"/>
<path d="M279.679 182.711C278.942 183.605 278.155 187.345 278.413 187.563C278.671 187.767 282.223 186.235 282.959 185.341C283.695 184.447 283.553 183.132 282.649 182.404C281.745 181.677 280.415 181.817 279.679 182.711Z" fill="#509B67"/>
<path d="M341.203 212L279.794 211.974C280.104 209.076 285.658 207.621 285.141 204.761C284.482 201.096 257.129 199.73 268.107 195.057C278.89 190.474 301.762 191.304 302.576 191.329C302.588 191.329 302.601 191.329 302.601 191.329C306.605 191.635 337.445 189.503 341.151 194.993C344.858 200.484 341.203 212 341.203 212Z" fill="#509B67"/>
<path d="M159.173 178.753C159.173 178.753 159.548 184.575 160.684 184.652C160.839 184.664 166.457 184.652 166.457 184.652L173.638 184.6C173.638 184.6 173.586 182.89 171.481 182.532C169.376 182.175 165.863 180.719 164.585 177.987C163.254 175.101 159.173 178.753 159.173 178.753Z" fill="#AF5919"/>
<path d="M195.708 173.824C195.708 173.824 196.806 179.557 197.943 179.493C198.098 179.481 203.677 178.791 203.677 178.791L210.793 177.859C210.793 177.859 210.534 176.174 208.403 176.072C206.273 175.969 202.605 174.961 201.003 172.394C199.312 169.7 195.708 173.824 195.708 173.824Z" fill="#AF5919"/>
<path d="M182.974 116.153C182.974 116.153 181.128 128.027 174.167 149.132C167.206 170.224 166.276 179.353 166.276 179.353L158.76 179.161C158.76 179.161 158.644 156.128 161.846 145.518C165.049 134.908 162.453 107.305 162.453 107.305L182.974 116.153Z" fill="#163560"/>
<path d="M185.015 105.377C185.015 105.377 195.243 125.805 197.852 141.982C200.461 158.158 202.501 172.956 202.501 172.956C202.501 172.956 199.983 173.876 195.269 174.271C195.269 174.271 187.301 150.791 186.449 144.944C185.596 139.096 161.846 115.718 163.693 109.947C165.566 104.164 185.015 105.377 185.015 105.377Z" fill="#1C468A"/>
<path d="M170.189 65.9754C170.189 65.9754 159.625 76.0108 159.122 80.1348C158.618 84.2588 164.249 90.7065 164.249 90.7065L170.189 65.9754Z" fill="#ED7D2B"/>
<path d="M172.01 66.0647L176.013 68.6438L181.786 67.5713C181.709 67.1117 181.321 65.1965 180.972 63.4729C180.947 63.3708 180.934 63.2686 180.908 63.1665C180.611 61.6982 180.353 60.4342 180.353 60.4342L174.954 58.0977L172.94 57.2295C172.94 57.255 173.095 58.8637 173.12 59.0936C173.495 63.2303 172.01 66.0647 172.01 66.0647Z" fill="#FFB27D"/>
<path d="M180.301 64.7369C180.185 64.6859 173.34 62.7069 172.604 62.9494C171.855 63.192 171.429 64.622 171.429 64.622L182.626 67.099C182.613 67.099 181.722 65.3243 180.301 64.7369Z" fill="#ED7D2B"/>
<path d="M161.976 110.165C163.151 115.399 182.458 115.974 187.417 111.211C187.985 110.675 187.998 108.147 187.779 104.751C187.353 98.1246 185.984 88.1402 185.919 83.0459C185.893 80.5817 185.545 78.0664 185.08 75.781C184.098 70.9037 182.613 67.0862 182.613 67.0862C182.613 67.0862 173.173 64.0985 171.416 64.6092C162.918 67.099 160.8 104.943 161.976 110.165Z" fill="#F99746"/>
<path d="M187.779 104.764C187.353 98.1373 187.107 87.1826 187.056 82.0755C187.03 79.6113 185.545 78.0664 185.093 75.781L179.423 74.7979C179.41 74.8106 173.909 97.218 187.779 104.764Z" fill="#ED7D2B"/>
<path d="M177.602 96.9116C177.602 96.9116 184.034 91.3576 186.436 87.8465L188.257 89.0595C188.257 89.0595 183.194 97.4479 178.352 99.6567C173.496 101.865 177.602 96.9116 177.602 96.9116Z" fill="#163560"/>
<path d="M173.522 59.1447C174.71 61.1237 179.127 62.8345 180.973 63.4601C180.948 63.358 180.935 63.2559 180.909 63.1537C180.612 61.6854 180.353 60.4214 180.353 60.4214L174.955 58.0849C173.754 58.0722 173.031 58.3403 173.522 59.1447Z" fill="#FCA56B"/>
<path d="M182.174 59.8469C182.174 59.8469 173.973 63.7666 171.597 58.6722C169.208 53.5907 166.547 50.6669 171.674 47.9601C176.801 45.2406 178.739 46.7216 179.953 48.2155C181.167 49.7348 184.24 58.6978 182.174 59.8469Z" fill="#FFB27D"/>
<path d="M179.539 47.7686C179.539 47.7686 179.926 54.0375 178.583 53.9609C177.253 53.8843 176.039 53.8588 176.517 55.6973C176.982 57.5359 179.1 59.4255 175.161 60.3448C171.222 61.2641 163.964 51.9309 164.765 49.8497C167.089 43.8106 183.09 40.3122 179.539 47.7686Z" fill="#163560"/>
<path d="M166.341 87.8976C166.341 87.8976 165.359 88.0125 165.269 88.9318C165.178 89.8383 164.559 100.946 165.127 101.24C165.695 101.534 168.02 101.419 168.162 101.24C168.291 101.061 168.807 88.8807 168.459 88.1529C168.459 88.1402 167.322 87.7061 166.341 87.8976Z" fill="#163560"/>
<path d="M187.831 100.563C187.831 100.563 189.187 101.559 189.471 102.632C189.936 104.381 189.639 106.002 187.908 106.666C187.275 106.909 187.185 105.415 186.707 104.764C186.229 104.125 184.55 103.768 184.938 102.785C185.325 101.802 186.074 99.8865 186.074 99.8865L187.831 100.563Z" fill="#FFB27D"/>
<path d="M185.583 101.138C185.583 101.138 184.511 102.3 184.408 103.053C184.292 103.806 184.253 104.955 184.227 105.453C184.202 105.951 184.46 106.36 184.912 105.555C185.364 104.751 185.777 103.679 186.087 103.679C186.397 103.679 185.583 101.138 185.583 101.138Z" fill="#FFB27D"/>
<path d="M178.171 65.7711C178.171 65.7711 184.886 66.9458 190.078 74.4659C195.257 81.9861 197.181 86.7996 196.238 89.5063C195.295 92.2131 190.569 100.64 189.613 101.776C188.799 102.746 186.436 102.683 184.886 102.019C184.886 102.019 187.883 89.4936 186.682 88.1402C186.165 87.5656 179.514 82.0117 178.468 84.7057C176.712 89.1616 178.171 65.7711 178.171 65.7711Z" fill="#F99746"/>
<path d="M183.905 68.3374C183.905 68.3374 182.807 66.4095 180.198 66.0265C177.59 65.6434 176.014 68.6439 176.014 68.6439L177.964 69.3716C177.964 69.3716 179.217 67.099 180.353 67.099C181.787 67.099 182.936 67.5714 183.905 68.3374Z" fill="#163560"/>
<path d="M179.681 77.5557C179.681 77.5557 176.969 77.5174 173.482 77.4408C167.361 77.3004 158.863 77.0322 158.644 76.5854C158.308 75.8959 158.76 68.2097 160.852 67.6607C161.033 67.6097 161.291 67.5714 161.614 67.5458C164.998 67.2266 175.329 67.8267 177.718 68.5928C180.327 69.4099 179.681 77.5557 179.681 77.5557Z" fill="#163560"/>
<path d="M173.482 77.4287C167.361 77.2883 158.863 77.0202 158.644 76.5733C158.308 75.8839 158.76 68.1977 160.852 67.6487C161.033 67.5976 161.291 67.5593 161.614 67.5338C165.618 67.6997 170.047 68.1083 171.507 68.5807C173.934 69.3595 173.547 76.4329 173.482 77.4287Z" fill="#1C468A"/>
<path d="M179.682 77.543C179.682 77.543 158.708 75.4874 155.067 76.6748C151.438 77.8749 151.438 102.338 152.574 104.023C153.711 105.709 174.322 107.266 177.241 106.373C180.159 105.492 179.682 77.543 179.682 77.543Z" fill="#1C468A"/>
<path d="M173.482 77.0067C173.482 77.0067 170.615 77.2621 170.344 79.2921C170.086 81.3094 168.265 105.913 169.918 106.564C171.558 107.215 178.403 106.947 178.803 106.564C179.203 106.181 180.676 79.1772 179.681 77.5557C179.681 77.5429 176.336 76.5854 173.482 77.0067Z" fill="#163560"/>
<path d="M160.477 70.3036C160.477 70.3036 159.806 73.7126 160.671 74.2361C161.536 74.7596 163.629 74.9 164.158 74.2999C164.675 73.6871 164.571 70.3803 164.571 70.3803L160.477 70.3036Z" fill="#163560"/>
<path d="M160.477 70.3037C160.477 70.3037 160.774 71.6826 162.401 71.7081C164.041 71.7336 164.558 70.3675 164.558 70.3675C164.558 70.3675 162.336 69.3844 160.477 70.3037Z" fill="#29589B"/>
<path d="M162.104 71.1718C162.104 71.0059 162.247 70.8782 162.414 70.8782C162.582 70.8782 162.711 71.0186 162.711 71.1846C162.711 71.3506 162.569 71.4783 162.402 71.4783C162.234 71.4783 162.104 71.3378 162.104 71.1718Z" fill="#F99746"/>
<path d="M166.651 70.725C166.651 70.725 165.76 74.0829 166.586 74.6575C167.413 75.232 169.505 75.5129 170.06 74.9383C170.615 74.3638 170.719 71.0442 170.719 71.0442L166.651 70.725Z" fill="#163560"/>
<path d="M166.65 70.725C166.65 70.725 166.857 72.1167 168.484 72.2571C170.111 72.3976 170.718 71.057 170.718 71.057C170.718 71.057 168.575 69.9206 166.65 70.725Z" fill="#29589B"/>
<path d="M168.226 71.6954C168.239 71.5294 168.381 71.4017 168.549 71.4145C168.717 71.4272 168.846 71.5677 168.833 71.7337C168.821 71.8996 168.678 72.0273 168.511 72.0146C168.343 72.0018 168.214 71.8613 168.226 71.6954Z" fill="#F99746"/>
<path d="M154.667 79.573C154.667 79.573 153.763 82.7394 154.266 83.5693C154.77 84.3992 166.303 84.961 167.039 84.2843C167.775 83.6076 167.891 79.9688 167.891 79.9688L154.667 79.573Z" fill="#163560"/>
<path d="M154.667 79.573C154.667 79.573 156.243 81.5393 160.22 81.5903C164.198 81.6414 167.891 79.9688 167.891 79.9688C167.891 79.9688 158.593 78.3345 154.667 79.573Z" fill="#29589B"/>
<path d="M159.949 81.1818C160.134 81.1818 160.285 81.0331 160.285 80.8498C160.285 80.6665 160.134 80.5178 159.949 80.5178C159.764 80.5178 159.613 80.6665 159.613 80.8498C159.613 81.0331 159.764 81.1818 159.949 81.1818Z" fill="#F99746"/>
<path d="M164.74 87.7699C164.74 87.7699 155.222 87.3741 154.666 87.7699C154.111 88.1657 153.904 101.138 154.331 101.763C154.757 102.389 164.378 102.695 164.378 102.695L164.74 87.7699Z" fill="#29589B"/>
<path d="M367.95 181.983C362.112 181.702 353.343 181.255 345.775 180.77C333.132 179.953 338.685 176.097 344.536 170.607C350.399 165.117 326.339 168.168 308.452 169.394C290.566 170.62 263.742 169.994 273.299 162.346C282.856 154.698 352.297 145.991 352.297 145.991C352.581 146.259 352.852 146.54 353.124 146.808C353.602 147.28 354.066 147.753 354.531 148.238C356.443 150.217 358.277 152.285 359.93 154.532C360.291 155.018 360.64 155.516 360.989 156.013C361.389 156.601 361.776 157.214 362.151 157.827C363.352 159.793 364.411 161.899 365.289 164.185C367.201 169.139 368.234 174.923 367.95 181.983Z" fill="#DAED8E"/>
<path d="M33.2824 140.118C27.4063 140.118 17.9142 140.424 20.807 142.25C23.6999 144.076 26.1665 146.821 16.2999 147.127C6.54941 147.434 0.957424 147.919 0.828279 147.932C0.130895 142.326 -0.166138 136.53 0.092152 130.618C0.092152 130.618 9.23562 128.039 14.7759 130.618C20.3292 133.198 24.3069 131.129 28.6332 133.861C32.9467 136.607 42.0514 136.913 43.8982 138.432C45.7579 139.977 39.1585 140.118 33.2824 140.118Z" fill="#82B378"/>
<path d="M260.268 202.807L260.707 195.542C260.707 195.542 257 192.504 256.484 192.287C255.954 192.082 247.973 190.869 247.973 190.869L248.322 197.7L250.827 202.667L260.268 202.807Z" fill="#EDC5A2"/>
<path d="M242.072 202.565C242.072 202.565 241.555 197.266 241.826 196.691C242.097 196.117 247.121 190.691 247.948 190.869C248.774 191.035 253.372 192.733 254.173 193.372C254.973 194.01 256.846 199.028 256.807 199.539C256.781 200.062 256.613 202.743 256.613 202.743L242.072 202.565Z" fill="#F9DDBF"/>
<path d="M247.896 204.505L247.947 201.39C247.96 200.905 247.728 200.432 247.327 200.139C246.475 199.5 245.029 198.441 244.745 198.339C244.499 198.249 242.097 197.968 240.328 197.764C239.359 197.649 238.52 198.453 238.61 199.424L238.868 202.245C238.881 202.45 238.946 202.654 239.049 202.846L240.431 205.322C240.715 205.82 241.245 206.127 241.826 206.114L246.372 205.999C247.211 205.986 247.883 205.335 247.896 204.505Z" fill="#EDC5A2"/>
<path d="M235.886 206.293C235.085 206.319 234.4 205.731 234.31 204.94C234.168 203.778 234.026 202.271 234.129 202.016C234.31 201.582 239.14 197.7 239.76 197.803C240.38 197.905 242.498 198.76 243.105 199.207C243.712 199.654 245.236 203.28 245.236 203.663L245.223 204.57C245.21 205.387 244.551 206.051 243.725 206.063L235.886 206.293Z" fill="#F9DDBF"/>
<path d="M120.52 185.711L120.468 183.068C120.455 182.66 120.649 182.264 120.984 182.009C121.708 181.472 122.935 180.566 123.167 180.489C123.374 180.413 125.414 180.17 126.899 180.004C127.726 179.915 128.423 180.591 128.346 181.409L128.126 183.796C128.113 183.975 128.062 184.141 127.971 184.307L126.809 186.401C126.576 186.822 126.124 187.077 125.634 187.065L121.785 186.975C121.101 186.963 120.532 186.401 120.52 185.711Z" fill="#EDC5A2"/>
<path d="M130.684 187.218C131.355 187.231 131.936 186.746 132.014 186.082C132.13 185.099 132.259 183.835 132.169 183.605C132.014 183.235 127.933 179.966 127.403 180.043C126.874 180.119 125.092 180.847 124.575 181.23C124.058 181.613 122.767 184.677 122.78 184.997L122.793 185.763C122.806 186.452 123.361 187.014 124.058 187.027L130.684 187.218Z" fill="#F9DDBF"/>
<path d="M109.607 187.652L109.581 186.222C109.581 185.992 109.684 185.788 109.865 185.647C110.253 185.354 110.924 184.869 111.053 184.817C111.17 184.779 112.267 184.652 113.081 184.549C113.533 184.498 113.907 184.869 113.869 185.315L113.752 186.618C113.74 186.72 113.714 186.809 113.662 186.899L113.029 188.035C112.9 188.265 112.655 188.405 112.383 188.392L110.291 188.341C109.917 188.329 109.62 188.035 109.607 187.652Z" fill="#EDC5A2"/>
<path d="M115.135 188.469C115.509 188.482 115.819 188.214 115.858 187.844C115.922 187.307 115.987 186.618 115.935 186.503C115.845 186.299 113.624 184.524 113.352 184.562C113.068 184.613 112.087 184.996 111.815 185.201C111.531 185.405 110.834 187.078 110.834 187.256L110.847 187.678C110.86 188.048 111.157 188.354 111.531 188.367L115.135 188.469Z" fill="#F9DDBF"/>
<path d="M218.038 192.312L218.012 190.882C218.012 190.652 218.115 190.448 218.296 190.308C218.683 190.014 219.355 189.529 219.484 189.478C219.6 189.439 220.698 189.312 221.512 189.21C221.964 189.159 222.338 189.529 222.299 189.976L222.183 191.278C222.17 191.38 222.144 191.469 222.093 191.559L221.46 192.695C221.331 192.925 221.085 193.065 220.814 193.053L218.722 193.002C218.347 193.002 218.038 192.695 218.038 192.312Z" fill="#EDC5A2"/>
<path d="M223.552 193.142C223.913 193.155 224.236 192.887 224.275 192.517C224.339 191.98 224.404 191.291 224.352 191.176C224.262 190.972 222.041 189.197 221.769 189.235C221.498 189.274 220.504 189.669 220.233 189.874C219.961 190.078 219.251 191.751 219.251 191.929L219.264 192.351C219.277 192.721 219.574 193.027 219.948 193.04L223.552 193.142Z" fill="#F9DDBF"/>
<path d="M80.4335 207.442L80.4077 206.012C80.4077 205.782 80.511 205.578 80.6918 205.437C81.0793 205.144 81.7508 204.659 81.88 204.607C81.9962 204.569 83.094 204.442 83.9076 204.339C84.3596 204.288 84.7341 204.659 84.6954 205.105L84.5791 206.408C84.5662 206.51 84.5404 206.599 84.4887 206.689L83.8559 207.825C83.7268 208.055 83.4814 208.195 83.2102 208.182L81.118 208.131C80.7435 208.119 80.4465 207.812 80.4335 207.442Z" fill="#EDC5A2"/>
<path d="M85.9607 208.259C86.3223 208.272 86.6452 208.004 86.6839 207.634C86.7485 207.097 86.813 206.408 86.7614 206.293C86.671 206.089 84.4497 204.314 84.1785 204.352C83.8944 204.403 82.9129 204.786 82.6417 204.991C82.3575 205.195 81.6602 206.868 81.6602 207.046L81.6731 207.468C81.686 207.838 81.983 208.144 82.3575 208.157L85.9607 208.259Z" fill="#F9DDBF"/>
<path d="M113.895 183.464L113.882 182.468C113.882 182.315 113.947 182.162 114.076 182.072C114.347 181.868 114.812 181.523 114.903 181.498C114.98 181.472 115.755 181.383 116.323 181.319C116.633 181.281 116.904 181.536 116.878 181.855L116.801 182.762C116.801 182.826 116.775 182.89 116.736 182.953L116.297 183.745C116.207 183.911 116.039 184 115.845 184L114.386 183.962C114.115 183.936 113.895 183.719 113.895 183.464Z" fill="#EDC5A2"/>
<path d="M117.743 184.039C118.002 184.051 118.221 183.86 118.247 183.605C118.286 183.234 118.338 182.749 118.299 182.673C118.234 182.532 116.697 181.294 116.491 181.319C116.297 181.345 115.613 181.626 115.419 181.766C115.225 181.906 114.734 183.068 114.734 183.196V183.49C114.734 183.745 114.954 183.962 115.212 183.975L117.743 184.039Z" fill="#F9DDBF"/>
</svg>
