<svg width="48" height="47" viewBox="0 0 48 47" fill="none" xmlns="http://www.w3.org/2000/svg">
<ellipse cx="24" cy="23.5" rx="16" ry="16.5" fill="#3FBDF0"/>
<path d="M35.9746 33.2989C38.7316 39.179 42.1292 19.9032 41.0275 18.7298C39.9257 17.5563 36.2196 21.269 37.0488 18.5943C37.8779 15.9196 34.8013 9.31114 29.8085 7.23735C22.2754 4.10848 17.5883 6.7485 14.627 8.8598C11.6657 10.9711 17.7251 20.5289 20.1026 21.1641C23.8557 22.1669 16.2539 17.7395 22.4792 13.8319C30.2609 8.94742 36.4371 19.8398 34.6314 20.7439C32.2715 21.9254 28.6734 22.3127 28.4723 22.852C28.2711 23.3913 33.2176 27.4187 35.9746 33.2989Z" fill="#147C6A"/>
<path d="M12.2762 13.6248C9.63782 7.69047 5.85379 26.8942 6.93177 28.0895C8.00975 29.2848 11.7897 25.6474 10.907 28.3049C10.0242 30.9624 12.9675 37.6313 17.9177 39.8049C25.3865 43.0844 30.1256 40.539 33.1287 38.4876C36.1319 36.4362 30.2655 26.7587 27.9013 26.0758C24.1691 24.9979 31.6805 29.577 25.3779 33.3588C17.4997 38.0861 11.5435 27.0719 13.367 26.2042C15.7501 25.0703 19.3553 24.7554 19.5672 24.2202C19.7792 23.6851 14.9145 19.5591 12.2762 13.6248Z" fill="#147C6A"/>
</svg>
