<svg width="27" height="30" viewBox="0 0 27 30" fill="none" xmlns="http://www.w3.org/2000/svg">
<path d="M3 30H24C24.7956 30 25.5587 29.6839 26.1213 29.1214C26.6839 28.5588 27 27.7957 27 27.0001V13.5007C27.0011 13.3033 26.9633 13.1076 26.8886 12.9248C26.814 12.7421 26.704 12.5759 26.565 12.4357L14.565 0.436172C14.2839 0.156806 13.9038 0 13.5075 0C13.1112 0 12.731 0.156806 12.45 0.436172L0.449999 12.4357C0.308267 12.5746 0.195513 12.7403 0.118268 12.9231C0.0410229 13.1059 0.000823874 13.3022 0 13.5007V27.0001C0 27.7957 0.31607 28.5588 0.878679 29.1214C1.44129 29.6839 2.20435 30 3 30ZM10.5 27.0001V19.5004H16.5V27.0001H10.5ZM3 14.1156L13.5 3.61605L24 14.1156V27.0001H19.5V19.5004C19.5 18.7048 19.1839 17.9418 18.6213 17.3792C18.0587 16.8166 17.2956 16.5005 16.5 16.5005H10.5C9.70434 16.5005 8.94128 16.8166 8.37867 17.3792C7.81606 17.9418 7.49999 18.7048 7.49999 19.5004V27.0001H3V14.1156Z" fill="#1CB99C"/>
</svg>
