<svg width="368" height="212" viewBox="0 0 368 212" fill="none" xmlns="http://www.w3.org/2000/svg">
<path d="M357.399 93.7794C382.934 134.084 356.401 189.387 339.943 212.001H29.7269C19.2534 212.001 7.78235 207.012 0.800018 179.577C-6.18234 152.142 34.7143 140.669 40.2004 123.709C45.6866 106.749 38.7042 93.7794 34.7143 62.3535C30.7244 30.9276 43.1929 11.9724 100.049 1.9959C156.906 -7.98057 164.885 27.9347 189.324 32.4241C213.762 36.9135 251.666 27.9347 260.643 27.9347C269.621 27.9347 325.48 43.3983 357.399 93.7794Z" fill="#F3EDED" fill-opacity="0.74"/>
<path d="M257.092 73.5108C251.79 75.4536 247.695 79.6017 244.44 84.0124C242.445 86.6903 238.77 90.9959 237.09 95.039C237.877 95.354 238.612 95.6691 239.295 95.9841C252.84 102.758 269.797 105.278 282.029 94.4089C287.751 89.3156 291.689 82.3846 294.471 75.3486C295.259 73.3533 296.151 68.4701 297.464 64.532C293.421 67.84 286.911 70.5179 284.181 71.0955C275.309 73.0383 265.597 70.4129 257.092 73.5108Z" fill="#59A1A0"/>
<path d="M287.121 88.7906C286.754 88.528 286.334 88.213 285.861 87.7929C280.401 83.1722 279.561 91.3109 274.784 92.5186C269.902 93.7263 268.589 86.2702 263.234 90.2083C261.764 91.3109 259.927 94.4089 258.299 94.7239C256.304 95.0915 254.887 92.0461 252.997 91.5735C250.74 90.9959 245.805 93.7788 241.447 97.0343C254.572 103.02 270.427 104.753 282.029 94.4614C283.919 92.7287 285.599 90.8384 287.121 88.7906Z" fill="#0D134F"/>
<path d="M294.682 88.213C292.897 86.6378 290.114 88.6331 288.329 89.2107C285.809 89.9983 285.022 89.5782 282.869 87.7404C277.409 83.1198 276.569 91.2585 271.792 92.4661C266.91 93.6738 265.597 86.2177 260.242 90.1558C258.772 91.2585 256.935 94.3564 255.307 94.6715C253.312 95.039 251.895 91.9936 250.005 91.521C247.117 90.7859 239.768 95.5641 234.99 99.7647C238.508 103.388 242.655 106.066 246.592 108.586C249.375 110.371 252.84 113.259 255.99 113.364C257.145 113.364 260.032 112.892 260.767 111.579C261.607 110.109 260.767 107.903 260.925 106.118C264.547 106.433 266.595 109.321 270.007 110.424C272.002 111.106 274.732 111.054 276.464 109.426C278.407 107.641 277.672 103.44 279.509 102.338C280.927 101.497 283.709 104.49 285.127 104.543C288.172 104.595 288.434 102.18 289.484 99.3447C290.639 96.1942 291.374 96.6143 293.579 94.5665C295.259 92.9912 296.991 90.3133 294.682 88.213Z" fill="#3D9190"/>
<path d="M259.035 85.01C255.15 86.0077 251.58 87.4254 248.43 88.8431C245.28 90.3133 242.498 91.836 240.24 93.2012C237.983 94.5664 236.25 95.7741 235.043 96.6667C233.835 97.5594 233.205 98.0319 233.153 97.9794C233.1 97.9269 233.678 97.3493 234.833 96.4042C235.988 95.4591 237.668 94.1464 239.925 92.6762C242.13 91.2059 244.912 89.6307 248.062 88.108C251.212 86.5853 254.887 85.1675 258.825 84.1174C262.762 83.0672 266.647 82.8047 270.112 82.4371C271.844 82.2796 273.472 82.0696 274.994 81.8071C276.517 81.5445 277.882 81.177 279.142 80.7569C279.772 80.5469 280.349 80.2843 280.874 80.0743C281.399 79.8118 281.924 79.6017 282.397 79.3392C282.869 79.0767 283.289 78.8666 283.657 78.6566C284.024 78.394 284.392 78.184 284.707 78.0265C285.914 77.2389 286.597 76.7138 286.649 76.7663C286.702 76.8188 286.072 77.3964 284.917 78.289C284.602 78.4991 284.287 78.7616 283.919 79.0241C283.552 79.2867 283.132 79.5492 282.659 79.8118C282.187 80.0743 281.714 80.3368 281.137 80.5994C280.612 80.8619 279.982 81.1245 279.404 81.3345C278.144 81.8071 276.727 82.2271 275.204 82.5422C273.682 82.8572 272.002 83.0672 270.269 83.2773C266.7 83.6973 262.867 84.0124 259.035 85.01Z" fill="#3D9190"/>
<path d="M255.465 101.287C250.845 101.392 246.435 101.13 242.445 100.815C240.45 100.657 238.56 100.447 236.828 100.29C235.935 100.237 235.095 100.185 234.308 100.185C233.888 100.185 233.52 100.185 233.1 100.185C232.89 100.185 232.733 100.185 232.523 100.185C232.313 100.185 232.155 100.237 231.945 100.237C228.953 100.447 226.643 101.235 225.068 101.813C223.493 102.443 222.653 102.81 222.601 102.705C222.601 102.653 223.388 102.18 224.911 101.445C226.433 100.762 228.795 99.8697 231.84 99.5547C232.05 99.5547 232.208 99.5022 232.418 99.5022C232.628 99.5022 232.785 99.5022 232.995 99.4497C233.415 99.4497 233.783 99.3971 234.203 99.3971C235.043 99.3971 235.883 99.3971 236.775 99.4497C238.56 99.6072 240.45 99.7122 242.445 99.8697C246.435 100.132 250.793 100.342 255.36 100.237C259.927 100.185 264.285 99.8172 268.222 99.2396C272.16 98.662 275.624 97.8744 278.512 97.0343C279.247 96.8243 279.929 96.6142 280.559 96.4042C281.189 96.1942 281.819 96.0366 282.344 95.8266C283.447 95.4066 284.444 95.0915 285.232 94.7765C286.807 94.1464 287.647 93.8313 287.699 93.8838C287.752 93.9363 286.912 94.3564 285.389 95.144C284.654 95.5116 283.657 95.8791 282.554 96.3517C282.029 96.6142 281.399 96.7718 280.769 97.0343C280.139 97.2443 279.457 97.5069 278.722 97.7169C275.834 98.662 272.317 99.5022 268.38 100.132C264.495 100.815 260.085 101.235 255.465 101.287Z" fill="#59A1A0"/>
<path d="M113.035 62.7467C102.168 62.5892 91.878 65.7397 81.3257 68.1025C82.1657 69.5202 82.9532 70.9905 83.6356 71.8306C88.413 77.6064 93.1904 83.2773 99.9103 86.7953C105.423 89.6832 111.985 93.5163 118.39 93.2537C124.69 92.9387 131.252 91.6785 136.975 89.3157C137.815 89.0006 139.442 87.8979 141.332 86.4277C135.977 76.3988 122.327 62.9043 113.035 62.7467Z" fill="#59A1A0"/>
<path d="M141.384 86.3752C140.807 85.2726 140.124 84.1699 139.337 83.0147C138.129 82.8047 136.922 82.5947 135.715 82.2796C132.46 81.492 129.415 79.8118 126.107 79.0241C121.487 77.9215 114.505 76.8713 110.463 80.0743C103.218 85.7976 115.502 86.0077 114.977 89.5782C114.767 91.0484 112.405 91.521 110.515 91.731C113.087 92.6236 115.765 93.2537 118.39 93.0962C124.69 92.7812 131.252 91.521 136.975 89.1581C137.867 88.9481 139.494 87.8454 141.384 86.3752Z" fill="#0D134F"/>
<path d="M119.86 79.9168C127.787 82.4372 134.979 84.59 140.229 85.9552C141.542 86.3227 142.749 86.5853 143.799 86.8478C144.849 87.1103 145.742 87.3204 146.476 87.5304C147.946 87.898 148.786 88.1605 148.734 88.213C148.734 88.2655 147.894 88.1605 146.371 87.898C145.637 87.7404 144.692 87.5829 143.642 87.3729C142.592 87.1629 141.384 86.9528 140.019 86.5853C134.717 85.3251 127.472 83.2773 119.545 80.7569C111.617 78.2365 104.477 75.9262 99.28 74.2985C97.9675 73.8784 96.8125 73.5633 95.7625 73.2483C94.7126 72.9333 93.8201 72.6707 93.0851 72.4607C91.6151 71.9881 90.8276 71.7256 90.8276 71.6731C90.8276 71.6206 91.6676 71.7781 93.1376 72.1456C93.8726 72.3032 94.7651 72.5657 95.815 72.7757C96.865 73.0383 98.0725 73.3008 99.385 73.7209C104.74 75.1386 111.932 77.3964 119.86 79.9168Z" fill="#3D9190"/>
<path d="M141.542 80.9144C139.599 80.6519 137.709 80.3368 135.767 79.8643C132.512 79.0767 129.467 77.3964 126.16 76.6088C121.54 75.5061 114.557 74.456 110.515 77.6589C103.27 83.3823 115.555 83.5923 115.03 87.1628C114.767 89.2106 110.2 89.2632 108.625 89.6307C106.052 90.2083 104.267 90.8384 102.063 92.4661C100.383 93.7263 97.8626 95.4066 97.7051 97.6644C97.4426 100.342 99.4376 100.605 101.17 101.97C105.947 105.698 98.7551 108.586 96.3926 112.157C93.0852 117.145 95.5002 123.183 101.695 119.35C105.37 117.092 110.357 110.739 114.715 110.844C115.082 111.841 115.45 112.839 116.027 113.732C120.07 119.403 123.64 112.209 125.267 108.323C125.95 106.748 127.314 102.863 129.782 103.283C131.514 103.598 132.669 107.483 134.454 108.428C142.014 112.472 142.277 90.8909 141.542 80.9144Z" fill="#3D9190"/>
<path d="M128.049 90.7859C131.724 88.7381 135.347 87.0578 138.707 85.5876C140.387 84.905 141.962 84.2224 143.484 83.6448C145.007 83.0673 146.424 82.5422 147.737 82.0696C149.049 81.597 150.204 81.2295 151.254 80.9144C152.304 80.5469 153.196 80.2843 153.931 80.0743C155.401 79.6542 156.241 79.4442 156.241 79.4967C156.241 79.5492 155.454 79.8643 154.036 80.3894C153.301 80.6519 152.409 80.9669 151.412 81.3345C150.414 81.7021 149.207 82.1221 147.947 82.6472C146.687 83.1198 145.269 83.6973 143.799 84.2749C142.277 84.8525 140.702 85.5876 139.074 86.2702C135.767 87.7404 132.197 89.4732 128.522 91.521C124.9 93.5688 121.54 95.6691 118.547 97.7694C117.812 98.2945 117.077 98.8196 116.395 99.3447C115.712 99.8172 115.082 100.395 114.4 100.867C113.77 101.392 113.14 101.813 112.562 102.338C111.985 102.81 111.46 103.283 110.935 103.703C109.885 104.543 108.992 105.436 108.152 106.171C107.312 106.906 106.682 107.536 106.105 108.061C105.002 109.111 104.372 109.689 104.32 109.636C104.267 109.584 104.792 108.954 105.842 107.798C106.367 107.221 106.997 106.538 107.785 105.751C108.572 104.963 109.412 104.07 110.462 103.178C110.987 102.705 111.512 102.233 112.09 101.707C112.667 101.182 113.245 100.71 113.875 100.185C114.505 99.6597 115.135 99.1346 115.817 98.6095C116.5 98.0845 117.235 97.5594 117.97 97.0343C121.015 95.039 124.375 92.8337 128.049 90.7859Z" fill="#59A1A0"/>
<path d="M129.73 158.941C129.73 162.826 157.974 165.977 192.781 165.977C227.588 165.977 255.832 162.826 255.832 158.941C255.832 156.736 246.54 154.74 232.103 153.428H153.459C138.97 154.688 129.73 156.683 129.73 158.941Z" fill="#B8D8D8"/>
<path d="M286.859 56.1833C285.441 56.9709 283.919 56.8134 282.396 56.7609C279.404 56.7084 276.464 56.0258 273.366 55.8157C267.014 55.3432 262.027 59.9113 259.454 65.4246C265.386 64.8996 270.164 69.4152 276.516 69.5202C283.656 69.6778 286.229 62.0116 287.279 55.8682C287.121 56.0258 287.016 56.1308 286.859 56.1833Z" fill="#136E6B"/>
<path d="M261.922 64.0069C259.717 65.3721 257.827 67.1049 255.937 68.4176C254.047 69.7303 252.052 70.6754 250.267 70.8854C249.374 70.9905 248.587 70.9905 247.852 70.9379C247.484 70.8854 247.169 70.8329 246.907 70.7804C246.644 70.7279 246.329 70.7279 246.119 70.6754C245.857 70.6229 245.647 70.5704 245.489 70.4654C245.332 70.4129 245.174 70.3079 245.069 70.2553C244.859 70.0978 244.754 70.0453 244.754 69.9928C244.754 69.9928 244.912 69.9928 245.122 70.0978C245.227 70.1503 245.384 70.2028 245.542 70.2553C245.699 70.3079 245.909 70.3604 246.172 70.3604C246.434 70.4129 246.644 70.3604 246.959 70.4129C247.274 70.4654 247.537 70.4654 247.904 70.5179C248.587 70.5704 249.374 70.5179 250.214 70.3604C251.894 70.0978 253.732 69.2052 255.569 67.84C257.407 66.5273 259.297 64.7945 261.554 63.3243C262.709 62.5892 263.916 62.0116 265.176 61.6966C266.436 61.329 267.696 61.3815 268.904 61.4866C270.059 61.6441 271.161 61.8541 272.159 62.1166C273.156 62.3267 274.101 62.5367 274.941 62.6417C276.621 62.9043 278.039 62.7467 278.931 62.4317C279.824 62.1166 280.244 61.7491 280.296 61.8016C280.296 61.8016 280.191 61.9066 280.034 62.0641C279.824 62.2217 279.509 62.4317 279.036 62.6417C278.564 62.8518 277.986 63.0618 277.304 63.1143C276.621 63.2193 275.781 63.2193 274.889 63.1143C273.104 62.9568 271.109 62.3792 268.851 62.1166C267.749 62.0116 266.541 62.0116 265.386 62.3267C264.179 62.7467 263.024 63.3243 261.922 64.0069Z" fill="#3D9190"/>
<path d="M285.914 35.6002C279.509 33.9725 271.686 35.6002 266.804 39.9059C264.389 42.0062 262.552 44.3165 260.924 46.8894C260.714 47.2045 260.399 47.6245 260.032 48.0971C269.114 51.9827 279.141 49.7248 285.284 41.6386C286.019 40.641 287.541 38.6457 289.274 36.9129C288.224 36.3879 287.121 35.9153 285.914 35.6002Z" fill="#136E6B"/>
<path d="M266.804 39.9059C266.069 40.536 265.387 41.2186 264.757 41.9012C269.482 42.5313 274.207 43.3714 277.987 39.9584C279.614 38.5407 280.822 36.7554 282.134 35.0227C276.674 34.7076 270.794 36.4404 266.804 39.9059Z" fill="#0D134F"/>
<path d="M272.421 23.996C267.907 24.5211 263.549 27.0415 261.134 30.8745C259.507 33.4999 257.669 37.9631 257.512 41.5336C263.864 41.3236 270.794 44.5791 275.991 39.9584C279.141 37.123 280.926 33.0274 284.234 30.2445C284.864 29.6669 286.019 29.2993 287.279 29.1418C286.071 28.0916 284.916 27.0415 284.024 26.5164C281.031 24.6786 275.939 23.6285 272.421 23.996Z" fill="#136E6B"/>
<path d="M259.402 38.4882C259.612 38.2256 259.822 38.0156 260.032 37.7531C260.242 37.543 260.504 37.2805 260.714 37.0705C260.924 36.8604 261.187 36.6504 261.397 36.3879C261.607 36.1778 261.869 35.9678 262.079 35.7578C262.552 35.3377 263.024 34.9702 263.444 34.6026C263.917 34.235 264.389 33.92 264.862 33.5524C265.334 33.1849 265.807 32.9224 266.227 32.6598C266.699 32.3973 267.119 32.0822 267.592 31.8722C268.064 31.6622 268.484 31.4521 268.904 31.2421C269.114 31.1371 269.324 31.0321 269.534 30.9796C269.744 30.8746 269.954 30.822 270.164 30.717C270.584 30.5595 270.952 30.402 271.319 30.297C271.687 30.192 272.002 30.0344 272.369 29.9294C273.052 29.7719 273.577 29.6144 274.049 29.5094C274.994 29.3518 275.519 29.2993 275.519 29.3518C275.519 29.4043 274.994 29.5619 274.102 29.7719C273.629 29.8769 273.104 30.0869 272.474 30.297C272.159 30.402 271.844 30.5595 271.477 30.6645C271.109 30.822 270.742 30.9271 270.374 31.1371C268.799 31.7672 267.067 32.7648 265.282 34.0775C264.862 34.3926 264.389 34.7601 263.917 35.0752C263.497 35.4427 263.024 35.8628 262.552 36.2303C262.342 36.4404 262.079 36.6504 261.869 36.8604C261.659 37.0705 261.449 37.2805 261.187 37.4905C260.977 37.7006 260.714 37.9106 260.504 38.1731C260.294 38.3832 260.084 38.6457 259.874 38.8557C259.454 39.3283 259.034 39.8009 258.614 40.2734C258.247 40.746 257.827 41.2186 257.459 41.6911C257.092 42.1637 256.777 42.6363 256.41 43.1089C256.095 43.5814 255.78 44.054 255.465 44.5266C254.205 46.3643 252.945 47.9921 251.737 49.1998C250.53 50.4074 249.322 51.195 248.482 51.6151C248.272 51.7201 248.062 51.8251 247.905 51.8776C247.747 51.9302 247.59 51.9827 247.485 52.0352C247.222 52.1402 247.117 52.1402 247.117 52.1402C247.117 52.1402 247.222 52.0352 247.432 51.9302C247.537 51.8776 247.695 51.7726 247.852 51.7201C248.01 51.6151 248.167 51.5101 248.377 51.4051C249.165 50.88 250.267 50.0924 251.422 48.8847C252.577 47.677 253.732 46.0493 254.992 44.2115C255.307 43.7389 255.622 43.2664 255.937 42.7938C256.252 42.3212 256.619 41.7962 256.987 41.3236C257.354 40.7985 257.774 40.3259 258.142 39.8534C258.509 39.4333 258.929 38.9607 259.402 38.4882Z" fill="#3D9190"/>
<path d="M265.964 46.1543C263.917 46.7844 261.974 47.467 260.242 48.2546C258.562 48.9897 257.197 49.9874 256.2 50.9325C255.202 51.8776 254.52 52.8228 254.047 53.4529C253.627 54.1355 253.365 54.503 253.312 54.4505C253.26 54.4505 253.417 54.0305 253.785 53.2954C254.205 52.6128 254.835 51.6151 255.832 50.565C256.83 49.5148 258.247 48.4646 259.979 47.6245C261.712 46.7844 263.654 46.1018 265.754 45.4717C267.854 44.8416 269.797 44.264 271.582 43.6864C273.367 43.1089 274.889 42.4788 276.149 41.7962C278.669 40.536 279.982 39.3808 280.087 39.4858C280.139 39.5383 279.824 39.8534 279.194 40.3785C278.879 40.641 278.512 40.9035 278.039 41.2711C277.829 41.4286 277.567 41.5861 277.252 41.7437C276.989 41.9012 276.674 42.1112 276.359 42.2687C275.099 43.0038 273.524 43.6864 271.739 44.3165C270.007 44.9466 268.012 45.5242 265.964 46.1543Z" fill="#3D9190"/>
<path d="M116.657 15.7523C113.507 15.2798 110.252 15.3848 107.155 14.7547C106.42 14.5972 104.793 14.0196 103.27 13.1794C101.433 19.3228 101.013 26.1489 105.055 30.4545C111.775 37.7006 122.695 35.3902 129.939 41.1661C130.359 39.2233 130.937 37.333 131.147 35.7053C132.407 24.6786 127.892 17.3801 116.657 15.7523Z" fill="#106E6D"/>
<path d="M128.47 36.2303C128.68 36.6504 128.838 37.018 129.048 37.438C129.205 37.8581 129.363 38.2256 129.52 38.6457C129.678 39.0658 129.835 39.4333 129.94 39.8534C130.098 40.2734 130.203 40.641 130.36 41.0611C130.833 42.6363 131.253 44.159 131.725 45.6292C132.145 47.0469 132.67 48.3596 133.247 49.5673C133.405 49.8823 133.562 50.1449 133.72 50.4074C133.877 50.67 134.035 50.985 134.192 51.195C134.35 51.4576 134.56 51.6676 134.717 51.9302C134.822 52.0352 134.875 52.1927 134.98 52.2977C135.085 52.4027 135.19 52.5077 135.242 52.6128C135.452 52.8228 135.61 53.0328 135.767 53.2428C135.872 53.3479 135.925 53.4529 136.03 53.5579C136.135 53.6629 136.24 53.7154 136.292 53.8204C136.66 54.188 137.027 54.503 137.342 54.8181C138.077 55.3432 138.655 55.8682 139.18 56.2358C140.23 56.9184 140.807 57.3384 140.807 57.391C140.807 57.4435 140.177 57.1284 139.022 56.4983C138.445 56.1833 137.815 55.7107 137.08 55.1856C136.712 54.8706 136.345 54.5555 135.977 54.2405C135.872 54.1355 135.767 54.083 135.662 53.978C135.557 53.8729 135.452 53.7679 135.4 53.6629C135.19 53.4529 135.032 53.2428 134.822 53.0328C134.717 52.9278 134.612 52.8228 134.507 52.7178C134.402 52.6128 134.35 52.4552 134.245 52.3502C134.087 52.0877 133.877 51.8776 133.667 51.6151C133.457 51.3526 133.3 51.09 133.142 50.775C132.985 50.5124 132.775 50.1974 132.617 49.8823C131.988 48.6747 131.463 47.3095 130.99 45.8393C130.518 44.369 130.098 42.8463 129.573 41.3236C129.468 40.956 129.31 40.536 129.153 40.1684C128.995 39.8009 128.89 39.3808 128.733 39.0133C128.575 38.6457 128.418 38.2256 128.26 37.8581C128.103 37.4905 127.893 37.0705 127.735 36.7029C127.578 36.2828 127.368 35.9153 127.158 35.5477C126.948 35.1802 126.79 34.8126 126.528 34.4451C126.265 34.13 126.055 33.7625 125.845 33.4474C125.583 33.1324 125.32 32.8698 125.058 32.5548C123.903 31.4521 122.643 30.5595 121.33 29.8244C120.018 29.0893 118.758 28.4592 117.55 27.9341C116.343 27.3565 115.188 26.8315 114.138 26.3589C112.09 25.3612 110.463 24.3111 109.518 23.5235C108.993 23.1559 108.678 22.7359 108.415 22.5258C108.206 22.2633 108.048 22.1583 108.101 22.1058C108.101 22.1058 108.258 22.2108 108.52 22.3683C108.783 22.5783 109.15 22.8934 109.675 23.2609C110.673 23.996 112.3 24.9412 114.348 25.8863C115.398 26.3589 116.553 26.8315 117.76 27.409C118.968 27.9341 120.333 28.5117 121.645 29.2993C122.958 30.0344 124.323 30.9271 125.583 32.1347C125.845 32.4498 126.16 32.7648 126.475 33.0799C126.738 33.4474 127 33.7625 127.263 34.13C127.525 34.4976 127.683 34.8651 127.893 35.2852C128.05 35.4427 128.313 35.8103 128.47 36.2303Z" fill="#3D9190"/>
<path d="M103.637 53.0853C99.7525 55.1331 97.075 59.4913 93.6626 62.3792C99.7525 64.322 105.737 69.1527 111.932 68.7326C115.292 68.5226 118.232 66.6323 120.49 64.1645C121.592 62.9568 122.327 61.3815 123.534 60.1739C123.954 59.7538 124.532 59.3862 125.109 59.0712C119.545 53.4004 110.252 49.5673 103.637 53.0853Z" fill="#106E6D"/>
<path d="M103.637 53.0853C103.217 53.2953 102.745 53.6104 102.325 53.8729C106.892 56.7609 112.509 57.8635 118.389 56.6558C119.124 56.4983 120.227 56.2883 121.539 56.0257C116.079 52.1927 108.992 50.2499 103.637 53.0853Z" fill="#0D134F"/>
<path d="M119.702 58.1786C122.379 58.2311 124.952 58.6511 127.209 58.9662C129.467 59.2812 131.514 59.5438 133.247 59.5438C134.979 59.5963 136.397 59.4387 137.342 59.3337C138.287 59.1762 138.864 59.1237 138.864 59.1762C138.864 59.2287 138.339 59.3862 137.394 59.5963C136.449 59.8063 135.032 60.0163 133.247 60.0163C131.462 60.0688 129.414 59.8588 127.104 59.5963C124.794 59.3337 122.327 58.9662 119.649 58.8612C119.334 58.8612 119.019 58.8612 118.652 58.8612C118.337 58.8612 118.022 58.8612 117.707 58.9137C117.077 58.9662 116.447 59.0187 115.817 59.0712C115.187 59.1762 114.609 59.2812 114.032 59.3337C113.455 59.4387 112.877 59.5438 112.3 59.6488C110.042 60.1213 108.047 60.5939 106.262 60.8565C105.842 60.909 105.422 61.014 105.002 61.0665C104.582 61.119 104.215 61.119 103.9 61.1715C103.532 61.224 103.217 61.224 102.955 61.224C102.64 61.224 102.377 61.224 102.115 61.224C101.117 61.1715 100.592 61.1715 100.592 61.119C100.592 60.9615 102.745 61.0665 106.157 60.3839C107.837 60.0688 109.832 59.4913 112.142 59.0187C112.72 58.9137 113.297 58.7561 113.875 58.6511C114.452 58.5461 115.082 58.4411 115.712 58.3361C116.342 58.2836 116.972 58.2311 117.654 58.1786C117.969 58.1261 118.337 58.1786 118.652 58.1261C119.019 58.1786 119.334 58.1786 119.702 58.1786Z" fill="#3D9190"/>
<path d="M124.112 50.9325C120.175 45.2092 112.878 41.1661 106.053 41.1661C102.693 41.1661 99.648 41.7436 96.603 42.6363C96.2355 42.7413 95.7106 42.8463 95.0806 42.9513C99.5955 52.2452 109.098 57.391 119.545 55.2381C120.805 54.9756 123.377 54.398 125.95 54.2405C125.425 53.1378 124.847 51.9827 124.112 50.9325Z" fill="#106E6D"/>
<path d="M122.17 51.09C124.48 52.5077 126.422 54.2405 128.259 55.6582C130.044 57.1284 131.777 58.2836 133.299 59.0712C134.822 59.8588 136.187 60.2264 137.132 60.5414C138.077 60.7514 138.602 60.909 138.602 60.9615C138.602 61.014 138.077 60.9615 137.079 60.8565C136.134 60.6464 134.664 60.3314 133.037 59.5963C131.409 58.8612 129.624 57.706 127.787 56.2358C125.95 54.8181 124.007 53.1378 121.75 51.7726C119.545 50.3549 117.13 49.4623 114.925 48.8322C112.72 48.2021 110.62 47.887 108.94 47.467C108.52 47.362 108.1 47.257 107.732 47.2044C107.365 47.0994 106.997 46.9944 106.63 46.9419C105.947 46.7844 105.37 46.5744 104.897 46.4168C103.952 46.1018 103.48 45.8918 103.48 45.8392C103.532 45.7342 105.58 46.4168 109.045 46.9944C110.777 47.3095 112.825 47.6245 115.135 48.2021C117.392 48.7272 119.912 49.5673 122.17 51.09Z" fill="#3D9190"/>
<path d="M171.572 119.665L169.052 118.037C168.317 122.763 172.097 128.749 175.194 132.057C177.714 134.735 180.811 136.468 183.909 138.148C184.014 136.52 184.014 134.735 183.909 133.107C177.872 130.797 173.567 125.441 171.572 119.665Z" fill="#DEA900"/>
<path d="M179.656 135.68C181.021 136.573 182.439 137.36 183.856 138.148C183.961 136.52 183.961 134.735 183.856 133.107C182.439 132.582 181.179 131.847 179.971 131.059C179.971 132.425 179.971 134.157 179.656 135.68Z" fill="#AA8100"/>
<path d="M210.421 116.777C208.531 116.935 208.058 125.546 207.428 127.436C206.273 130.902 204.488 134.472 201.758 136.888L202.283 141.036C205.381 137.99 208.321 133.842 209.581 129.589C210.788 125.441 210.631 121.24 210.421 116.777Z" fill="#DEA900"/>
<path d="M206.483 133.37C206.115 132.792 205.905 132.162 205.695 131.584C204.646 133.58 203.386 135.47 201.706 136.94L202.231 141.088C204.121 139.198 206.01 136.888 207.428 134.42C207.06 134.052 206.693 133.737 206.483 133.37Z" fill="#AA8100"/>
<path d="M217.928 160.831C216.458 160.726 215.198 160.359 213.833 160.044C213.466 159.939 213.151 159.834 212.783 159.729C211.576 159.361 210.368 158.888 209.108 158.678C208.373 158.521 207.586 158.416 206.693 158.468C205.276 158.521 204.226 158.468 203.491 159.886C203.438 159.991 203.386 160.096 203.333 160.201C203.228 160.464 203.123 160.726 203.071 160.936C202.861 161.776 202.913 162.091 201.233 161.881C198.188 161.461 195.354 159.834 192.204 159.571C191.206 159.519 189.894 159.413 188.791 159.676C188.371 159.781 188.004 159.939 187.689 160.149C187.584 160.201 187.531 160.306 187.426 160.411C186.744 161.251 186.534 162.879 185.694 163.299C183.699 164.244 181.914 159.886 180.286 159.413C178.239 158.836 174.721 162.301 172.674 162.932C171.309 163.352 170.837 163.299 170.574 162.669C170.469 162.354 170.364 161.934 170.312 161.356C170.312 161.251 170.259 161.199 170.259 161.094C169.944 159.886 168.579 159.256 167.162 159.098C168.632 158.573 170.049 157.838 171.414 156.631C175.036 153.428 177.976 150.067 179.499 145.446C181.704 138.725 182.176 131.637 182.281 124.338C182.964 124.496 183.594 124.653 184.276 124.758C184.801 124.863 185.379 124.916 185.904 125.021C187.584 125.231 189.264 125.283 190.944 125.336C191.521 125.336 192.151 125.336 192.729 125.336C194.251 125.336 195.826 125.283 197.401 125.283C197.978 125.283 198.608 125.231 199.238 125.126C199.763 125.073 200.288 124.968 200.866 124.863C201.916 124.653 202.913 124.443 203.858 124.338C204.016 131.059 204.698 139.198 206.746 145.446C208.268 150.067 211.208 153.428 214.778 156.631C215.618 157.366 216.511 157.943 217.403 158.416C217.928 159.203 218.348 160.044 217.928 160.831Z" fill="#DEA900"/>
<path d="M186.271 132.372C186.271 134.63 186.114 136.783 185.904 138.725C185.799 139.723 185.694 140.616 185.484 141.508C185.326 142.348 185.169 143.189 185.011 143.871C184.276 146.759 183.489 148.439 183.279 148.334C183.016 148.229 183.384 146.497 183.751 143.609C183.856 142.874 183.961 142.086 184.014 141.246C184.119 140.406 184.171 139.513 184.224 138.568C184.329 136.678 184.381 134.577 184.434 132.372C184.434 129.642 184.434 127.069 184.434 124.811C184.959 124.916 185.536 124.968 186.061 125.073C186.219 127.226 186.271 129.694 186.271 132.372Z" fill="#AA8100"/>
<path d="M202.073 143.451C201.863 143.556 201.128 142.296 200.498 140.091C200.183 138.988 199.921 137.623 199.658 136.153C199.448 134.63 199.343 133.002 199.238 131.269C199.186 129.064 199.291 126.964 199.448 125.178C199.973 125.126 200.498 125.021 201.076 124.916C201.076 126.754 201.076 128.959 201.128 131.269C201.181 132.95 201.233 134.577 201.338 136.048C201.443 137.518 201.601 138.83 201.758 139.881C202.021 141.981 202.283 143.346 202.073 143.451Z" fill="#AA8100"/>
<path d="M203.438 160.201C203.333 160.464 203.228 160.726 203.176 160.936C202.703 160.516 201.916 159.676 201.128 158.416C200.971 158.153 200.813 157.891 200.603 157.628C200.446 157.366 200.288 157.051 200.131 156.736C199.763 156.105 199.501 155.423 199.133 154.688C198.503 153.218 197.978 151.59 197.506 149.805C197.086 148.019 196.771 146.339 196.613 144.764C196.456 143.189 196.351 141.771 196.403 140.616C196.403 138.253 196.666 136.783 196.928 136.783C197.191 136.783 197.401 138.253 197.716 140.511C197.873 141.666 198.083 143.031 198.293 144.501C198.556 145.971 198.871 147.652 199.291 149.332C199.711 151.012 200.183 152.587 200.708 154.005C200.971 154.688 201.233 155.37 201.496 156C201.601 156.316 201.758 156.631 201.863 156.893C201.968 157.156 202.126 157.418 202.231 157.681C202.703 158.836 203.123 159.624 203.438 160.201Z" fill="#AA8100"/>
<path d="M190.891 151.537C190.418 154.583 189.736 157.313 189.053 159.203C189.001 159.361 188.948 159.518 188.896 159.676C188.476 159.781 188.108 159.939 187.793 160.149C187.688 160.201 187.636 160.306 187.531 160.411C187.583 159.991 187.688 159.466 187.793 158.888C188.108 156.946 188.633 154.268 189.053 151.275C189.893 145.341 190.261 140.406 190.838 140.406C191.101 140.406 191.311 141.666 191.363 143.661C191.416 145.709 191.311 148.492 190.891 151.537Z" fill="#AA8100"/>
<path d="M180.076 153.585C179.131 155.108 177.609 157.051 175.666 158.888C173.934 160.516 172.201 161.776 170.784 162.669C170.679 162.354 170.574 161.934 170.521 161.356C170.521 161.251 170.469 161.199 170.469 161.094C171.624 160.096 172.989 158.888 174.406 157.576C176.296 155.79 177.871 154.058 179.079 152.798C180.234 151.537 181.021 150.75 181.231 150.907C181.389 151.012 180.969 152.062 180.076 153.585Z" fill="#AA8100"/>
<path d="M212.783 159.729C211.576 159.361 210.368 158.888 209.108 158.678C208.531 158.153 207.953 157.628 207.376 156.998C205.591 155.055 204.488 152.85 203.858 151.222C203.333 149.595 203.176 148.544 203.438 148.439C203.701 148.334 204.278 149.227 205.066 150.645C205.958 152.01 207.113 153.9 208.741 155.738C210.211 157.261 211.681 158.626 212.783 159.729Z" fill="#AA8100"/>
<path d="M192.938 127.384C192.938 132.897 192.518 137.36 191.993 137.36C191.468 137.36 191.048 132.897 191.048 127.384C191.048 126.649 191.048 125.966 191.048 125.283C191.626 125.283 192.256 125.283 192.833 125.283C192.938 126.019 192.938 126.701 192.938 127.384Z" fill="#AA8100"/>
<path d="M203.858 128.749C203.963 128.749 204.068 128.749 204.173 128.696C204.068 127.174 204.016 125.704 204.016 124.338C203.071 124.443 202.073 124.653 201.023 124.863C200.498 124.968 199.973 125.073 199.396 125.126C198.766 125.231 198.136 125.283 197.558 125.283C195.931 125.283 194.408 125.283 192.886 125.336C192.309 125.336 191.679 125.336 191.101 125.336C189.421 125.336 187.741 125.231 186.061 125.021C185.536 124.968 184.959 124.863 184.434 124.758C183.804 124.653 183.121 124.496 182.439 124.338C182.439 125.283 182.386 126.229 182.386 127.174C187.321 128.381 192.466 129.064 197.768 129.064C199.816 129.064 201.863 128.959 203.858 128.749Z" fill="#AA8100"/>
<path d="M255.78 63.2198C255.78 86.9533 242.655 107.641 223.283 118.405C215.933 122.501 207.691 125.126 198.871 125.967C196.876 126.177 194.829 126.282 192.729 126.282C187.321 126.282 182.124 125.599 177.136 124.339C171.939 123.026 166.952 121.031 162.384 118.51C158.499 116.358 154.877 113.837 151.57 111.002C138.182 99.4501 129.73 82.3326 129.73 63.2723C129.73 55.5537 131.095 48.1501 133.667 41.3241C134.875 38.0161 136.397 34.8656 138.077 31.8727C145.847 18.3782 158.499 7.98167 173.619 3.20347C178.396 1.68074 183.436 0.683095 188.686 0.368049C190.051 0.263033 191.416 0.210526 192.781 0.210526C219.871 0.210526 243.023 17.328 251.895 41.3241C254.415 48.0976 255.78 55.5012 255.78 63.2198Z" fill="#3FBDF0"/>
<path d="M251.895 41.2711C250.635 42.5838 248.955 43.2664 246.802 42.3212C243.967 41.1136 244.282 36.9129 242.393 35.9678C236.513 32.9749 242.078 49.1997 236.46 49.1997C232.838 49.1997 234.15 44.054 234.308 41.9537C234.57 37.7531 233.048 37.7531 231.158 34.3401C229.53 31.3996 230.318 30.0869 226.328 28.6692C222.443 27.304 220.71 28.9318 218.033 31.5046C218.768 34.025 222.863 35.3902 222.548 38.4882C222.18 41.4811 218.086 43.2139 215.566 42.3212C213.256 41.5336 211.943 38.5932 209.686 37.8056C206.326 36.5979 203.648 38.6457 206.273 41.9012C207.796 43.7915 210.683 44.159 211.996 46.4693C212.626 47.572 211.733 48.8322 212.836 49.8823C213.728 50.7225 215.513 50.3024 216.511 50.7225C219.24 51.8776 219.87 53.3479 219.345 56.5508C218.768 60.2264 216.983 60.2264 214.831 62.7467C211.838 66.2122 213.728 67.735 215.303 71.148C216.721 74.351 216.458 78.6041 215.461 81.9121C214.463 85.2726 210.998 86.8478 209.686 89.8932C208.478 92.6761 209.686 97.1918 207.481 99.6072C205.171 102.128 200.551 101.025 198.136 99.1871C195.511 97.0868 195.406 93.6213 193.674 90.9434C191.626 87.7929 188.109 85.2201 186.796 81.5445C185.746 78.6566 186.586 74.561 182.281 74.1934C181.284 72.3032 182.439 70.0978 181.861 67.9975C180.969 64.742 179.814 65.6872 177.451 64.532C175.614 63.6394 174.931 61.6966 172.516 61.7491C169.314 61.8016 168.054 65.5822 165.167 66.3173C154.142 69.0477 155.769 51.4576 157.449 45.7867C159.234 39.6959 165.219 32.5548 171.466 32.1872C174.511 32.0297 176.559 31.0846 179.446 31.7672C181.756 32.2923 184.539 34.5501 187.111 33.4999C188.686 32.8698 188.844 31.0846 190.261 30.4545C191.469 29.9294 192.676 30.507 194.094 30.4545C196.876 30.3495 201.548 27.7766 197.243 26.2539C195.826 25.7813 194.461 27.199 193.149 26.5164C192.309 26.0963 192.624 24.3636 191.626 23.8385C188.634 22.3158 188.686 27.304 185.169 25.5188C183.909 24.8887 184.749 22.8934 182.649 22.7884C181.074 22.7358 180.706 24.7836 179.446 25.1512C178.134 25.5188 176.506 24.6786 174.984 25.0987C173.776 25.4663 172.726 26.8315 171.519 27.304C168.999 28.3017 165.429 28.9843 166.532 25.5713C167.372 22.9459 171.939 21.6857 173.829 19.9004C176.034 17.8001 176.821 17.5901 179.761 16.4349C182.176 15.4898 185.221 14.4396 183.594 11.3417C182.386 11.1316 180.916 11.1841 179.814 11.6042C178.554 12.0768 179.236 14.8597 177.031 13.442C174.144 11.6567 179.079 9.13635 180.181 8.19121C182.071 6.61597 182.911 4.83071 185.746 5.35579C188.056 5.77585 188.581 8.66378 191.259 7.40359C190.944 5.25077 189.264 2.62539 188.739 0.157523C190.104 0.0525077 191.469 0 192.834 0C219.87 0.157523 242.97 17.275 251.895 41.2711Z" fill="#29DABA"/>
<path d="M154.352 108.323C153.617 109.321 152.672 110.214 151.517 111.001C138.13 99.4496 129.678 82.3321 129.678 63.2718C129.678 55.5532 131.043 48.1496 133.615 41.3236C135.085 42.2687 136.345 43.5814 136.975 45.2617C138.288 48.5696 135.505 52.9803 137.553 55.9732C138.97 58.021 141.175 57.1284 142.855 58.6511C144.902 60.4364 143.957 62.3792 144.64 64.637C145.69 67.9975 147.107 66.8948 148.997 69.1527C150.677 71.0955 149.417 73.3533 150.1 75.4536C151.307 78.9716 157.397 81.597 155.297 86.1652C149.785 86.2177 152.567 92.2561 153.88 94.934C155.822 98.5045 157.135 104.595 154.352 108.323Z" fill="#29DABA"/>
<path d="M173.462 5.88087C172.674 9.39889 170.312 9.66143 167.844 11.3417C164.274 13.757 166.427 15.5948 164.537 18.4827C163.172 20.583 160.074 20.3205 158.447 21.8432C156.19 23.9435 157.45 26.6214 155.665 28.7742C153.722 31.1371 150.257 31.0846 148.735 28.5117C146.32 28.1441 145.06 31.3996 142.54 31.9247C140.965 32.2923 139.442 32.1872 138.025 31.8197C145.795 18.3252 158.447 7.92867 173.567 3.15047C173.724 3.93808 173.724 4.83071 173.462 5.88087Z" fill="#29DABA"/>
<path d="M223.283 118.405C215.934 122.501 207.691 125.126 198.872 125.966C196.877 126.176 194.829 126.281 192.729 126.281C187.322 126.281 182.124 125.599 177.137 124.338C171.94 123.026 166.952 121.03 162.385 118.51C164.905 111.789 170.417 107.063 178.659 109.374C181.442 110.161 184.067 112.419 187.059 112.262C190.682 111.999 191.994 108.376 195.407 107.326C200.026 105.856 201.024 107.903 204.804 109.846C208.426 111.684 208.899 108.954 212.416 108.428C216.879 107.746 219.819 111.684 221.814 115.097C222.391 116.095 222.864 117.25 223.283 118.405Z" fill="#29DABA"/>
<path opacity="0.5" d="M251.894 41.2711C249.689 35.2852 246.54 29.6669 242.707 24.7311C243.757 29.2993 244.335 34.0775 244.335 38.9607C244.335 62.6942 231.21 83.3823 211.838 94.1464C204.488 98.242 196.246 100.867 187.426 101.707C185.431 101.918 183.383 102.023 181.283 102.023C175.876 102.023 170.679 101.34 165.691 100.08C160.494 98.767 155.506 96.7718 150.939 94.2514C147.054 92.0986 143.432 89.5782 140.124 86.7428C136.922 83.9599 133.982 80.8619 131.357 77.5014C134.402 90.7859 141.647 102.443 151.622 111.001C154.929 113.889 158.551 116.41 162.436 118.51C167.056 121.03 171.991 123.026 177.188 124.338C182.176 125.598 187.426 126.281 192.781 126.281C194.881 126.281 196.928 126.176 198.923 125.966C207.69 125.126 215.985 122.448 223.335 118.405C242.655 107.641 255.779 86.9528 255.779 63.2193C255.779 55.5007 254.414 48.0971 251.894 41.2711Z" fill="#3FBDF0"/>
<path opacity="0.4" d="M190.103 9.97647C181.073 2.41536 162.121 10.0815 147.789 27.199C133.457 44.264 129.152 64.2695 138.182 71.8306C147.212 79.3917 166.164 71.7256 180.496 54.608C194.828 37.543 199.133 17.5376 190.103 9.97647Z" fill="white"/>
<path d="M306.069 164.755C313.752 164.755 319.981 163.885 319.981 162.812C319.981 161.739 313.752 160.87 306.069 160.87C298.385 160.87 292.157 161.739 292.157 162.812C292.157 163.885 298.385 164.755 306.069 164.755Z" fill="#B8D8D8"/>
<path d="M283.441 95.6549C283.441 95.6549 281.656 92.767 279.504 94.1322C279.504 94.1322 279.819 96.3375 281.814 96.7576L282.444 96.9676L283.441 95.6549Z" fill="#F09474"/>
<path d="M282.444 96.9676L290.266 105.421L299.611 107.784L302.131 104.109L292.261 102.428L283.441 95.6549L282.444 96.9676Z" fill="#255298"/>
<path d="M299.454 101.483C299.454 101.483 300.819 102.848 301.659 104.319L304.494 103.006L303.077 100.643L300.609 99.5405L299.454 101.483Z" fill="#FDB18D"/>
<path d="M302.761 100.538L302.604 100.486L300.504 100.328L300.031 100.486L299.401 101.483C299.401 101.483 299.926 102.008 300.556 102.796L302.761 100.538Z" fill="#F09474"/>
<path d="M304.179 99.1729C304.179 99.1729 306.384 92.7145 300.504 91.9794C300.504 91.9794 296.881 91.1393 295.779 97.1251C295.621 97.9128 295.464 98.3328 295.254 99.4355L295.989 99.383C295.989 99.383 296.251 102.428 297.511 102.376L303.076 100.643L304.179 99.1729Z" fill="#FDB18D"/>
<path d="M311.056 123.221C311.056 123.221 314.416 125.952 311.056 133.461C311.056 133.461 309.271 141.232 310.531 145.222C310.531 145.222 310.793 150.631 310.058 156.091V163.18H299.454C299.454 163.18 301.816 161.08 307.381 159.819L305.019 141.494L303.076 126.634L311.056 123.221Z" fill="#FDB18D"/>
<path d="M308.221 116.133C308.116 112.93 309.166 109.097 308.011 106.051C307.381 104.424 306.226 102.954 304.546 102.428L301.501 103.846C300.923 104.634 300.241 105.421 299.768 106.209C298.981 107.417 298.036 108.834 297.774 110.252C297.406 111.985 298.456 112.877 299.191 114.295C299.873 115.608 302.446 125.532 303.076 126.635C303.076 126.635 303.076 126.635 303.128 126.687L311.108 123.274C309.691 121.016 308.273 118.706 308.221 116.133Z" fill="#2C60B3"/>
<path d="M308.799 121.856C308.799 121.856 308.169 122.696 306.751 123.011C306.751 123.011 305.701 124.062 304.599 123.642V122.591L305.964 121.646L306.751 121.436L308.536 121.121L308.799 121.856Z" fill="#0D134F"/>
<path d="M308.011 106.104C306.909 106.209 305.754 106.261 304.651 106.314C304.756 107.154 304.756 107.994 304.704 108.887C304.599 110.147 304.494 111.355 304.861 112.562C305.124 113.403 305.544 114.243 306.069 114.925C306.384 115.345 306.751 115.608 307.119 115.818C307.434 116.133 307.854 116.395 308.274 116.553C308.274 116.395 308.274 116.238 308.221 116.08C308.064 112.93 309.114 109.097 308.011 106.104Z" fill="#0D134F"/>
<path d="M306.331 121.069L304.179 119.283C303.916 119.441 303.759 119.546 303.549 119.756C303.339 119.966 303.129 120.124 302.919 120.334C302.499 120.754 302.604 121.279 302.814 121.804C303.076 122.329 303.496 122.854 303.916 123.274C304.074 123.432 304.336 123.642 304.599 123.642C304.914 123.694 305.071 123.484 305.334 123.327C305.701 123.064 306.016 122.854 306.384 122.644C306.646 122.486 306.751 122.486 306.751 122.171C306.751 121.751 306.594 121.279 306.331 121.069Z" fill="#F09474"/>
<path d="M307.328 119.388L304.178 119.231C304.178 119.231 303.916 120.964 306.383 122.539C306.383 122.539 307.748 122.434 308.851 121.804C308.798 121.856 308.273 120.071 307.328 119.388Z" fill="#FDB18D"/>
<path d="M311.056 123.221L303.076 126.634L305.019 141.494L306.909 156.144L310.111 155.724C310.741 150.421 310.531 145.275 310.531 145.275C309.271 141.337 311.056 133.513 311.056 133.513C314.468 126.004 311.056 123.221 311.056 123.221Z" fill="#0D134F"/>
<path d="M307.328 119.388C307.328 119.388 306.803 120.806 308.851 121.804C308.851 121.804 313.996 117.603 315.623 110.042C315.623 110.042 310.688 103.794 306.541 102.166C306.541 102.166 305.281 104.266 306.541 106.577L311.528 111.145C311.528 111.145 309.796 118.391 307.328 119.388Z" fill="#2C60B3"/>
<path d="M312.316 112.615C311.791 111.775 311.529 111.092 311.371 110.042C311.214 109.097 311.266 108.152 311.319 107.259C311.371 106.104 311.214 104.634 310.794 103.531C310.321 102.376 309.324 101.431 308.431 100.591C307.486 99.7505 306.646 98.8579 306.121 97.7552C305.701 96.9151 305.334 95.97 304.914 95.1299C304.651 94.6573 304.284 94.2372 303.916 93.8172C303.339 92.9245 302.289 92.1894 300.556 91.9794C300.556 91.9794 300.346 91.9269 300.031 91.9269C299.034 91.9269 296.986 92.452 296.042 96.285C296.724 96.7576 297.616 96.9151 298.351 96.8101C298.981 96.7051 299.716 96.4951 300.294 96.9676C300.504 97.1251 300.714 97.3352 300.871 97.4927C301.134 97.7027 301.134 97.8603 301.186 98.1753H301.134C301.501 98.8579 301.344 99.593 301.501 100.328C301.659 101.011 302.079 101.746 302.656 102.166C304.389 103.531 304.494 105.579 304.336 107.627C304.231 108.887 304.126 110.095 304.494 111.302C304.756 112.142 305.176 112.982 305.701 113.665C306.016 114.085 306.384 114.348 306.751 114.558C307.801 115.555 309.324 115.818 310.846 115.45C311.791 115.24 312.579 114.82 312.684 113.77C312.684 113.403 312.579 113.035 312.316 112.615Z" fill="#DEA900"/>
<path d="M301.659 97.6502C301.606 98.4903 301.134 99.1204 300.609 99.0679C300.084 99.0154 299.716 98.3328 299.821 97.4927C299.874 96.6526 300.346 96.0225 300.871 96.075C301.396 96.1275 301.711 96.8101 301.659 97.6502Z" fill="#FDB18D"/>
<path d="M310.111 163.18V160.764C309.796 160.764 309.481 160.817 309.271 160.87C308.379 161.027 307.539 161.552 306.699 161.867C305.859 162.182 304.914 162.34 304.021 162.13C303.392 161.972 303.129 161.657 303.077 161.237C300.662 162.235 299.559 163.232 299.559 163.232H310.111V163.18Z" fill="#ED4040"/>
<path d="M282.812 104.529C280.344 109.097 276.302 107.627 276.302 107.627C276.302 107.627 278.874 103.899 282.812 104.529Z" fill="#0D134F"/>
<path d="M282.812 104.529C278.822 103.899 276.302 107.627 276.302 107.627L275.199 105.211L273.572 101.746L270.212 94.5523C270.212 94.5523 270.369 94.3422 270.684 94.0797C270.789 93.9747 270.999 93.8172 271.157 93.6596C271.839 93.1346 272.784 92.6095 274.044 92.5045C274.254 92.5045 274.464 92.5045 274.674 92.5045C274.884 92.5045 275.147 92.557 275.409 92.6095L282.812 104.529Z" fill="#DEA900"/>
<path d="M275.199 105.211L267.167 99.1204L265.33 99.5405L267.482 96.1275L267.85 98.0703L273.572 101.746L275.199 105.211Z" fill="#DEA900"/>
<path d="M274.622 92.5045C274.412 92.5045 274.202 92.5045 273.992 92.5045C273.467 91.2968 272.942 90.7717 272.522 90.5617C271.997 90.2991 271.577 90.4567 271.577 90.4567C271.21 90.6142 271 90.8242 270.895 91.1393C270.632 91.8744 270.895 92.872 271.157 93.6071C271 93.7647 270.79 93.8697 270.685 94.0272C270.37 93.1871 270.002 91.8744 270.37 90.9292C270.527 90.4567 270.895 90.0891 271.367 89.8791C271.367 89.8791 271.997 89.6165 272.785 89.9841C273.52 90.4042 274.15 91.1918 274.622 92.5045Z" fill="#0D134F"/>
<path d="M272.837 103.426L275.199 105.211L273.572 101.746L272.259 100.906L272.837 103.426Z" fill="#0D134F"/>
<path d="M280.397 101.483L279.872 101.168C281.342 98.6479 281.709 96.7576 280.922 95.6549C279.714 93.8697 275.934 94.4998 275.882 94.4998L275.777 93.9222C275.934 93.8697 279.977 93.2396 281.394 95.2874C282.339 96.6526 282.024 98.7529 280.397 101.483Z" fill="#DEA900"/>
<path d="M279.819 93.9222L279.242 94.3422C279.242 94.3422 278.874 97.0726 281.971 97.1777C281.971 97.1777 282.496 96.9151 282.496 96.285C282.444 96.285 281.237 93.2396 279.819 93.9222Z" fill="#FDB18D"/>
<path d="M115.607 137.098C115.397 136.153 115.45 134.945 115.87 134.052C116.395 132.897 117.445 133.842 117.655 134.735C117.865 135.575 117.707 136.205 118.18 136.94C118.705 137.728 118.442 138.463 118.337 139.356C118.232 140.196 118.705 140.931 118.862 141.718C119.019 142.454 118.915 143.346 118.652 144.134C118.6 144.134 118.6 144.134 118.547 144.134C118.075 144.029 117.917 143.871 117.55 143.609C117.235 143.346 116.867 143.084 116.71 142.716C116.552 142.296 116.605 142.033 116.185 141.718C115.922 141.456 115.66 141.351 115.502 140.983C115.345 140.563 115.397 140.143 115.397 139.671C115.607 138.83 115.765 137.938 115.607 137.098Z" fill="#59A1A0"/>
<path d="M117.235 138.725C117.182 138.358 117.235 137.938 117.287 137.57C117.392 136.783 117.917 136.258 118.232 135.522C118.39 135.102 118.39 133.737 119.125 133.79C119.755 133.842 119.702 134.892 119.755 135.365C119.86 136.048 120.385 136.468 120.647 137.045C120.962 137.833 120.857 138.673 120.437 139.408C120.122 140.038 119.965 140.406 120.122 141.141C120.28 141.823 120.385 142.348 120.332 143.084C120.28 143.609 120.017 143.976 119.755 144.396C119.282 144.186 118.652 143.924 118.442 143.451C118.337 143.136 118.39 142.874 118.127 142.611C117.917 142.401 117.655 142.243 117.497 141.981C117.025 141.298 117.392 140.563 117.445 139.776C117.445 139.408 117.287 139.093 117.235 138.725Z" fill="#59A1A0"/>
<path d="M60.4788 162.475C60.4788 163.577 54.074 164.47 46.1991 164.47C38.3243 164.47 31.9194 163.577 31.9194 162.475C31.9194 161.372 38.3243 160.479 46.1991 160.479C54.074 160.479 60.4788 161.372 60.4788 162.475Z" fill="#B8D8D8"/>
<path d="M54.5988 108.287C53.9163 105.714 53.9163 103.561 53.7588 103.561C53.7063 103.561 53.6538 104.086 53.6538 104.979C53.7063 105.871 53.8113 107.079 54.1788 108.392C54.5463 109.704 55.0713 110.807 55.5963 111.542C55.7013 111.752 55.8588 111.91 55.9638 112.015C56.0688 112.12 56.1738 112.277 56.2788 112.33C56.4363 112.487 56.5412 112.592 56.5937 112.592C56.5937 112.592 56.5412 112.435 56.4362 112.225C56.3837 112.12 56.2788 112.015 56.1738 111.857C56.0688 111.7 55.9638 111.542 55.8588 111.385C55.4388 110.649 54.9663 109.547 54.5988 108.287Z" fill="#0D134F"/>
<path d="M57.2762 102.616C57.4337 101.723 57.1712 100.778 57.3287 99.8853C57.3812 99.6228 57.4862 99.0977 57.8537 99.0977C58.1687 99.0977 58.3787 99.7278 58.4312 99.9378C58.5362 100.305 58.5362 100.62 58.5362 100.988C58.5887 101.461 58.7462 101.828 58.9037 102.301C59.2187 103.036 59.5862 103.718 59.9011 104.401C60.7411 106.134 59.5862 107.761 59.5862 109.547C59.5862 110.649 59.2712 112.802 58.0112 113.275C58.0112 113.222 57.9587 113.222 57.9587 113.17C57.7487 112.435 57.5387 111.7 57.4337 110.912C57.2762 109.862 57.3812 108.812 57.3287 107.761C57.2762 106.974 56.8562 106.344 56.8037 105.556C56.8037 104.506 57.1187 103.561 57.2762 102.616Z" fill="#59A1A0"/>
<path d="M72.7638 109.074C74.2337 108.234 75.9662 107.656 77.2262 109.074C78.1712 110.072 77.6462 111.647 76.5962 112.33C75.5462 113.065 74.1287 112.96 72.9738 113.065C72.2388 113.117 71.5038 113.117 70.7688 113.117C70.2438 113.117 69.7188 113.222 69.1938 113.327C69.4038 112.645 69.6663 112.015 70.0863 111.385C70.8738 110.492 71.7663 109.652 72.7638 109.074Z" fill="#59A1A0"/>
<path d="M68.1958 111.174C68.0383 110.649 67.9333 110.124 67.9858 109.442C68.0383 108.602 68.2483 107.761 68.4583 106.869C68.9833 104.979 69.2458 102.668 70.9783 101.408C71.9757 100.673 73.7607 100.568 73.7607 102.143C73.7607 103.403 73.4982 104.716 73.0782 105.871C72.3432 108.024 70.1908 109.914 68.1958 111.174Z" fill="#59A1A0"/>
<path d="M71.2936 127.294L64.5738 123.461L49.5591 125.824L49.6641 127.872L64.8363 125.667L71.5561 129.92L71.2936 127.294Z" fill="#AA8100"/>
<path d="M40.739 154.021L40.214 154.651L43.9939 159.429L43.8364 160.007L36.4341 156.174L38.4815 152.498L40.739 154.021Z" fill="#F09474"/>
<path d="M37.5891 154.073C38.5865 154.651 38.639 155.911 39.374 156.646C39.794 157.014 40.214 157.276 40.7915 157.276C41.2115 157.276 41.7365 157.224 41.9465 156.856L43.9939 159.429L43.7839 160.007L36.4341 156.174L37.5891 154.073Z" fill="#2C60B3"/>
<path d="M61.1083 119.523C61.1083 119.523 60.7408 120.678 58.0109 119.996L56.0684 116.793L48.2461 115.953L49.3486 112.855L59.4809 115.69C59.4284 115.69 59.9534 118.473 61.1083 119.523Z" fill="#F09474"/>
<path d="M50.5561 112.855L49.7162 116.53L47.7212 116.163L48.2987 112.067L50.5561 112.855Z" fill="#0D134F"/>
<path d="M70.9784 123.671L64.8886 119.471L49.2964 122.149L49.5064 124.984L64.8886 122.831L71.2409 126.612L70.9784 123.671Z" fill="#AA8100"/>
<path d="M70.8735 122.569L64.8886 118.473L49.2439 120.993L49.0864 118.473L65.2036 115.743L70.5585 119.366L70.8735 122.569Z" fill="#AA8100"/>
<path d="M67.146 116.32C67.776 113.432 68.4585 110.859 69.0359 109.022C69.0884 108.812 69.1934 108.549 69.2459 108.339C69.2984 108.129 69.4034 107.919 69.4559 107.761C69.5609 107.394 69.6659 107.079 69.7709 106.816C69.9284 106.291 70.0334 106.029 69.9809 105.976C69.9284 105.976 69.8234 106.239 69.6134 106.711C69.5084 106.974 69.4034 107.289 69.2459 107.604C69.1934 107.761 69.0884 107.971 69.0359 108.182C68.9834 108.392 68.8784 108.602 68.8259 108.812C68.196 110.649 67.461 113.222 66.831 116.11C66.2535 118.998 65.886 121.676 65.781 123.619C65.781 123.881 65.7285 124.091 65.7285 124.301C65.7285 124.511 65.7285 124.721 65.7285 124.931C65.7285 125.299 65.7285 125.667 65.7285 125.929C65.7285 126.454 65.7285 126.769 65.781 126.769C65.8335 126.769 65.8335 126.454 65.886 125.929C65.886 125.667 65.9385 125.352 65.991 124.931C65.991 124.721 66.0435 124.511 66.0435 124.301C66.0435 124.091 66.096 123.881 66.1485 123.619C66.1485 121.834 66.5685 119.208 67.146 116.32Z" fill="#0D134F"/>
<path d="M62.8412 116.11C62.9987 113.17 63.1037 110.544 63.0512 108.654C63.0512 107.709 63.0512 106.921 63.0512 106.396C63.0512 105.871 62.9987 105.556 62.9987 105.556C62.9462 105.556 62.9462 105.871 62.8937 106.396C62.8412 106.921 62.8412 107.709 62.7887 108.654C62.7362 110.544 62.5787 113.222 62.4212 116.11C62.2637 118.998 62.0537 121.624 61.9487 123.566C61.8962 124.511 61.8438 125.299 61.8438 125.824C61.8438 126.349 61.8438 126.664 61.8438 126.664C61.8962 126.664 61.8962 126.349 62.0012 125.824C62.0537 125.299 62.1587 124.511 62.2637 123.566C62.4737 121.676 62.6312 119.051 62.8412 116.11Z" fill="#0D134F"/>
<path d="M57.6437 117.79C57.2762 115.165 56.9087 112.802 56.6462 111.122C56.3837 109.389 56.2262 108.339 56.1737 108.339C56.1212 108.339 56.1737 108.602 56.1737 109.074C56.2262 109.547 56.2787 110.282 56.3837 111.122C56.5937 112.855 56.9087 115.218 57.2762 117.843C57.6437 120.468 57.9062 122.831 58.0637 124.564C58.1687 126.297 58.2212 127.347 58.3262 127.347C58.3787 127.347 58.3787 127.084 58.3787 126.612C58.3787 126.139 58.4312 125.404 58.3787 124.564C58.2212 122.779 58.0112 120.363 57.6437 117.79Z" fill="#0D134F"/>
<path d="M69.9288 112.96C70.9262 112.225 71.8712 111.647 72.6587 111.332C73.3937 111.017 73.9187 111.017 73.9187 110.964C73.9187 110.912 73.3937 110.807 72.5537 111.069C71.7137 111.279 70.7162 111.857 69.6663 112.645C68.6688 113.432 67.8813 114.325 67.4088 115.008C66.9363 115.743 66.8838 116.268 66.9363 116.268C66.9888 116.268 67.1463 115.795 67.6713 115.165C68.1438 114.535 68.9838 113.747 69.9288 112.96Z" fill="#0D134F"/>
<path d="M65.2039 110.072C65.6764 108.444 65.9914 106.921 66.1489 105.819C66.3063 104.716 66.3588 104.033 66.3063 104.033C66.1489 104.033 65.7289 106.711 64.7839 109.967C64.3114 111.595 63.7339 113.012 63.3139 114.062C62.8939 115.06 62.5789 115.69 62.6839 115.743C62.7364 115.743 63.1039 115.165 63.6289 114.167C64.1539 113.17 64.7314 111.752 65.2039 110.072Z" fill="#0D134F"/>
<path d="M60.7939 106.396C60.5314 104.821 60.5314 103.403 60.4264 102.353C60.3214 101.303 60.2164 100.673 60.1639 100.673C60.1114 100.673 60.1114 101.303 60.1639 102.353C60.2164 103.403 60.1639 104.874 60.4264 106.449C60.5314 107.236 60.7939 108.024 61.0564 108.654C61.1089 108.812 61.2139 108.969 61.2664 109.127C61.3714 109.284 61.4239 109.389 61.5289 109.547C61.6864 109.809 61.8439 110.019 62.0013 110.282C62.2638 110.702 62.5263 111.069 62.6313 111.332C62.7888 111.595 62.8413 111.7 62.8938 111.7C62.9463 111.7 62.8938 111.542 62.7888 111.227C62.6838 110.912 62.4738 110.544 62.2113 110.072C62.0538 109.862 61.9489 109.599 61.7914 109.337C61.7389 109.179 61.6339 109.074 61.5814 108.917C61.5289 108.759 61.4239 108.654 61.3714 108.497C61.1089 107.919 60.9514 107.184 60.7939 106.396Z" fill="#0D134F"/>
<path d="M58.5884 110.334C58.7459 108.707 58.6409 107.289 58.5359 106.239C58.3784 105.189 58.2209 104.558 58.1684 104.558C58.1159 104.558 58.1684 105.189 58.2209 106.239C58.2734 107.289 58.3259 108.707 58.1684 110.282C58.011 111.857 57.696 113.222 57.4335 114.272C57.171 115.27 56.961 115.9 57.0135 115.9C57.066 115.9 57.3285 115.323 57.696 114.325C58.0634 113.327 58.4309 111.91 58.5884 110.334Z" fill="#0D134F"/>
<path d="M64.4687 106.081C64.7837 104.769 65.4661 103.456 66.0436 102.248C66.4636 101.461 66.8836 100.62 67.3036 99.8328C67.3561 99.7278 67.4086 99.6753 67.4611 99.5703C67.5136 99.7803 67.5661 99.9903 67.5661 100.2C67.6186 100.883 67.7236 101.566 67.7236 102.248C67.7236 103.561 67.7236 104.821 67.4086 106.081C66.9361 108.234 66.2011 110.124 64.5212 111.437C63.9962 109.652 63.9962 107.971 64.4687 106.081Z" fill="#106E6D"/>
<path d="M59.7436 106.554C59.3236 105.556 59.1136 104.664 59.1661 103.508C59.2186 102.091 59.5336 100.778 59.8486 99.3602C60.0061 98.5726 60.2161 97.785 60.4261 96.9974C60.4786 96.8924 60.4786 96.7874 60.5311 96.6823C60.5836 96.8399 60.6361 96.9974 60.6886 97.1024C61.1611 98.3626 61.5286 99.7278 61.7386 101.04C62.0536 103.456 62.0011 105.871 60.9511 108.077C60.4786 107.604 60.0061 107.236 59.7436 106.554Z" fill="#106E6D"/>
<path d="M62.2639 105.084C62.5264 104.138 62.8414 103.246 63.1039 102.301C63.3139 101.618 63.5239 100.935 63.7339 100.253C63.7864 100.148 63.7864 100.043 63.7864 99.8853C63.9439 100.463 64.1014 101.04 64.1014 101.145C64.3114 102.406 64.3639 103.613 64.2589 104.874C64.1539 106.029 63.8914 108.339 62.8939 109.232C62.3689 107.919 61.844 106.606 62.2639 105.084Z" fill="#106E6D"/>
<path d="M71.9238 133.595L65.414 127.872L49.7693 129.762L49.7168 128.397L65.834 126.822L71.6613 130.865L71.9238 133.595Z" fill="#AA8100"/>
<path d="M71.9231 133.595L65.9382 127.032L49.7686 129.762L53.1285 136.536L71.9231 133.595Z" fill="#AA8100"/>
<path d="M52.8142 133.28L49.7168 128.397L49.7693 129.762L53.1292 136.536L52.8142 133.28Z" fill="#0D134F"/>
<path d="M49.5591 125.824L49.6641 127.872L52.7615 132.493L52.499 129.867L49.5591 125.824Z" fill="#0D134F"/>
<path d="M49.2969 122.149L49.5069 124.984L52.4468 129.185L52.1318 126.244L49.2969 122.149Z" fill="#0D134F"/>
<path d="M49.0864 118.473L49.2439 120.993L52.0264 125.142L51.7639 122.359L49.0864 118.473Z" fill="#0D134F"/>
<path d="M51.7637 122.359L52.0262 125.142L70.8733 122.569L70.5583 119.366L67.0409 119.943L65.7284 120.153L51.7637 122.359Z" fill="#FFC41D"/>
<path d="M52.1313 126.244L52.4463 129.185L71.2409 126.612L70.9785 123.671L52.1313 126.244Z" fill="#FFC41D"/>
<path d="M52.4985 129.867L52.761 132.493L71.5556 129.92L71.2931 127.294L52.4985 129.867Z" fill="#FFC41D"/>
<path d="M52.814 133.28L53.129 136.536L71.9236 133.595L71.6611 130.865L52.814 133.28Z" fill="#FFC41D"/>
<path d="M49.0864 118.473L49.2439 120.993L52.0264 125.142L51.7639 122.359L49.0864 118.473Z" fill="#C89800"/>
<path d="M49.2969 122.149L49.5069 124.984L52.4468 129.185L52.1318 126.244L49.2969 122.149Z" fill="#C89800"/>
<path d="M49.5591 125.824L49.6641 127.872L52.7615 132.493L52.499 129.867L49.5591 125.824Z" fill="#C89800"/>
<path d="M49.7168 128.397L49.7693 129.762L53.1292 136.536L52.8142 133.28L49.7168 128.397Z" fill="#C89800"/>
<path d="M57.7485 115.323L59.376 115.638C59.376 115.638 60.0585 115.69 60.741 116.425C60.741 116.425 62.9459 120.573 59.2185 116.688L58.956 116.74L57.7485 115.323Z" fill="#F09474"/>
<path d="M38.4814 152.498L40.7389 154.021L50.8712 141.681C50.8712 141.681 51.8162 140.316 50.9762 137.743L46.9863 125.404L40.2664 129.342L44.4138 140.946L38.4814 152.498Z" fill="#ED4040"/>
<path d="M43.154 143.309L43.9415 141.786L44.099 141.524L45.149 141.786L46.094 144.517L45.5165 148.14V148.192L41.894 152.603L43.154 143.309Z" fill="#0D134F"/>
<path d="M46.8289 98.3101C46.8289 98.3101 45.6739 99.7278 44.9389 101.251L42.104 100.253L43.259 97.89L45.5689 96.5773L46.8289 98.3101Z" fill="#FDB18D"/>
<path d="M43.5737 97.7325L43.6787 97.68L45.6737 97.3649L46.1462 97.4699L46.8287 98.3626C46.8287 98.3626 46.3562 98.9402 45.8312 99.7278L43.5737 97.7325Z" fill="#F09474"/>
<path d="M42.1038 96.5257C42.1038 96.5257 39.4264 90.4873 44.9913 89.2797C44.9913 89.2797 48.4037 88.1245 49.9787 93.8478C50.1887 94.583 50.3462 95.003 50.7136 96.0007H49.9787C49.9787 96.0007 50.0312 98.9411 48.7712 98.9936L43.2588 97.8384L42.1038 96.5257Z" fill="#FDB18D"/>
<path d="M50.0841 92.4817C50.0841 93.1118 50.0316 93.5319 49.6642 94.057C49.3492 94.477 48.9817 94.7396 48.5092 94.8971C47.5642 95.2121 46.4092 94.5295 45.5692 95.0546C45.5167 95.1071 45.4642 95.1596 45.3592 95.2121L44.6768 93.8469L46.8817 92.1667L50.0841 92.4817Z" fill="#ED4040"/>
<path d="M40.2137 114.903C39.9512 111.49 38.3238 107.499 39.1638 104.138C39.6363 102.301 41.0012 100.83 42.5762 99.4127L45.3061 100.62C46.0411 101.356 47.4061 102.563 47.9836 103.193C48.9811 104.401 50.136 105.819 50.6085 107.236C51.2385 109.074 50.241 110.072 49.611 111.7C49.0336 113.17 47.5636 124.091 46.9861 125.352V125.404L38.0088 122.779C39.2163 120.311 40.4237 117.633 40.2137 114.903Z" fill="#242960"/>
<path d="M48.6139 116.74L47.9314 116.425L47.9839 109.127C47.9839 109.127 48.1414 103.666 44.8865 103.718C44.8865 103.718 39.9516 103.981 42.0516 110.544L43.784 118.473C43.784 118.473 44.834 119.786 47.9839 120.573C48.1939 119.313 48.4039 118 48.6139 116.74Z" fill="#0D134F"/>
<path d="M45.4115 94.7921C45.254 95.4747 44.5715 95.6847 44.099 96.1047C43.6265 96.5773 43.5215 97.2074 43.574 97.8375C43.6265 98.5201 43.679 99.2027 43.259 99.7803C42.8391 100.305 42.2616 100.62 41.9466 101.251C41.6316 101.933 41.6316 102.563 41.4741 103.246C41.3166 103.928 40.8966 104.138 40.4241 104.664C39.3216 105.976 40.6866 107.656 39.8466 109.127C39.1641 110.387 37.4317 110.964 36.3292 110.019C35.6467 109.442 35.4367 108.707 35.1217 107.866C34.8592 107.131 35.0167 106.554 35.2792 105.819C35.5417 105.031 36.0142 104.453 36.1717 103.613C36.3292 102.721 36.4342 101.776 37.0642 101.093C37.7467 100.305 38.7966 99.9378 39.5316 99.2027C40.2666 98.5201 40.3716 97.575 40.6866 96.6823C40.8966 96.1048 41.1066 95.7372 41.5791 95.3171C42.1566 94.8446 42.2091 94.372 42.4716 93.7419C43.1016 92.4292 44.939 92.5342 45.4115 93.9519" fill="#ED4040"/>
<path d="M44.3618 94.8446C44.5193 95.6322 44.9918 96.2098 45.5168 96.1047C45.9893 95.9997 46.3043 95.3171 46.1468 94.5295C45.9893 93.7419 45.5168 93.1643 44.9918 93.2693C44.5193 93.3218 44.2569 94.0569 44.3618 94.8446Z" fill="#FDB18D"/>
<path d="M38.009 122.831L46.9863 125.404L50.3988 142.627L45.7789 158.957H42.7864L43.6789 142.522C43.6789 142.522 40.8965 135.958 38.3765 130.392C36.8541 126.874 36.9591 125.142 38.009 122.831Z" fill="#ED4040"/>
<path d="M51.239 116.95L48.2991 115.638L48.3516 108.339C48.3516 108.339 48.5091 102.878 45.2542 102.931C45.2542 102.931 40.3193 103.193 42.4192 109.757L44.1517 117.685C44.1517 117.685 45.5692 119.523 50.1366 120.153L51.239 116.95Z" fill="#242960"/>
<path d="M51.2917 116.688L49.8742 120.678L47.4067 119.996L49.1392 115.743L51.2917 116.688Z" fill="#0D134F"/>
<path d="M60.8461 120.888L59.6387 119.471L61.2661 119.786C61.2661 119.786 61.9486 119.838 62.6311 120.573L60.8461 120.888Z" fill="#F09474"/>
<path d="M62.999 123.671C62.999 123.671 62.6315 124.826 59.9015 124.144L57.9591 120.941L50.1367 120.101L51.2392 117.003L61.3715 119.838C61.319 119.838 61.844 122.621 62.999 123.671Z" fill="#FDB18D"/>
<path d="M49.4537 91.6941C49.4537 91.6941 52.0787 91.0115 53.9686 91.379C53.9686 91.379 47.1963 95.1596 38.3765 96.1572C38.3765 96.1572 39.8989 94.8971 41.4214 94.0569L49.4537 91.6941Z" fill="#DEA900"/>
<path d="M41.4215 94.0569L40.7915 91.274C43.8889 88.4386 48.1414 88.8062 48.1414 88.8062C48.8238 89.2787 49.4538 91.6941 49.4538 91.6941C49.4538 91.6941 48.6663 92.9018 41.4215 94.0569Z" fill="#DEA900"/>
<path d="M49.0865 90.5389C49.2965 91.169 49.454 91.6941 49.454 91.6941C49.454 91.6941 48.6665 92.9018 41.4217 94.0044L41.1592 92.8493C46.9341 91.9041 48.6665 90.9065 49.0865 90.5389Z" fill="#0D134F"/>
<path d="M48.1414 88.8062C48.1414 88.8062 46.1464 90.5914 40.7915 91.274C43.9414 88.4386 48.1414 88.8062 48.1414 88.8062Z" fill="#0D134F"/>
<path d="M45.7791 158.957L45.5691 159.902L52.7614 162.212V162.737H42.5767L42.8392 158.957H45.7791Z" fill="#FDB18D"/>
<path d="M42.7342 160.374C42.8917 160.374 42.9967 160.374 43.1541 160.322C43.8366 160.269 44.4666 160.374 45.0966 160.637C45.6216 160.847 46.0941 161.162 46.6191 161.319C46.9341 161.424 48.4565 161.372 48.9815 160.952L52.7614 162.159V162.685H42.5767L42.7342 160.374Z" fill="#2C60B3"/>
<path d="M267.167 185.548C267.167 186.65 255.827 187.595 241.81 187.595C227.793 187.595 216.453 186.703 216.453 185.548C216.453 184.445 227.793 183.5 241.81 183.5C255.775 183.5 267.167 184.445 267.167 185.548Z" fill="#B8D8D8"/>
<path d="M224.433 128.209C223.908 127.369 223.173 126.634 222.385 126.056C221.808 125.689 221.178 125.321 220.548 124.954C220.495 124.901 220.443 124.901 220.39 124.849C220.6 125.531 220.6 126.424 220.758 127.106C220.968 128.052 221.283 128.944 221.86 129.784C222.28 130.362 222.91 130.782 223.488 131.202C224.065 131.622 224.958 132.147 225.693 132.2C225.745 130.729 225.22 129.469 224.433 128.209Z" fill="#0D134F"/>
<path d="M225.22 140.811C225.063 140.706 224.748 140.601 224.538 140.391C224.538 140.706 224.538 141.021 224.538 141.284C224.59 141.861 224.695 142.491 224.905 143.016C225.378 144.066 226.428 144.644 227.53 144.907C227.478 144.014 227.373 143.121 226.953 142.281C226.533 141.599 225.903 141.231 225.22 140.811Z" fill="#0D134F"/>
<path d="M221.336 137.398C220.653 138.028 220.023 138.711 219.393 139.393C219.656 139.393 219.866 139.393 220.023 139.393C221.073 139.446 222.386 139.446 223.33 139.078C224.275 138.711 225.063 137.976 225.43 137.135C224.538 136.085 222.123 136.663 221.336 137.398Z" fill="#0D134F"/>
<path d="M235.09 155.303L232.57 169.375L231.52 182.187L234.25 182.66L236.927 170.058L242.492 159.346L235.09 155.303Z" fill="#0D134F"/>
<path d="M237.032 157.141L239.867 164.439L241.075 162.077L237.032 157.141Z" fill="#0D134F"/>
<path d="M237.453 157.351L245.695 170.635L255.092 179.457L257.297 177.986L249.475 167.222L245.275 154.725L237.453 157.351Z" fill="#0D134F"/>
<path d="M228.16 184.497L226.637 184.445C226.585 184.235 226.532 184.025 226.48 183.92L227.897 183.447C227.95 183.71 228.055 184.077 228.16 184.497Z" fill="#0D134F"/>
<path d="M230.942 184.602L229.682 184.55C229.63 183.762 229.42 183.237 229.262 182.975L230.522 182.555C230.627 182.922 230.89 183.605 230.942 184.602Z" fill="#0D134F"/>
<path d="M234.25 182.66L234.145 184.655L234.092 185.548H224.643L224.958 184.445L226.428 183.92C226.48 184.077 226.533 184.235 226.585 184.445L228.108 184.497C228.055 184.025 227.95 183.657 227.845 183.447L229.21 182.975C229.315 183.237 229.525 183.762 229.63 184.55L230.89 184.602C230.837 183.657 230.627 182.975 230.47 182.555L231.52 182.187L234.25 182.66Z" fill="#F09474"/>
<path d="M256.772 181.452L255.827 182.345C255.302 181.557 254.777 181.137 254.357 180.979L254.462 180.927L254.882 179.824C255.302 179.929 256.09 180.297 256.772 181.452Z" fill="#0D134F"/>
<path d="M254.147 183.5L252.572 183.657C252.362 183.185 252.152 182.87 251.942 182.66L253.254 181.767C253.569 182.082 253.937 182.607 254.147 183.5Z" fill="#0D134F"/>
<path d="M259.344 180.297L257.244 182.292L256.299 183.185L255.092 184.34L254.357 184.392L252.887 184.497L250.157 184.707V183.867L252.047 182.607C252.257 182.817 252.467 183.132 252.677 183.605L254.252 183.447C254.042 182.555 253.674 182.03 253.359 181.714L254.514 180.979C254.934 181.137 255.459 181.557 255.984 182.345L256.929 181.452C256.194 180.297 255.459 179.929 255.039 179.877L255.197 179.457L257.454 177.986L258.872 179.614L259.344 180.297Z" fill="#F09474"/>
<path d="M259.345 180.297L257.245 182.292L256.3 183.185L255.092 184.287L254.305 184.34L252.835 184.497L250.052 184.707V183.867L252.572 183.657L254.147 183.5L254.725 183.447L255.827 182.345L256.772 181.452L258.715 179.614L259.345 180.297Z" fill="#0D134F"/>
<path d="M234.145 184.655L234.092 185.548H224.643L224.958 184.445L226.585 184.497H228.16L229.63 184.55L230.942 184.602L234.145 184.655Z" fill="#0D134F"/>
<path d="M235.038 133.827L233.253 142.544C233.253 142.544 230.208 135.718 234.513 132.83L237.243 132.62V134.3L235.038 133.827Z" fill="#ED4040"/>
<path d="M232.78 130.309C232.78 130.309 234.197 131.99 235.037 133.827L238.397 132.62L237.032 129.784L234.355 128.262L232.78 130.309Z" fill="#FDB18D"/>
<path d="M236.717 129.574L236.56 129.469L234.145 129.049L233.62 129.207L232.833 130.309C232.833 130.309 233.41 130.992 234.04 131.937L236.717 129.574Z" fill="#F09474"/>
<path d="M238.135 127.999C238.135 127.999 240.235 120.123 233.2 119.756C233.2 119.756 229.262 118.6 228.422 125.846C228.317 126.792 228.212 127.632 228.002 128.944L229 128.734C229 128.734 230.575 131.832 232.097 131.727L236.927 129.89L238.135 127.999Z" fill="#FDB18D"/>
<path d="M238.135 127.999C238.135 127.999 240.235 120.123 233.2 119.755C233.2 119.755 228.737 118.6 228.002 123.116C228.632 123.221 229.42 123.693 229.997 123.903C230.68 124.113 230.89 126.056 231.415 126.476C231.887 126.896 232.675 126.634 233.252 126.529C234.092 126.424 234.565 126.581 235.142 127.211C235.615 127.684 235.825 128.209 236.14 128.787C236.35 129.154 236.665 129.469 237.032 129.732L238.135 127.999Z" fill="#0D134F"/>
<path d="M235.037 126.371C235.037 127.369 234.512 128.157 233.882 128.104C233.252 128.104 232.78 127.264 232.78 126.319C232.78 125.321 233.305 124.534 233.935 124.586C234.565 124.586 235.037 125.374 235.037 126.371Z" fill="#FDB18D"/>
<path d="M237.347 117.34C236.087 116.132 233.515 116.762 233.62 118.705C233.672 119.44 233.987 120.28 234.565 120.7C236.192 121.856 238.082 120.28 237.872 118.548C237.82 118.128 237.662 117.655 237.347 117.34Z" fill="#0D134F"/>
<path d="M238.45 132.62L235.09 133.827C235.09 133.827 230.365 140.811 235.09 155.776C235.09 155.776 240.813 155.933 245.275 153.36C245.275 153.36 242.545 137.03 238.45 132.62Z" fill="#0D134F"/>
<path d="M233.935 140.758C233.935 140.758 240.497 133.722 245.012 141.126C245.012 141.126 247.427 134.72 238.03 131.727C237.977 131.727 234.303 134.983 233.935 140.758Z" fill="#ED4040"/>
<path d="M244.96 141.126C244.96 141.126 249.895 152.363 250.315 155.461C250.315 155.461 246.01 161.341 236.193 161.762C236.193 161.762 232.57 151.628 233.883 140.811C233.935 140.758 237.925 126.319 244.96 141.126Z" fill="#255298"/>
<path d="M230.733 151.628C230.733 151.628 230.733 151.995 230.733 151.628C230.733 151.628 228.213 154.515 231.783 155.776L231.52 154.515L230.733 151.628Z" fill="#F09474"/>
<path d="M233.147 157.876L225.43 130.467L224.853 130.624L232.412 157.456C232.622 157.613 232.885 157.718 233.147 157.876Z" fill="#0D134F"/>
<path d="M226.9 137.503L223.068 136.715L223.173 136.138L227.058 136.925L226.9 137.503Z" fill="#0D134F"/>
<path d="M222.488 131.66L222.268 132.251L225.715 133.526L225.934 132.936L222.488 131.66Z" fill="#0D134F"/>
<path d="M227.43 133.647L226.318 135.672L226.871 135.974L227.983 133.949L227.43 133.647Z" fill="#0D134F"/>
<path d="M229.093 138.604L227.972 141.604L228.563 141.824L229.684 138.824L229.093 138.604Z" fill="#0D134F"/>
<path d="M225.168 143.923L224.966 144.52L229.245 145.96L229.447 145.363L225.168 143.923Z" fill="#0D134F"/>
<path d="M225.09 148.493L225.005 149.118L230.416 149.849L230.501 149.225L225.09 148.493Z" fill="#0D134F"/>
<path d="M238.082 135.245C238.082 135.245 234.565 136.61 238.082 144.224L239.867 148.32L234.775 151.155C234.775 151.155 235.982 153.465 236.402 154.726C236.402 154.726 242.807 153.675 245.275 150.315C245.275 150.315 242.387 133.512 238.082 135.245Z" fill="#2C60B3"/>
<path d="M235.09 151.785L233.62 152.153C233.62 152.153 232.517 151.102 231.31 151.365C231.31 151.365 231.415 151.733 230.732 151.628C230.732 151.628 230.102 154.673 231.782 155.776C231.782 155.776 233.567 155.461 234.617 154.253L235.982 153.728L235.09 151.785Z" fill="#FDB18D"/>
<path d="M225.955 129.207C225.798 127.789 225.063 126.686 224.328 125.531C223.908 124.849 223.383 124.271 222.91 123.641C222.805 123.536 222.7 123.378 222.595 123.221C222.543 123.588 222.49 123.903 222.49 124.061C222.385 125.321 222.28 126.581 222.49 127.842C222.7 128.997 223.173 130.152 223.908 131.045C224.223 131.412 224.905 131.885 225.483 132.2C225.64 131.937 225.798 131.622 225.85 131.307C226.113 130.624 226.06 129.889 225.955 129.207Z" fill="#106E6D"/>
<path d="M222.911 131.202C222.123 130.624 221.283 130.414 220.338 130.414C219.551 130.362 218.816 130.572 218.081 130.572C217.976 130.572 217.818 130.572 217.661 130.572C217.713 130.624 217.713 130.624 217.766 130.624C218.816 131.622 219.971 132.935 221.441 133.145C222.543 133.302 223.331 132.882 224.276 132.567C223.961 132.095 223.541 131.675 222.911 131.202Z" fill="#106E6D"/>
<path d="M228.318 131.675C227.688 132.252 227.058 132.777 226.953 133.67C226.953 133.932 226.953 134.458 227.058 134.93C227.583 134.825 228.108 134.825 228.633 134.72C229.473 134.51 230.313 134.037 230.89 133.355C231.52 132.62 231.73 131.832 232.045 130.939C232.15 130.624 232.255 130.152 232.413 129.784C231.783 130.099 230.995 130.257 230.365 130.467C229.63 130.729 228.895 131.15 228.318 131.675Z" fill="#106E6D"/>
<path d="M224.644 136.295C224.171 135.875 223.594 135.56 223.016 135.35C222.124 134.983 221.284 134.93 220.339 134.93C219.814 134.93 218.764 135.298 217.924 135.298C218.449 135.77 218.974 136.4 219.499 136.715C220.129 137.135 220.916 137.503 221.651 137.608C222.386 137.713 223.069 137.713 223.751 137.45C224.171 137.293 224.644 136.925 225.064 136.768C224.959 136.663 224.854 136.505 224.644 136.295Z" fill="#106E6D"/>
<path d="M230.523 134.825C230.208 135.14 229.84 135.455 229.63 135.665C229.105 136.138 228.738 136.61 228.528 137.293C228.318 137.976 228.37 139.183 228.738 140.023C228.948 139.918 229.21 139.866 229.315 139.761C229.84 139.446 230.365 139.236 230.628 138.658C230.943 137.923 230.89 136.82 230.785 136.033C230.733 135.875 230.575 135.298 230.523 134.825Z" fill="#106E6D"/>
<path d="M226.165 143.174C225.378 142.544 224.538 142.334 223.54 142.124C223.278 142.071 221.756 141.861 220.916 141.494C221.021 141.704 221.073 141.966 221.178 142.071C221.493 142.701 221.861 143.279 222.228 143.804C222.858 144.644 223.435 145.327 224.485 145.642C225.64 146.009 226.69 145.169 227.74 145.064C227.635 144.802 227.53 144.592 227.373 144.381C227.005 143.961 226.585 143.541 226.165 143.174Z" fill="#106E6D"/>
<path d="M226.48 148.005C225.745 147.637 224.905 147.164 224.118 147.112C223.33 147.059 222.543 147.164 221.755 147.007C221.493 146.954 221.073 146.954 220.705 146.902C221.125 147.217 221.598 147.689 221.86 147.952C222.333 148.372 222.805 148.845 223.383 149.212C224.538 149.895 226.112 149.737 227.267 149.317C227.425 149.265 227.53 149.212 227.687 149.16C227.372 148.687 227.005 148.267 226.48 148.005Z" fill="#106E6D"/>
<path d="M133.767 198.448C133.767 199.708 127.625 200.758 120.065 200.758C112.505 200.758 106.363 199.708 106.363 198.448C106.363 197.188 112.505 196.137 120.065 196.137C127.625 196.137 133.767 197.135 133.767 198.448Z" fill="#B8D8D8"/>
<path d="M115.183 193.512C115.183 194.772 109.04 195.822 101.481 195.822C93.9207 195.822 87.7783 194.772 87.7783 193.512C87.7783 192.252 93.9207 191.202 101.481 191.202C109.04 191.202 115.183 192.252 115.183 193.512Z" fill="#B8D8D8"/>
<path d="M123.583 152.451C123.583 152.451 126.102 155.286 129.2 152.976L128.517 150.613L125.682 150.193L124.265 151.453L123.583 152.451Z" fill="#0D134F"/>
<path d="M120.485 153.186C119.96 152.608 119.225 152.083 118.805 151.453L117.073 153.186C117.493 153.816 118.228 154.341 118.753 154.919C119.33 155.549 120.013 156.337 120.748 156.757L122.533 155.024C121.693 154.604 121.063 153.816 120.485 153.186Z" fill="#F09474"/>
<path d="M124.033 157.843L123.159 158.676L143.298 179.735L144.173 178.902L124.033 157.843Z" fill="#0D134F"/>
<path d="M123.95 155.549C123.898 154.814 123.11 154.026 122.323 154.079C121.588 154.131 121.01 154.919 120.59 155.391C120.065 156.021 119.75 156.652 119.908 157.492C120.118 158.279 120.8 158.804 121.64 158.647C122.375 158.542 123.058 157.702 123.373 157.124C123.74 156.652 124.003 156.179 123.95 155.549Z" fill="#F09474"/>
<path d="M121.377 159.802L119.907 158.804L120.012 158.594C120.065 158.437 121.482 154.919 123.95 154.499L124.107 154.446L125.735 156.389L124.212 158.962L121.377 159.802ZM120.642 158.594L121.482 159.172L123.845 158.437L125 156.442L123.845 155.076C122.112 155.496 120.957 157.859 120.642 158.594Z" fill="#0D134F"/>
<path d="M123.95 155.549C123.897 155.129 123.635 154.709 123.267 154.394C120.17 155.286 120.117 157.807 120.117 157.859C120.432 158.437 121.01 158.752 121.692 158.647C122.427 158.542 123.11 157.702 123.425 157.124C123.74 156.652 124.002 156.179 123.95 155.549Z" fill="#FDB18D"/>
<path d="M102.426 155.339L103.213 171.774L96.2832 188.996H101.428L109.04 173.349L110.773 157.912C110.773 157.859 109.513 153.134 102.426 155.339Z" fill="#DEA900"/>
<path d="M107.308 157.439L113.293 174.977V194.09H117.598L119.75 173.664L117.125 159.224C117.125 159.172 112.191 154.604 107.308 157.439Z" fill="#DEA900"/>
<path d="M130.04 140.059C130.04 140.059 127.94 140.322 126.47 141.529L123.005 138.379L126.627 137.801L129.62 137.644L130.04 140.059Z" fill="#FDB18D"/>
<path d="M130.04 140.059L129.725 138.116L129.252 137.696L127.1 137.801L128.675 140.427C129.462 140.112 130.04 140.059 130.04 140.059Z" fill="#F09474"/>
<path d="M126.102 135.806C126.102 135.806 126.47 128.297 132.769 129.925C132.769 129.925 138.754 130.975 135.289 140.269L134.187 139.849C134.187 139.849 132.979 142.317 131.667 141.792L126.68 137.801L126.102 135.806Z" fill="#FDB18D"/>
<path d="M126.102 135.806C126.102 135.806 126.47 128.297 132.769 129.925C132.769 129.925 136.864 130.66 136.287 136.121C136.287 136.121 135.657 136.594 133.504 135.963C133.504 135.963 132.297 136.331 131.667 137.959L130.879 137.591C130.879 137.591 131.614 135.228 130.564 134.598L129.357 134.966C129.357 134.966 128.727 136.961 127.31 137.171L126.365 137.014L126.102 135.806Z" fill="#0D134F"/>
<path d="M129.305 135.228C129.042 136.121 129.252 136.961 129.83 137.119C130.355 137.276 131.037 136.699 131.3 135.858C131.562 134.966 131.352 134.126 130.775 133.968C130.25 133.758 129.567 134.336 129.305 135.228Z" fill="#FDB18D"/>
<path d="M129.62 142.317L123.11 137.696C123.11 137.696 120.485 135.648 116.075 139.692L101.48 154.709C101.48 154.709 105.785 158.437 117.125 159.224L129.2 145.1C129.2 145.1 130.565 143.63 129.62 142.317Z" fill="#2C60B3"/>
<path d="M122.06 153.291H122.165L126.47 148.25L126.732 147.305L124.423 144.732L122.06 153.291Z" fill="#0D134F"/>
<path d="M129.934 143.787L127.624 159.172C127.624 159.172 132.874 166.681 134.082 168.466C134.082 168.466 134.187 168.938 131.457 169.306L123.372 160.485L125 144.575C125 144.627 127.572 140.794 129.934 143.787Z" fill="#FDB18D"/>
<path d="M124.475 149.826L124.107 153.291C125.84 152.451 127.572 152.556 128.57 152.766L129.095 149.248L127.047 148.513C127.047 148.46 125.367 149.353 124.475 149.826Z" fill="#F09474"/>
<path d="M131.458 168.938C131.51 169.568 131.615 170.304 131.773 170.934C132.455 171.249 132.98 171.826 133.715 172.141C134.292 172.404 135.29 173.034 135.92 172.929C136.235 172.404 136.077 171.721 136.077 171.144C136.077 170.514 136.235 170.041 135.92 169.463C135.657 168.938 135.185 168.728 134.712 168.623C134.187 168.466 133.4 168.256 132.875 168.256" fill="#FDB18D"/>
<path d="M139.385 180.648L145.58 175.869C145.58 175.869 151.67 181.015 149.78 187.106C149.727 187.106 143.69 189.049 139.385 180.648Z" fill="#0D134F"/>
<path d="M124.422 144.732L123.583 152.451C123.583 152.451 126.89 150.193 129.2 152.976L129.882 143.787C129.935 143.787 128.045 139.744 124.422 144.732Z" fill="#2C60B3"/>
<path d="M123.583 138.064L124.528 137.644L128.255 140.899L128.097 141.267L123.583 138.064Z" fill="#0D134F"/>
<path d="M109.671 167.836L109.986 165.21L108.096 159.802L109.671 167.836Z" fill="#0D134F"/>
<path d="M117.598 194.09L123.635 197.66V198.448H113.083L113.293 194.09H117.598Z" fill="#0D134F"/>
<path d="M101.481 188.944L107.571 192.619V193.512H96.3359V188.944H101.481Z" fill="#0D134F"/>
<path d="M165.896 190.467C165.896 191.307 160.279 191.989 153.349 191.989C146.419 191.989 140.802 191.307 140.802 190.467C140.802 189.626 146.419 188.944 153.349 188.944C160.279 188.944 165.896 189.626 165.896 190.467Z" fill="#DEA900"/>
<path d="M142.482 191.254C144.635 191.727 148.677 192.042 153.35 192.042C158.022 192.042 162.012 191.727 164.217 191.254C162.065 190.782 158.022 190.467 153.35 190.467C148.677 190.467 144.687 190.782 142.482 191.254Z" fill="#0D134F"/>
<path d="M166.999 183.693C168.312 183.903 169.677 184.323 171.147 184.428C172.932 184.533 173.772 183.798 175.294 183.43C176.659 183.115 179.284 183.063 181.594 183.168C181.279 182.853 180.912 182.538 180.649 182.223C179.967 181.435 179.862 180.648 179.074 179.912C178.392 179.282 177.447 178.862 176.764 178.337C175.452 177.34 174.192 175.344 172.092 174.977C170.044 174.609 167.262 176.079 166.842 177.392C164.217 177.55 163.272 179.387 162.064 180.7C161.12 181.645 160.017 182.538 158.915 183.43C161.644 183.325 164.322 183.22 166.999 183.693Z" fill="#DEA900"/>
<path d="M181.542 183.168C181.227 182.853 180.859 182.538 180.597 182.223C180.492 182.118 180.439 182.013 180.334 181.908C179.967 182.065 179.547 182.223 179.022 182.17C178.339 182.118 177.972 181.698 177.237 181.803C176.554 181.908 176.082 182.275 175.347 182.013C174.717 181.803 174.717 181.383 173.929 181.383C173.247 181.383 172.774 181.75 172.144 181.803C170.254 181.96 170.779 180.595 169.519 180.07C168.207 179.492 166.894 181.015 165.687 180.333C164.689 179.755 165.214 178.495 164.269 178.285C163.377 178.967 162.747 179.912 162.064 180.648C161.12 181.593 160.017 182.485 158.915 183.378C161.697 183.325 164.374 183.22 166.999 183.693C168.312 183.903 169.677 184.323 171.147 184.428C172.932 184.533 173.772 183.798 175.294 183.43C176.607 183.115 179.232 183.063 181.542 183.168Z" fill="#C89800"/>
</svg>
