<svg width="72" height="88" viewBox="0 0 72 88" fill="none" xmlns="http://www.w3.org/2000/svg">
<path d="M43.5159 21.8261C49.543 21.8261 54.4289 16.9402 54.4289 10.9131C54.4289 4.88595 49.543 0 43.5159 0C37.4887 0 32.6028 4.88595 32.6028 10.9131C32.6028 16.9402 37.4887 21.8261 43.5159 21.8261Z" fill="#FFAC33"/>
<path d="M45.6986 50.8547L25.6186 41.906C23.436 40.8147 22.3446 44.0886 21.2533 46.2712C20.162 48.4538 12.3046 61.986 12.9594 64.3869C13.6142 66.3513 15.3603 67.4426 17.1064 67.4426C17.5429 67.4426 17.9794 67.4426 18.4159 67.2243L45.2621 58.9304C47.0082 58.4938 48.3178 56.7478 48.3178 55.0017C48.3178 53.2556 47.2265 51.5095 45.6986 50.8547Z" fill="#00796B"/>
<path d="M40.8969 24.4452L36.0951 22.2626C33.2577 20.953 29.7655 22.2626 28.456 25.1L2.48284 80.9749C1.39154 83.1575 2.48284 85.7766 4.66546 86.8679C5.32024 87.0862 5.97503 87.3045 6.62981 87.3045C8.3759 87.3045 9.90373 86.4314 10.5585 84.9036C10.5585 84.9036 31.5116 55.8748 33.2577 52.3826C35.0038 48.8905 43.9525 32.0843 43.9525 32.0843C45.0438 29.2469 43.9525 25.7547 40.8969 24.4452V24.4452Z" fill="#009688"/>
<path d="M70.7986 25.5366C69.2708 23.7905 66.4334 23.354 64.6873 24.8818L53.7742 34.0488L39.8055 26.4096C37.4046 25.1001 34.1307 25.5366 32.6028 28.374C30.8567 31.2114 31.7298 34.7036 34.3489 35.7949L52.4646 43.2158C53.1194 43.434 53.7742 43.6523 54.429 43.6523C55.5203 43.6523 56.3933 43.2158 57.2664 42.561L70.3621 31.6479C72.1082 30.1201 72.3264 27.501 70.7986 25.5366V25.5366Z" fill="#FFAC33"/>
<path d="M7.93926 41.6877L15.3602 30.5564L25.4002 31.866L28.6741 25.0998C29.5471 23.1355 31.2932 22.0442 33.2576 21.8259H13.1775C11.6497 21.8259 10.3401 22.4807 9.46709 23.7903L0.736632 36.886C-0.572937 38.8503 -0.136413 41.6877 2.0462 42.9973C2.48272 43.4338 3.35577 43.6521 4.22882 43.6521C5.53838 43.6521 7.06621 42.9973 7.93926 41.6877V41.6877Z" fill="#FFAC33"/>
</svg>
