<svg width="369" height="212" viewBox="0 0 369 212" fill="none" xmlns="http://www.w3.org/2000/svg">
<path d="M14.0802 211.205C14.0802 211.205 -17.5311 147.236 16.1818 109.027C59.656 59.7645 113.899 79.3884 134.985 78.1873C156.07 76.9862 157.72 36.7969 220.717 31.1483C269.419 26.782 350.862 40.9035 333.806 118.133C320.831 176.859 380.528 146.49 366.476 211.367L14.0802 211.205Z" fill="#EBF2F9"/>
<path d="M183.227 0.0487128L201.55 1.52588e-05L201.599 16.1991H183.276L183.227 0.0487128Z" fill="#D3671E"/>
<path d="M177.726 0.0817556L192.397 0.0168304L192.447 16.1997H177.759L177.726 0.0817556Z" fill="#F1A34F"/>
<path opacity="0.4" d="M192.397 0.0170212L177.692 0.0819463V5.21111L192.446 16.1999L192.397 0.0170212Z" fill="#D86713"/>
<path d="M66.9199 177.183L105.383 177.07L105.498 211.075H67.0182L66.9199 177.183Z" fill="#D3671E"/>
<path d="M55.376 177.249L86.1761 177.119L86.258 211.092L55.4578 211.075L55.376 177.249Z" fill="#F1A34F"/>
<path opacity="0.4" d="M86.176 177.119L55.2939 177.248L55.3103 187.994L86.2578 211.091L86.176 177.119Z" fill="#D86713"/>
<path d="M208.029 183.861L179.734 183.948L179.811 208.815L208.106 208.728L208.029 183.861Z" fill="#D3671E"/>
<path d="M171.241 183.985L193.903 183.903L193.952 208.77L171.306 208.867L171.241 183.985Z" fill="#F1A34F"/>
<path opacity="0.4" d="M193.903 183.903L171.192 183.985L171.208 191.906L193.952 208.77L193.903 183.903Z" fill="#D86713"/>
<path d="M114.749 134.77L143.044 134.689L143.109 159.702L114.815 159.653L114.749 134.77Z" fill="#D3671E"/>
<path d="M106.25 134.819L128.913 134.738L128.962 159.702H106.316L106.25 134.819Z" fill="#F1A34F"/>
<path opacity="0.4" d="M128.913 134.738L106.317 134.819L106.218 142.724L128.962 159.605L128.913 134.738Z" fill="#D86713"/>
<path d="M169.489 119.204L197.784 119.123L197.866 159.702L169.571 159.783L169.489 119.204Z" fill="#D3671E"/>
<path d="M161.007 119.253L183.653 119.156L183.719 159.67H161.073L161.007 119.253Z" fill="#F1A34F"/>
<path opacity="0.4" d="M183.653 119.156L160.941 119.253L160.974 127.158L183.718 144.039L183.653 119.156Z" fill="#D86713"/>
<path d="M150.495 85.881L178.79 85.7999L178.871 110.796H150.577L150.495 85.881Z" fill="#D3671E"/>
<path d="M142.013 85.9302L164.659 85.8491L164.724 110.813L142.079 110.797L142.013 85.9302Z" fill="#F1A34F"/>
<path opacity="0.4" d="M164.659 85.8487L141.947 85.9299L141.964 93.8346L164.724 110.813L164.659 85.8487Z" fill="#D86713"/>
<path d="M171.312 170.69L127.282 170.825L127.401 209.537L171.432 209.402L171.312 170.69Z" fill="#D3671E"/>
<path d="M114.078 170.902L149.332 170.756L149.43 209.468L114.176 209.598L114.078 170.902Z" fill="#F1A34F"/>
<path opacity="0.4" d="M149.332 170.756L113.979 170.902L114.012 183.206L149.43 209.469L149.332 170.756Z" fill="#D86713"/>
<path d="M103.91 16.0368V211.075H210.179V16.0368H103.91ZM207.772 208.591H106.317V18.3416H207.772V208.591Z" fill="#699FF0"/>
<path d="M224.621 16.0368H210.179V211.156H224.621V16.0368Z" fill="#466AA5"/>
<path d="M209.082 61.9071H105.023V67.231H209.082V61.9071Z" fill="#699FF0"/>
<path d="M209.082 110.796H105.023V116.12H209.082V110.796Z" fill="#699FF0"/>
<path d="M209.082 159.702H105.023V165.026H209.082V159.702Z" fill="#699FF0"/>
<path d="M113.538 212C113.407 212 113.292 211.984 113.161 211.951C112.277 211.74 111.736 210.864 111.949 210.004L148.317 57.1513C148.529 56.2748 149.414 55.7391 150.282 55.9501C151.166 56.1611 151.706 57.0376 151.493 57.8979L115.126 210.75C114.946 211.497 114.274 212 113.538 212Z" fill="#2E3552"/>
<path d="M80.789 212C80.658 212 80.5433 211.984 80.4123 211.951C79.5281 211.74 78.9878 210.864 79.2006 210.004L115.568 57.1513C115.781 56.2748 116.665 55.7391 117.533 55.9501C118.417 56.1611 118.958 57.0376 118.745 57.8979L82.3773 210.75C82.1972 211.497 81.5258 212 80.789 212Z" fill="#2E3552"/>
<path d="M129.601 141.555H96.9177C96.0171 141.555 95.2803 140.825 95.2803 139.932C95.2803 139.039 96.0171 138.309 96.9177 138.309H129.601C130.502 138.309 131.238 139.039 131.238 139.932C131.238 140.825 130.502 141.555 129.601 141.555Z" fill="#2E3552"/>
<path d="M124.034 166.552H91.7434C90.8428 166.552 90.106 165.821 90.106 164.929C90.106 164.036 90.8428 163.305 91.7434 163.305H124.034C124.934 163.305 125.671 164.036 125.671 164.929C125.671 165.821 124.934 166.552 124.034 166.552Z" fill="#2E3552"/>
<path d="M136.151 116.559H101.683C100.782 116.559 100.045 115.828 100.045 114.935C100.045 114.043 100.782 113.312 101.683 113.312H136.151C137.051 113.312 137.788 114.043 137.788 114.935C137.788 115.828 137.051 116.559 136.151 116.559Z" fill="#2E3552"/>
<path d="M140.408 91.2375H103.271C102.37 91.2375 101.633 90.5071 101.633 89.6143C101.633 88.7216 102.37 87.9912 103.271 87.9912H140.408C141.308 87.9912 142.045 88.7216 142.045 89.6143C142.045 90.5071 141.308 91.2375 140.408 91.2375Z" fill="#2E3552"/>
<path d="M117.975 191.711H85.8816C84.981 191.711 84.2441 190.98 84.2441 190.087C84.2441 189.195 84.981 188.464 85.8816 188.464H117.975C118.876 188.464 119.613 189.195 119.613 190.087C119.613 190.98 118.876 191.711 117.975 191.711Z" fill="#2E3552"/>
<path d="M146.958 66.2409H109.821C108.92 66.2409 108.183 65.5105 108.183 64.6178C108.183 63.725 108.92 62.9946 109.821 62.9946H146.958C147.858 62.9946 148.595 63.725 148.595 64.6178C148.595 65.5105 147.858 66.2409 146.958 66.2409Z" fill="#2E3552"/>
<path d="M123.33 44.4095C123.33 44.4095 123.445 40.8873 124.051 39.8971C124.656 38.8908 125.983 37.6572 126.703 38.0954C127.424 38.5337 127.522 41.9585 127.26 42.5753C127.014 43.1759 125.262 45.4158 125.262 45.4158L123.33 44.4095Z" fill="#FFB27D"/>
<path d="M124.64 44.0362C123.608 43.4681 123.183 43.9226 123.183 43.9226C123.183 43.9226 116.125 53.6939 115.405 54.4731C114.684 55.2522 102.813 59.1964 102.813 59.1964C102.813 59.1964 97.9988 60.5761 97.5894 63.3679C97.2292 65.7864 98.5064 67.4096 99.9473 68.4322C101.683 69.6495 103.992 69.682 105.777 68.5296C109.772 65.9487 117.713 60.7222 119.04 59.2451C122.004 55.9501 125.868 45.1724 125.868 45.1724C125.868 45.1724 125.442 44.4907 124.64 44.0362Z" fill="#AA413E"/>
<path d="M152.242 27.8268L123.947 27.914L124.024 52.7807L152.319 52.6935L152.242 27.8268Z" fill="#D3671E"/>
<path d="M115.454 27.9674L138.1 27.87L138.165 52.753L115.52 52.8341L115.454 27.9674Z" fill="#F1A34F"/>
<path opacity="0.4" d="M138.099 27.8697L115.388 27.9671L115.421 35.8718L138.165 52.7526L138.099 27.8697Z" fill="#D86713"/>
<path d="M140.376 50.2042C140.376 50.2042 140.359 46.6819 140.916 45.6593C141.473 44.6367 142.766 43.3545 143.487 43.7603C144.223 44.166 144.436 47.5909 144.223 48.2077C143.994 48.8245 142.34 51.1294 142.34 51.1294L140.376 50.2042Z" fill="#FFB27D"/>
<path d="M96.361 163.468C95.575 162.802 96.0499 159.037 96.0499 159.037C96.0499 159.037 100.127 155.806 100.684 158.274C101.241 160.741 104.548 161.861 106.448 162.169C107.708 162.364 108.118 163.046 108.265 163.468H96.361Z" fill="#2C3A64"/>
<path d="M95.9192 159.215C99.6853 159.799 101.077 158.907 101.077 158.907C101.028 155.222 102.616 148.324 104.172 138.78C106.235 126.2 108.609 110.082 110.394 101.009C111.409 95.7985 112.097 92.4386 112.097 92.4386L109.019 92.3736L93.6431 92.0652C93.6431 92.0652 94.7893 108.946 94.4782 117.273C94.3964 119.269 94.249 120.763 93.9706 121.444C91.3343 127.758 95.9192 159.215 95.9192 159.215Z" fill="#35488B"/>
<path d="M94.4615 117.289C96.5574 121.168 102.174 132.839 104.122 139.072C106.186 126.492 108.609 110.082 110.394 101.009C110.312 97.5839 109.886 94.5811 109.018 92.3736L93.6428 92.0652C93.6264 92.0815 94.7726 108.946 94.4615 117.289Z" fill="#2C3A64"/>
<path d="M109.313 163.468C108.527 162.802 109.002 159.037 109.002 159.037C109.002 159.037 113.079 155.806 113.636 158.274C114.193 160.741 117.5 161.861 119.4 162.169C120.661 162.364 121.07 163.046 121.217 163.468H109.313Z" fill="#2C3A64"/>
<path d="M118.778 92.0815C118.778 92.0815 112.735 147.496 113.931 158.679C113.931 158.679 112.637 159.686 108.822 159.459C108.822 159.459 101.257 130.891 103.386 122.37C104.286 118.75 100.356 93.4125 100.356 93.4125L118.778 92.0815Z" fill="#35488B"/>
<path d="M103.894 52.4441C103.894 52.4441 111.573 56.2423 115.388 54.5055C115.388 54.5055 113.784 52.4441 111.999 51.6001C112.032 50.9183 112.064 50.3178 112.064 49.7659C112.097 47.9642 112.015 46.9416 112.015 46.9416L108.708 44.5556L106.464 42.9324C106.595 43.9388 106.612 44.864 106.563 45.708C106.251 50.1068 103.894 52.4441 103.894 52.4441Z" fill="#FFB27D"/>
<path d="M106.546 45.7242C106.546 45.7242 108.331 49.2627 112.08 49.7659C112.113 47.9642 112.031 46.9416 112.031 46.9416L108.724 44.5556C107.25 45.1074 106.546 45.7242 106.546 45.7242Z" fill="#ED975D"/>
<path d="M112.867 46.7306C112.867 46.7306 105.989 49.1654 104.532 44.8965C103.075 40.6276 101.208 38.063 105.531 36.3424C109.854 34.6057 111.278 35.9529 112.113 37.2676C112.948 38.5499 114.619 45.984 112.867 46.7306Z" fill="#FFB27D"/>
<path d="M93.1355 92.0815C94.2162 94.3052 118.041 94.2078 119.22 92.6334C119.695 92.0003 120.251 85.6213 120.563 78.2035C120.743 74.097 120.841 69.6657 120.825 65.7215C120.792 59.2938 120.432 54.1322 119.515 53.7426C114.406 51.5514 111.246 50.1554 104.581 50.3502C102.518 50.4152 100.668 51.5838 99.7671 53.4342C98.1624 56.7292 95.8864 62.5563 95.7226 69.4385C95.4279 80.0377 91.7764 89.2734 93.1355 92.0815Z" fill="#C65447"/>
<path d="M113.112 61.3552C113.112 61.3552 113.882 72.4414 120.563 78.2035C120.743 74.097 120.841 69.6658 120.825 65.7215C118.827 63.0758 116.191 61.1767 113.112 61.3552Z" fill="#AA413E"/>
<path d="M109.821 50.5937C109.821 50.5937 117.157 50.6424 119.449 52.7525C121.103 54.2783 132.106 61.7123 132.778 61.5987C133.449 61.4851 139.851 48.8407 139.851 48.8407C139.851 48.8407 143.208 49.1167 143.781 50.5613C143.781 50.5613 140.719 66.7116 133.891 70.3637C133.891 70.3637 116.485 67.8154 111.344 62.1506C108.707 59.2289 109.821 50.5937 109.821 50.5937Z" fill="#C65447"/>
<path d="M112.572 33.9239C112.572 33.9239 112.162 37.998 110.934 39.1018C109.706 40.2055 110.034 41.7475 109.886 41.9585C109.755 42.1858 108.478 41.5203 108.249 41.8936C107.725 42.7539 108.544 43.3869 109.051 43.5979C109.559 43.8089 107.741 47.2987 106.415 47.4285C104.106 47.6558 100.553 41.3417 100.258 39.4913C99.8653 37.0728 101.241 33.3071 105.203 33.4857C111.426 33.7941 112.686 32.4469 112.572 33.9239Z" fill="#2B478B"/>
<path d="M274.734 172.183L230.703 172.317L230.824 211.03L274.854 210.895L274.734 172.183Z" fill="#D3671E"/>
<path d="M217.499 172.396L252.753 172.25L252.851 210.962L217.597 211.108L217.499 172.396Z" fill="#F1A34F"/>
<path opacity="0.4" d="M252.753 172.249L217.4 172.396L217.433 184.699L252.851 210.962L252.753 172.249Z" fill="#D86713"/>
<path d="M301.625 186.069L273.331 186.156L273.407 211.023L301.702 210.935L301.625 186.069Z" fill="#D3671E"/>
<path d="M264.837 186.208L287.499 186.111L287.548 210.994L264.902 211.075L264.837 186.208Z" fill="#F1A34F"/>
<path opacity="0.4" d="M287.499 186.111L264.788 186.208L264.804 194.113L287.548 210.994L287.499 186.111Z" fill="#D86713"/>
</svg>
