<svg width="37" height="44" viewBox="0 0 37 44" fill="none" xmlns="http://www.w3.org/2000/svg">
<path d="M18.5 17H26C26.5304 17 27.0391 17.2107 27.4142 17.5858C27.7893 17.9609 28 18.4696 28 19V42H6V19C6 18.4696 6.21071 17.9609 6.58579 17.5858C6.96086 17.2107 7.46957 17 8 17H10.5" stroke="#FCFAF7" stroke-width="4" stroke-linecap="round" stroke-linejoin="round"/>
<path d="M10 6H7.5C6.04131 6 4.64236 6.57946 3.61091 7.61091C2.57946 8.64236 2 10.0413 2 11.5C2 12.9587 2.57946 14.3576 3.61091 15.3891C4.64236 16.4205 6.04131 17 7.5 17H12V27.5C12 28.163 12.2634 28.7989 12.7322 29.2678C13.2011 29.7366 13.837 30 14.5 30C15.163 30 15.7989 29.7366 16.2678 29.2678C16.7366 28.7989 17 28.163 17 27.5V17H26.5C27.9587 17 29.3576 16.4205 30.3891 15.3891C31.4205 14.3576 32 12.9587 32 11.5C32 10.0413 31.4205 8.64236 30.3891 7.61091C29.3576 6.57946 27.9587 6 26.5 6H22C22 6 21 2 16 2C11 2 10 6 10 6Z" stroke="#FCFAF7" stroke-width="4" stroke-linecap="round" stroke-linejoin="round"/>
<path d="M28 19H33C33.5304 19 34.0391 19.2107 34.4142 19.5858C34.7893 19.9609 35 20.4696 35 21V26C35 27.0609 34.5786 28.0783 33.8284 28.8284C33.0783 29.5786 32.0609 30 31 30H28" stroke="#FCFAF7" stroke-width="4" stroke-linecap="round"/>
</svg>
