<svg width="20" height="20" viewBox="0 0 20 20" fill="none" xmlns="http://www.w3.org/2000/svg">
<path d="M13.5001 8.60395e-07C14.0159 -5.35606e-05 14.5254 0.11392 14.9921 0.333765C15.4587 0.55361 15.871 0.873891 16.1994 1.27169C16.5279 1.66948 16.7643 2.13496 16.8918 2.6348C17.0193 3.13464 17.0348 3.65649 16.9371 4.163L16.9221 4.229C17.792 4.51921 18.5526 5.06819 19.1021 5.8025C19.6515 6.5368 19.9636 7.4214 19.9966 8.33791C20.0295 9.25443 19.7818 10.1592 19.2865 10.931C18.7912 11.7029 18.072 12.3051 17.2251 12.657L16.1391 19.164C16.1002 19.3975 15.9798 19.6097 15.7993 19.7627C15.6188 19.9158 15.3898 19.9999 15.1531 20H4.84706C4.61035 19.9999 4.38136 19.9158 4.20081 19.7627C4.02027 19.6097 3.89988 19.3975 3.86106 19.164L2.83206 12.994C2.13998 12.9547 1.48286 12.677 0.972382 12.2081C0.461906 11.7391 0.129581 11.1078 0.0318965 10.4216C-0.0657884 9.73531 0.0771947 9.03639 0.436542 8.44362C0.795889 7.85085 1.34942 7.40081 2.00306 7.17L2.00006 7C1.99986 5.98746 2.25591 4.99133 2.74437 4.10439C3.23283 3.21746 3.9378 2.46856 4.79363 1.92746C5.64946 1.38635 6.62831 1.07063 7.63902 1.0097C8.64973 0.948772 9.65942 1.14462 10.5741 1.579C10.8923 1.09358 11.3265 0.69506 11.8373 0.419394C12.3482 0.143727 12.9196 -0.000406336 13.5001 8.60395e-07V8.60395e-07ZM7.00006 13H4.86006L5.69406 18H7.00006V13ZM11.0001 13H9.00006V18H11.0001V13ZM15.1391 13H13.0001V18H14.3051L15.1391 13ZM8.00006 3C5.85806 3 4.10906 4.684 4.00506 6.767L4.00006 6.964L4.00306 7.134C4.01013 7.52668 3.90143 7.91274 3.69052 8.24404C3.47961 8.57535 3.17582 8.83722 2.81706 8.997L2.66706 9.056C2.44501 9.13506 2.25799 9.28995 2.13893 9.49337C2.01987 9.69678 1.97641 9.93569 2.0162 10.168C2.056 10.4003 2.17649 10.6112 2.35647 10.7633C2.53645 10.9155 2.76436 10.9993 3.00006 11H15.5001C15.8697 11 16.2347 10.918 16.5689 10.76C16.903 10.602 17.1979 10.3718 17.4324 10.0861C17.667 9.80042 17.8352 9.46626 17.925 9.10773C18.0149 8.74919 18.0241 8.37519 17.9521 8.01265C17.88 7.65012 17.7285 7.30807 17.5083 7.01114C17.2882 6.71421 17.005 6.46979 16.679 6.29547C16.3531 6.12116 15.9926 6.02128 15.6234 6.00305C15.2542 5.98481 14.8856 6.04866 14.5441 6.19L14.3691 6.271C13.9076 6.50877 13.3718 6.55783 12.8749 6.40779C12.378 6.25776 11.9588 5.9204 11.7061 5.467L11.6361 5.33C11.3165 4.63443 10.804 4.04517 10.1595 3.63216C9.51501 3.21916 8.76553 2.99975 8.00006 3ZM13.5001 2C13.2408 1.99995 12.986 2.06707 12.7605 2.19484C12.5349 2.3226 12.3463 2.50664 12.2131 2.729C12.7294 3.23738 13.1495 3.83501 13.4531 4.493C13.9056 4.26044 14.3947 4.10722 14.8991 4.04C14.9867 3.81279 15.0178 3.56765 14.9895 3.32576C14.9612 3.08386 14.8744 2.8525 14.7367 2.65165C14.5989 2.4508 14.4144 2.28651 14.1989 2.17297C13.9835 2.05944 13.7436 2.00007 13.5001 2V2Z" fill="white"/>
</svg>
