<svg width="12" height="21" viewBox="0 0 12 21" fill="none" xmlns="http://www.w3.org/2000/svg">
<path d="M9.9291 7.754C9.96114 7.56086 9.91638 7.36285 9.8044 7.20226C9.69241 7.04168 9.52207 6.93125 9.32975 6.89456C9.13744 6.85787 8.93841 6.89784 8.77517 7.00592C8.61193 7.114 8.49742 7.28163 8.45611 7.473C8.35529 8.00365 8.08385 8.48684 7.6831 8.849C7.35363 9.14885 6.95006 9.35529 6.5141 9.447C6.41765 9.46716 6.32611 9.50611 6.24471 9.56165C6.16331 9.61719 6.09364 9.68821 6.03969 9.77067C5.98574 9.85313 5.94856 9.9454 5.93027 10.0422C5.91198 10.1391 5.91295 10.2385 5.9331 10.335C5.95326 10.4315 5.99222 10.523 6.04776 10.6044C6.10329 10.6858 6.17432 10.7555 6.25678 10.8094C6.33923 10.8634 6.43151 10.9005 6.52834 10.9188C6.62517 10.9371 6.72465 10.9362 6.82111 10.916C7.51976 10.7704 8.16636 10.4395 8.6931 9.958C9.33175 9.37564 9.76526 8.60262 9.9291 7.754V7.754Z" fill="white"/>
<path d="M5.26176e-09 0.75C5.26176e-09 0.551088 0.0790175 0.360322 0.21967 0.21967C0.360322 0.0790175 0.551088 0 0.75 0H11.25C11.4489 0 11.6397 0.0790175 11.7803 0.21967C11.921 0.360322 12 0.551088 12 0.75V7.25C12.0001 8.77786 11.4406 10.2528 10.4272 11.3963C9.41384 12.5397 8.01679 13.2724 6.5 13.456V18.509L9.248 18.5C9.44691 18.4995 9.63789 18.578 9.77892 18.7183C9.91994 18.8585 9.99947 19.0491 10 19.248C10.0005 19.4469 9.92202 19.6379 9.78174 19.7789C9.64147 19.9199 9.45091 19.9995 9.252 20L5.752 20.011H5.747L2.747 20C2.54809 19.9992 2.35764 19.9194 2.21755 19.7782C2.07746 19.637 1.9992 19.4459 2 19.247C2.0008 19.0481 2.08058 18.8576 2.22179 18.7175C2.36301 18.5775 2.55409 18.4992 2.753 18.5L5 18.508V13.452C3.61672 13.2698 2.34685 12.591 1.42697 11.5419C0.507094 10.4929 -5.96473e-05 9.14522 5.26176e-09 7.75V0.75ZM1.5 1.5V4.25H10.5V1.5H1.5ZM1.5 7.75C1.5 8.87717 1.94777 9.95817 2.7448 10.7552C3.54183 11.5522 4.62283 12 5.75 12C7.00978 12 8.21796 11.4996 9.10876 10.6088C9.99955 9.71796 10.5 8.50978 10.5 7.25V5.75H1.5V7.75Z" fill="white"/>
</svg>
